<svg width="83" height="83" viewBox="0 0 83 83" fill="none" xmlns="http://www.w3.org/2000/svg">
<g filter="url(#filter0_d_40000997_2380)">
<rect x="12.656" y="6.48047" width="57.64" height="57.64" rx="28.82" fill="#FC8019"/>
<path d="M41.4761 26.4512C42.1667 26.4512 42.7271 27.0115 42.7271 27.7021V34.0498H49.0737C49.7643 34.0498 50.3247 34.6092 50.3247 35.2998C50.3247 35.9904 49.7644 36.5508 49.0737 36.5508H42.7271V42.8975C42.7271 43.5881 42.1667 44.1484 41.4761 44.1484C40.7855 44.1484 40.2261 43.5881 40.2261 42.8975V36.5508H33.8784C33.1878 36.5508 32.6274 35.9904 32.6274 35.2998C32.6275 34.6092 33.1878 34.0498 33.8784 34.0498H40.2261V27.7021C40.2261 27.0115 40.7855 26.4512 41.4761 26.4512Z" fill="white" stroke="white" stroke-width="0.0316583"/>
</g>
<defs>
<filter id="filter0_d_40000997_2380" x="0.0800056" y="0.192469" width="82.7919" height="82.7926" filterUnits="userSpaceOnUse" color-interpolation-filters="sRGB">
<feFlood flood-opacity="0" result="BackgroundImageFix"/>
<feColorMatrix in="SourceAlpha" type="matrix" values="0 0 0 0 0 0 0 0 0 0 0 0 0 0 0 0 0 0 127 0" result="hardAlpha"/>
<feOffset dy="6.288"/>
<feGaussianBlur stdDeviation="6.288"/>
<feColorMatrix type="matrix" values="0 0 0 0 0 0 0 0 0 0 0 0 0 0 0 0 0 0 0.24 0"/>
<feBlend mode="normal" in2="BackgroundImageFix" result="effect1_dropShadow_40000997_2380"/>
<feBlend mode="normal" in="SourceGraphic" in2="effect1_dropShadow_40000997_2380" result="shape"/>
</filter>
</defs>
</svg>
