<svg width="24" height="24" viewBox="0 0 24 24" fill="none" xmlns="http://www.w3.org/2000/svg">
<path fill-rule="evenodd" clip-rule="evenodd" d="M11.9998 7.31404C12.5764 7.31404 13.14 7.48501 13.6194 7.80532C14.0988 8.12564 14.4724 8.58091 14.6931 9.11357C14.9137 9.64624 14.9714 10.2324 14.859 10.7978C14.7465 11.3633 14.4689 11.8827 14.0612 12.2904C13.6535 12.6981 13.1341 12.9758 12.5686 13.0883C12.0031 13.2008 11.417 13.143 10.8843 12.9224C10.3517 12.7018 9.89638 12.3282 9.57605 11.8488C9.25572 11.3694 9.08474 10.8058 9.08472 10.2292C9.08559 9.45636 9.393 8.71538 9.9395 8.16887C10.486 7.62235 11.227 7.31493 11.9998 7.31404ZM11.9998 14.3944C12.8236 14.3944 13.6289 14.1501 14.3139 13.6924C14.9988 13.2348 15.5327 12.5843 15.8479 11.8232C16.1631 11.0621 16.2456 10.2247 16.0849 9.41672C15.9242 8.60877 15.5275 7.86662 14.945 7.28412C14.3625 6.70161 13.6204 6.30492 12.8124 6.14421C12.0045 5.98349 11.167 6.06597 10.406 6.38121C9.64488 6.69645 8.99438 7.2303 8.5367 7.91524C8.07903 8.60018 7.83475 9.40546 7.83474 10.2292C7.83595 11.3335 8.27516 12.3922 9.056 13.1731C9.83685 13.9539 10.8956 14.3932 11.9998 14.3944ZM7.35818 5.14059C5.88878 6.61018 5.26946 8.44266 5.51738 10.5874C5.9866 14.6468 9.4737 18.8915 11.9998 20.6281C14.526 18.8915 18.0131 14.6468 18.4823 10.5874C18.7302 8.44266 18.1109 6.61018 16.6415 5.14071C15.3837 3.88279 13.6915 3.25389 11.9998 3.25389C10.3082 3.25389 8.61633 3.88279 7.35818 5.14059ZM7.12881 17.4364C8.47403 19.3055 10.1717 20.9763 11.6704 21.906C11.7693 21.9674 11.8834 22 11.9998 22C12.1163 22 12.2304 21.9674 12.3293 21.906C13.8279 20.9763 15.5257 19.3055 16.8709 17.4364C18.0002 15.8674 19.4118 13.4306 19.7239 10.731C19.8622 9.53421 19.7661 8.39895 19.4384 7.35599C19.0778 6.20843 18.4341 5.16586 17.5252 4.25693C16.0701 2.80151 14.1077 2 11.9998 2C9.89198 2 7.92958 2.80151 6.47432 4.25681C5.56547 5.16574 4.9218 6.20831 4.56118 7.35588C4.23341 8.39883 4.13732 9.53421 4.27564 10.7308C4.58774 13.4306 5.99933 15.8674 7.12881 17.4364Z" fill="#FC8019" stroke="#FC8019" stroke-width="0.5"/>
</svg>
