<svg width="16" height="16" viewBox="0 0 16 16" fill="none" xmlns="http://www.w3.org/2000/svg">
<path fill-rule="evenodd" clip-rule="evenodd" d="M7.9999 4.87472C8.38427 4.87472 8.76 4.9887 9.0796 5.20225C9.39919 5.41579 9.64828 5.7193 9.79537 6.07441C9.94247 6.42952 9.98096 6.82028 9.90597 7.19726C9.83099 7.57425 9.6459 7.92053 9.37412 8.19232C9.10233 8.46412 8.75605 8.64921 8.37907 8.72421C8.00209 8.7992 7.61133 8.76072 7.25622 8.61364C6.90111 8.46655 6.59758 8.21747 6.38403 7.89788C6.17048 7.57829 6.05649 7.20256 6.05648 6.81819C6.05706 6.30294 6.262 5.80895 6.62633 5.44461C6.99067 5.08027 7.48464 4.87532 7.9999 4.87472ZM7.9999 9.59496C8.54908 9.59496 9.08594 9.4321 9.54257 9.12699C9.9992 8.82188 10.3551 8.38822 10.5653 7.88084C10.7754 7.37345 10.8304 6.81515 10.7233 6.27651C10.6161 5.73788 10.3517 5.24311 9.96336 4.85478C9.57503 4.46644 9.08026 4.20198 8.54163 4.09484C8.003 3.98769 7.44469 4.04268 6.9373 4.25284C6.42992 4.463 5.99625 4.8189 5.69114 5.27553C5.38602 5.73215 5.22316 6.26901 5.22316 6.81819C5.22396 7.55438 5.51677 8.26019 6.03734 8.78076C6.5579 9.30133 7.26371 9.59414 7.9999 9.59496ZM4.90545 3.42576C3.92586 4.40548 3.51297 5.62714 3.67825 7.05699C3.99106 9.76326 6.3158 12.593 7.9999 13.7508C9.68402 12.593 12.0087 9.76326 12.3216 7.05699C12.4868 5.62714 12.0739 4.40548 11.0943 3.42583C10.2558 2.58722 9.12764 2.16796 7.9999 2.16796C6.87215 2.16796 5.74422 2.58722 4.90545 3.42576ZM4.75254 11.623C5.64935 12.869 6.78116 13.9829 7.78024 14.6027C7.84619 14.6437 7.92227 14.6654 7.9999 14.6654C8.07753 14.6654 8.15361 14.6437 8.21956 14.6027C9.21863 13.9829 10.3505 12.869 11.2473 11.623C12.0001 10.577 12.9412 8.95241 13.1493 7.15267C13.2415 6.35484 13.1774 5.598 12.959 4.90269C12.7185 4.13765 12.2894 3.44261 11.6835 2.83665C10.7134 1.86637 9.40514 1.33203 7.9999 1.33203C6.59465 1.33203 5.28639 1.86637 4.31622 2.83657C3.71031 3.44253 3.2812 4.13757 3.04079 4.90261C2.82228 5.59792 2.75821 6.35484 2.85043 7.15259C3.0585 8.95241 3.99955 10.577 4.75254 11.623Z" fill="#625D5B" stroke="#625D5B" stroke-width="0.333333"/>
</svg>
