<svg width="192" height="131" viewBox="0 0 192 131" fill="none" xmlns="http://www.w3.org/2000/svg">
<rect x="14" y="10" width="176.5" height="120" rx="14" fill="#0A9B0C" fill-opacity="0.04"/>
<rect x="13.5" y="9.5" width="177.5" height="121" rx="14.5" stroke="#0A9B0C" stroke-opacity="0.19"/>
<path fill-rule="evenodd" clip-rule="evenodd" d="M94.6812 45.125H97.25C98.045 45.125 98.81 44.8089 99.3725 44.2464C99.935 43.6839 100.25 42.9208 100.25 42.125V39.5547C100.411 39.5187 100.576 39.5 100.741 39.5H105.875C107.116 39.5 108.125 40.5073 108.125 41.75V48.875C108.125 49.289 108.462 49.625 108.875 49.625C109.288 49.625 109.625 49.289 109.625 48.875C109.625 46.2703 109.625 43.6651 109.625 41.75C109.625 39.6789 107.945 38 105.875 38C104.139 38 102.046 38 100.741 38C99.7475 38 98.795 38.3952 98.09 39.0984C97.0362 40.1532 95.2775 41.9113 94.2237 42.9661C93.5187 43.6693 93.125 44.6232 93.125 45.6177V56C93.125 58.0711 94.805 59.75 96.875 59.75H98.75C99.1625 59.75 99.5 59.414 99.5 59C99.5 58.586 99.1625 58.25 98.75 58.25H96.875C95.6337 58.25 94.625 57.2428 94.625 56V45.6177C94.625 45.4505 94.6437 45.2855 94.6812 45.125ZM98.75 40.5605L95.6863 43.625H97.25C97.6475 43.625 98.03 43.4671 98.3113 43.1855C98.5925 42.9042 98.75 42.5229 98.75 42.125V40.5605Z" fill="#353231"/>
<path fill-rule="evenodd" clip-rule="evenodd" d="M105.875 50C102.564 50 99.875 52.6884 99.875 56C99.875 59.3116 102.564 62 105.875 62C109.186 62 111.875 59.3116 111.875 56C111.875 52.6884 109.186 50 105.875 50ZM105.875 51.5C108.358 51.5 110.375 53.5164 110.375 56C110.375 58.4836 108.358 60.5 105.875 60.5C103.392 60.5 101.375 58.4836 101.375 56C101.375 53.5164 103.392 51.5 105.875 51.5ZM105.125 54.8105V59C105.125 59.414 105.463 59.75 105.875 59.75C106.287 59.75 106.625 59.414 106.625 59V54.8105L107.221 55.4053C107.514 55.6981 107.986 55.6981 108.279 55.4053C108.575 55.1128 108.575 54.6372 108.279 54.3447L106.404 52.4697C106.111 52.1769 105.639 52.1769 105.346 52.4697L103.471 54.3447C103.175 54.6372 103.175 55.1128 103.471 55.4053C103.764 55.6981 104.236 55.6981 104.529 55.4053L105.125 54.8105Z" fill="#0A9B0C"/>
<path d="M55.6546 72.608C55.2626 72.608 54.9146 72.68 54.6106 72.824C54.3066 72.968 54.0466 73.176 53.8306 73.448C53.6226 73.72 53.4626 74.048 53.3506 74.432C53.2466 74.816 53.1946 75.248 53.1946 75.728C53.1946 76.376 53.2826 76.932 53.4586 77.396C53.6346 77.852 53.9026 78.204 54.2626 78.452C54.6306 78.7 55.0906 78.824 55.6426 78.824C56.0106 78.824 56.3626 78.788 56.6986 78.716C57.0426 78.636 57.4026 78.532 57.7786 78.404V79.712C57.4266 79.856 57.0706 79.96 56.7106 80.024C56.3586 80.088 55.9506 80.12 55.4866 80.12C54.6066 80.12 53.8786 79.94 53.3026 79.58C52.7266 79.212 52.2986 78.7 52.0186 78.044C51.7386 77.38 51.5986 76.604 51.5986 75.716C51.5986 75.068 51.6866 74.476 51.8626 73.94C52.0466 73.404 52.3066 72.94 52.6426 72.548C52.9866 72.156 53.4106 71.852 53.9146 71.636C54.4186 71.42 54.9986 71.312 55.6546 71.312C56.0866 71.312 56.5106 71.364 56.9266 71.468C57.3506 71.564 57.7466 71.7 58.1146 71.876L57.5866 73.136C57.2826 73 56.9666 72.88 56.6386 72.776C56.3186 72.664 55.9906 72.608 55.6546 72.608ZM60.9918 80H59.4798V70.88H60.9918V80ZM64.4371 73.496V80H62.9251V73.496H64.4371ZM63.6811 70.988C63.9051 70.988 64.1011 71.048 64.2691 71.168C64.4371 71.28 64.5211 71.484 64.5211 71.78C64.5211 72.068 64.4371 72.276 64.2691 72.404C64.1011 72.524 63.9051 72.584 63.6811 72.584C63.4491 72.584 63.2491 72.524 63.0811 72.404C62.9211 72.276 62.8411 72.068 62.8411 71.78C62.8411 71.484 62.9211 71.28 63.0811 71.168C63.2491 71.048 63.4491 70.988 63.6811 70.988ZM68.9984 80.12C68.3824 80.12 67.8464 80.004 67.3904 79.772C66.9424 79.532 66.5944 79.168 66.3464 78.68C66.1064 78.184 65.9864 77.552 65.9864 76.784C65.9864 75.984 66.1184 75.336 66.3824 74.84C66.6544 74.336 67.0264 73.968 67.4984 73.736C67.9704 73.496 68.5104 73.376 69.1184 73.376C69.5264 73.376 69.8904 73.416 70.2104 73.496C70.5304 73.576 70.8024 73.672 71.0264 73.784L70.5824 74.972C70.3344 74.876 70.0864 74.796 69.8384 74.732C69.5904 74.66 69.3504 74.624 69.1184 74.624C68.7584 74.624 68.4584 74.704 68.2184 74.864C67.9864 75.024 67.8144 75.264 67.7024 75.584C67.5904 75.896 67.5344 76.292 67.5344 76.772C67.5344 77.236 67.5904 77.624 67.7024 77.936C67.8224 78.248 67.9984 78.484 68.2304 78.644C68.4624 78.796 68.7504 78.872 69.0944 78.872C69.4624 78.872 69.7864 78.828 70.0664 78.74C70.3464 78.652 70.6104 78.532 70.8584 78.38V79.688C70.6104 79.84 70.3424 79.948 70.0544 80.012C69.7744 80.084 69.4224 80.12 68.9984 80.12ZM73.8822 75.212C73.8822 75.42 73.8742 75.64 73.8582 75.872C73.8422 76.096 73.8262 76.316 73.8102 76.532H73.8462C73.9102 76.436 73.9862 76.332 74.0742 76.22C74.1622 76.1 74.2502 75.984 74.3382 75.872C74.4342 75.752 74.5262 75.644 74.6142 75.548L76.5342 73.496H78.2502L75.6462 76.304L78.4182 80H76.6542L74.6382 77.216L73.8822 77.84V80H72.3822V70.88H73.8822V75.212ZM84.066 73.052C84.066 73.308 84.054 73.56 84.03 73.808C84.014 74.048 83.998 74.228 83.982 74.348H84.078C84.214 74.124 84.382 73.944 84.582 73.808C84.782 73.664 85.002 73.556 85.242 73.484C85.49 73.412 85.746 73.376 86.01 73.376C86.498 73.376 86.918 73.46 87.27 73.628C87.622 73.796 87.89 74.056 88.074 74.408C88.266 74.752 88.362 75.204 88.362 75.764V80H86.85V76.064C86.85 75.568 86.754 75.2 86.562 74.96C86.37 74.72 86.066 74.6 85.65 74.6C85.25 74.6 84.934 74.688 84.702 74.864C84.47 75.032 84.306 75.284 84.21 75.62C84.114 75.948 84.066 76.352 84.066 76.832V80H82.554V70.88H84.066V73.052ZM92.8693 73.376C93.4533 73.376 93.9533 73.496 94.3693 73.736C94.7933 73.968 95.1213 74.304 95.3533 74.744C95.5853 75.176 95.7013 75.704 95.7013 76.328V77.096H91.4053C91.4213 77.688 91.5853 78.148 91.8973 78.476C92.2093 78.796 92.6413 78.956 93.1933 78.956C93.6173 78.956 93.9933 78.916 94.3213 78.836C94.6573 78.748 95.0013 78.624 95.3533 78.464V79.676C95.0333 79.828 94.7013 79.94 94.3573 80.012C94.0133 80.084 93.6013 80.12 93.1213 80.12C92.4893 80.12 91.9253 80 91.4293 79.76C90.9413 79.512 90.5573 79.14 90.2773 78.644C90.0053 78.148 89.8693 77.532 89.8693 76.796C89.8693 76.052 89.9933 75.428 90.2413 74.924C90.4973 74.412 90.8493 74.028 91.2973 73.772C91.7453 73.508 92.2693 73.376 92.8693 73.376ZM92.8693 74.492C92.4693 74.492 92.1413 74.624 91.8853 74.888C91.6373 75.144 91.4893 75.528 91.4413 76.04H94.2373C94.2373 75.736 94.1853 75.468 94.0813 75.236C93.9853 75.004 93.8373 74.824 93.6373 74.696C93.4373 74.56 93.1813 74.492 92.8693 74.492ZM100.634 73.376C100.73 73.376 100.842 73.38 100.97 73.388C101.098 73.396 101.206 73.412 101.294 73.436L101.162 74.84C101.09 74.824 100.994 74.812 100.874 74.804C100.762 74.788 100.662 74.78 100.574 74.78C100.334 74.78 100.102 74.82 99.8779 74.9C99.6619 74.972 99.4659 75.084 99.2899 75.236C99.1219 75.38 98.9859 75.568 98.8819 75.8C98.7859 76.032 98.7379 76.308 98.7379 76.628V80H97.2259V73.496H98.3899L98.6059 74.624H98.6779C98.8059 74.392 98.9659 74.184 99.1579 74C99.3499 73.808 99.5699 73.656 99.8179 73.544C100.074 73.432 100.346 73.376 100.634 73.376ZM104.881 73.376C105.465 73.376 105.965 73.496 106.381 73.736C106.805 73.968 107.133 74.304 107.365 74.744C107.597 75.176 107.713 75.704 107.713 76.328V77.096H103.417C103.433 77.688 103.597 78.148 103.909 78.476C104.221 78.796 104.653 78.956 105.205 78.956C105.629 78.956 106.005 78.916 106.333 78.836C106.669 78.748 107.013 78.624 107.365 78.464V79.676C107.045 79.828 106.713 79.94 106.369 80.012C106.025 80.084 105.613 80.12 105.133 80.12C104.501 80.12 103.937 80 103.441 79.76C102.953 79.512 102.569 79.14 102.289 78.644C102.017 78.148 101.881 77.532 101.881 76.796C101.881 76.052 102.005 75.428 102.253 74.924C102.509 74.412 102.861 74.028 103.309 73.772C103.757 73.508 104.281 73.376 104.881 73.376ZM104.881 74.492C104.481 74.492 104.153 74.624 103.897 74.888C103.649 75.144 103.501 75.528 103.453 76.04H106.249C106.249 75.736 106.197 75.468 106.093 75.236C105.997 75.004 105.849 74.824 105.649 74.696C105.449 74.56 105.193 74.492 104.881 74.492ZM114.875 78.908C115.067 78.908 115.251 78.892 115.427 78.86C115.603 78.82 115.767 78.776 115.919 78.728V79.856C115.759 79.928 115.551 79.988 115.295 80.036C115.039 80.092 114.771 80.12 114.491 80.12C114.123 80.12 113.787 80.06 113.483 79.94C113.187 79.812 112.947 79.596 112.763 79.292C112.587 78.988 112.499 78.564 112.499 78.02V74.636H111.623V73.976L112.583 73.448L113.063 72.068H114.011V73.496H115.859V74.636H114.011V78.008C114.011 78.312 114.091 78.54 114.251 78.692C114.411 78.836 114.619 78.908 114.875 78.908ZM123.038 76.736C123.038 77.28 122.966 77.76 122.822 78.176C122.678 78.592 122.47 78.948 122.198 79.244C121.934 79.532 121.606 79.752 121.214 79.904C120.83 80.048 120.402 80.12 119.93 80.12C119.482 80.12 119.07 80.048 118.694 79.904C118.318 79.752 117.99 79.532 117.71 79.244C117.438 78.948 117.226 78.592 117.074 78.176C116.922 77.76 116.846 77.28 116.846 76.736C116.846 76.016 116.97 75.408 117.218 74.912C117.466 74.408 117.822 74.028 118.286 73.772C118.758 73.508 119.314 73.376 119.954 73.376C120.562 73.376 121.094 73.508 121.55 73.772C122.014 74.028 122.378 74.408 122.642 74.912C122.906 75.408 123.038 76.016 123.038 76.736ZM118.394 76.736C118.394 77.192 118.446 77.584 118.55 77.912C118.662 78.232 118.83 78.476 119.054 78.644C119.286 78.812 119.582 78.896 119.942 78.896C120.31 78.896 120.606 78.812 120.83 78.644C121.062 78.476 121.23 78.232 121.334 77.912C121.438 77.584 121.49 77.192 121.49 76.736C121.49 76.272 121.434 75.884 121.322 75.572C121.218 75.252 121.05 75.012 120.818 74.852C120.594 74.684 120.302 74.6 119.942 74.6C119.398 74.6 119.002 74.784 118.754 75.152C118.514 75.52 118.394 76.048 118.394 76.736ZM132.842 77.66C132.842 78.164 132.718 78.6 132.47 78.968C132.222 79.336 131.862 79.62 131.39 79.82C130.926 80.02 130.37 80.12 129.722 80.12C129.41 80.12 129.11 80.1 128.822 80.06C128.542 80.028 128.274 79.976 128.018 79.904C127.77 79.832 127.538 79.744 127.322 79.64V78.2C127.682 78.36 128.078 78.508 128.51 78.644C128.942 78.772 129.382 78.836 129.83 78.836C130.174 78.836 130.454 78.792 130.67 78.704C130.894 78.608 131.058 78.48 131.162 78.32C131.266 78.152 131.318 77.96 131.318 77.744C131.318 77.504 131.25 77.3 131.114 77.132C130.978 76.964 130.778 76.808 130.514 76.664C130.25 76.52 129.922 76.368 129.53 76.208C129.266 76.096 129.006 75.972 128.75 75.836C128.502 75.692 128.278 75.52 128.078 75.32C127.878 75.12 127.718 74.884 127.598 74.612C127.478 74.34 127.418 74.02 127.418 73.652C127.418 73.164 127.534 72.744 127.766 72.392C128.006 72.04 128.338 71.772 128.762 71.588C129.194 71.404 129.694 71.312 130.262 71.312C130.718 71.312 131.146 71.36 131.546 71.456C131.946 71.552 132.342 71.688 132.734 71.864L132.242 73.1C131.89 72.948 131.55 72.828 131.222 72.74C130.894 72.652 130.558 72.608 130.214 72.608C129.942 72.608 129.71 72.652 129.518 72.74C129.326 72.82 129.182 72.936 129.086 73.088C128.99 73.24 128.942 73.416 128.942 73.616C128.942 73.848 129.002 74.044 129.122 74.204C129.242 74.364 129.426 74.516 129.674 74.66C129.93 74.796 130.258 74.952 130.658 75.128C131.122 75.328 131.514 75.536 131.834 75.752C132.154 75.968 132.402 76.228 132.578 76.532C132.754 76.836 132.842 77.212 132.842 77.66ZM136.944 80.12C136.328 80.12 135.792 80.004 135.336 79.772C134.888 79.532 134.54 79.168 134.292 78.68C134.052 78.184 133.932 77.552 133.932 76.784C133.932 75.984 134.064 75.336 134.328 74.84C134.6 74.336 134.972 73.968 135.444 73.736C135.916 73.496 136.456 73.376 137.064 73.376C137.472 73.376 137.836 73.416 138.156 73.496C138.476 73.576 138.748 73.672 138.972 73.784L138.528 74.972C138.28 74.876 138.032 74.796 137.784 74.732C137.536 74.66 137.296 74.624 137.064 74.624C136.704 74.624 136.404 74.704 136.164 74.864C135.932 75.024 135.76 75.264 135.648 75.584C135.536 75.896 135.48 76.292 135.48 76.772C135.48 77.236 135.536 77.624 135.648 77.936C135.768 78.248 135.944 78.484 136.176 78.644C136.408 78.796 136.696 78.872 137.04 78.872C137.408 78.872 137.732 78.828 138.012 78.74C138.292 78.652 138.556 78.532 138.804 78.38V79.688C138.556 79.84 138.288 79.948 138 80.012C137.72 80.084 137.368 80.12 136.944 80.12ZM142.919 73.376C143.759 73.376 144.395 73.56 144.827 73.928C145.267 74.288 145.487 74.856 145.487 75.632V80H144.419L144.119 79.1H144.071C143.887 79.332 143.695 79.528 143.495 79.688C143.303 79.84 143.079 79.948 142.823 80.012C142.575 80.084 142.271 80.12 141.911 80.12C141.527 80.12 141.179 80.048 140.867 79.904C140.563 79.76 140.323 79.54 140.147 79.244C139.971 78.94 139.883 78.56 139.883 78.104C139.883 77.432 140.127 76.928 140.615 76.592C141.111 76.248 141.859 76.06 142.859 76.028L143.987 75.992V75.668C143.987 75.252 143.887 74.956 143.687 74.78C143.487 74.604 143.207 74.516 142.847 74.516C142.519 74.516 142.203 74.564 141.899 74.66C141.595 74.756 141.299 74.868 141.011 74.996L140.531 73.94C140.851 73.772 141.215 73.636 141.623 73.532C142.039 73.428 142.471 73.376 142.919 73.376ZM143.195 76.952C142.531 76.976 142.071 77.092 141.815 77.3C141.559 77.5 141.431 77.772 141.431 78.116C141.431 78.42 141.523 78.64 141.707 78.776C141.891 78.912 142.127 78.98 142.415 78.98C142.855 78.98 143.227 78.856 143.531 78.608C143.835 78.352 143.987 77.976 143.987 77.48V76.928L143.195 76.952ZM150.862 73.376C151.59 73.376 152.158 73.564 152.566 73.94C152.982 74.316 153.19 74.924 153.19 75.764V80H151.678V76.064C151.678 75.576 151.582 75.212 151.39 74.972C151.198 74.724 150.894 74.6 150.478 74.6C149.87 74.6 149.454 74.792 149.23 75.176C149.006 75.552 148.894 76.1 148.894 76.82V80H147.382V73.496H148.546L148.762 74.348H148.846C148.99 74.124 149.166 73.94 149.374 73.796C149.582 73.652 149.814 73.548 150.07 73.484C150.326 73.412 150.59 73.376 150.862 73.376Z" fill="#353231"/>
<path d="M55.6258 100.9C55.4658 100.9 55.3258 100.887 55.2058 100.86C55.0858 100.84 54.9792 100.81 54.8858 100.77V100.01C54.9925 100.037 55.1058 100.06 55.2258 100.08C55.3458 100.1 55.4725 100.11 55.6058 100.11C55.7725 100.11 55.9292 100.077 56.0758 100.01C56.2292 99.9433 56.3525 99.8267 56.4458 99.66C56.5392 99.4933 56.5858 99.26 56.5858 98.96V91.86H57.4858V98.89C57.4858 99.35 57.4092 99.7267 57.2558 100.02C57.1025 100.32 56.8858 100.54 56.6058 100.68C56.3258 100.827 55.9992 100.9 55.6258 100.9ZM61.4602 91.86C62.3935 91.86 63.0735 92.0433 63.5002 92.41C63.9269 92.7767 64.1402 93.2933 64.1402 93.96C64.1402 94.2533 64.0902 94.5367 63.9902 94.81C63.8969 95.0767 63.7402 95.3167 63.5202 95.53C63.3002 95.7433 63.0069 95.9133 62.6402 96.04C62.2735 96.16 61.8235 96.22 61.2902 96.22H60.4702V99H59.5702V91.86H61.4602ZM61.3802 92.63H60.4702V95.45H61.1902C61.6435 95.45 62.0202 95.4033 62.3202 95.31C62.6202 95.21 62.8435 95.0533 62.9902 94.84C63.1369 94.6267 63.2102 94.3467 63.2102 94C63.2102 93.54 63.0635 93.1967 62.7702 92.97C62.4769 92.7433 62.0135 92.63 61.3802 92.63ZM69.8149 99H65.8249V91.86H69.8149V92.65H66.7249V94.88H69.6349V95.66H66.7249V98.21H69.8149V99ZM74.6815 95.23H77.1515V98.73C76.7649 98.8567 76.3749 98.95 75.9815 99.01C75.5882 99.07 75.1415 99.1 74.6415 99.1C73.9015 99.1 73.2782 98.9533 72.7715 98.66C72.2649 98.36 71.8782 97.9367 71.6115 97.39C71.3515 96.8367 71.2215 96.1833 71.2215 95.43C71.2215 94.6833 71.3682 94.0367 71.6615 93.49C71.9549 92.9433 72.3749 92.52 72.9215 92.22C73.4749 91.9133 74.1415 91.76 74.9215 91.76C75.3215 91.76 75.6982 91.7967 76.0515 91.87C76.4115 91.9433 76.7449 92.0467 77.0515 92.18L76.7115 92.96C76.4582 92.8467 76.1715 92.75 75.8515 92.67C75.5382 92.59 75.2115 92.55 74.8715 92.55C74.3049 92.55 73.8182 92.6667 73.4115 92.9C73.0049 93.1333 72.6949 93.4667 72.4815 93.9C72.2682 94.3267 72.1615 94.8367 72.1615 95.43C72.1615 95.9967 72.2515 96.5 72.4315 96.94C72.6182 97.3733 72.9082 97.7133 73.3015 97.96C73.6949 98.2 74.2115 98.32 74.8515 98.32C75.0649 98.32 75.2515 98.3133 75.4115 98.3C75.5782 98.28 75.7282 98.2567 75.8615 98.23C76.0015 98.2033 76.1315 98.1767 76.2515 98.15V96.03H74.6815V95.23ZM80.0069 97.95C79.9469 98.1833 79.8702 98.4367 79.7769 98.71C79.6836 98.9833 79.5802 99.2533 79.4669 99.52C79.3602 99.7933 79.2536 100.05 79.1469 100.29H78.4969C78.5636 100.037 78.6269 99.7633 78.6869 99.47C78.7536 99.1833 78.8136 98.9 78.8669 98.62C78.9202 98.3333 78.9636 98.0733 78.9969 97.84H79.9369L80.0069 97.95ZM86.6204 91.86C87.5537 91.86 88.2337 92.0433 88.6604 92.41C89.087 92.7767 89.3004 93.2933 89.3004 93.96C89.3004 94.2533 89.2504 94.5367 89.1504 94.81C89.057 95.0767 88.9004 95.3167 88.6804 95.53C88.4604 95.7433 88.167 95.9133 87.8004 96.04C87.4337 96.16 86.9837 96.22 86.4504 96.22H85.6304V99H84.7304V91.86H86.6204ZM86.5404 92.63H85.6304V95.45H86.3504C86.8037 95.45 87.1804 95.4033 87.4804 95.31C87.7804 95.21 88.0037 95.0533 88.1504 94.84C88.297 94.6267 88.3704 94.3467 88.3704 94C88.3704 93.54 88.2237 93.1967 87.9304 92.97C87.637 92.7433 87.1737 92.63 86.5404 92.63ZM96.645 99H95.595L91.775 93.07H91.735C91.7417 93.19 91.7484 93.3233 91.755 93.47C91.7684 93.6167 91.7784 93.7767 91.785 93.95C91.7917 94.1167 91.7984 94.29 91.805 94.47C91.8117 94.65 91.815 94.83 91.815 95.01V99H90.985V91.86H92.025L95.835 97.77H95.875C95.8684 97.69 95.8617 97.58 95.855 97.44C95.8484 97.2933 95.8417 97.1333 95.835 96.96C95.8284 96.78 95.8217 96.5967 95.815 96.41C95.8084 96.2233 95.805 96.05 95.805 95.89V91.86H96.645V99ZM101.883 95.23H104.353V98.73C103.966 98.8567 103.576 98.95 103.183 99.01C102.789 99.07 102.343 99.1 101.843 99.1C101.103 99.1 100.479 98.9533 99.9727 98.66C99.466 98.36 99.0794 97.9367 98.8127 97.39C98.5527 96.8367 98.4227 96.1833 98.4227 95.43C98.4227 94.6833 98.5694 94.0367 98.8627 93.49C99.156 92.9433 99.576 92.52 100.123 92.22C100.676 91.9133 101.343 91.76 102.123 91.76C102.523 91.76 102.899 91.7967 103.253 91.87C103.613 91.9433 103.946 92.0467 104.253 92.18L103.913 92.96C103.659 92.8467 103.373 92.75 103.053 92.67C102.739 92.59 102.413 92.55 102.073 92.55C101.506 92.55 101.019 92.6667 100.613 92.9C100.206 93.1333 99.896 93.4667 99.6827 93.9C99.4694 94.3267 99.3627 94.8367 99.3627 95.43C99.3627 95.9967 99.4527 96.5 99.6327 96.94C99.8194 97.3733 100.109 97.7133 100.503 97.96C100.896 98.2 101.413 98.32 102.053 98.32C102.266 98.32 102.453 98.3133 102.613 98.3C102.779 98.28 102.929 98.2567 103.063 98.23C103.203 98.2033 103.333 98.1767 103.453 98.15V96.03H101.883V95.23ZM111.406 94.32H110.056V99H109.176V94.32H108.236V93.91L109.176 93.61V93.3C109.176 92.84 109.242 92.4667 109.376 92.18C109.516 91.8933 109.716 91.6833 109.976 91.55C110.236 91.4167 110.549 91.35 110.916 91.35C111.129 91.35 111.322 91.37 111.496 91.41C111.676 91.4433 111.829 91.4833 111.956 91.53L111.726 92.22C111.619 92.1867 111.496 92.1533 111.356 92.12C111.216 92.0867 111.072 92.07 110.926 92.07C110.632 92.07 110.412 92.17 110.266 92.37C110.126 92.5633 110.056 92.87 110.056 93.29V93.64H111.406V94.32ZM117.233 96.31C117.233 96.7567 117.173 97.1533 117.053 97.5C116.94 97.84 116.773 98.13 116.553 98.37C116.34 98.61 116.077 98.7933 115.763 98.92C115.457 99.04 115.113 99.1 114.733 99.1C114.38 99.1 114.053 99.04 113.753 98.92C113.453 98.7933 113.193 98.61 112.973 98.37C112.753 98.13 112.58 97.84 112.453 97.5C112.333 97.1533 112.273 96.7567 112.273 96.31C112.273 95.7167 112.373 95.2167 112.573 94.81C112.773 94.3967 113.06 94.0833 113.433 93.87C113.807 93.65 114.25 93.54 114.763 93.54C115.25 93.54 115.677 93.65 116.043 93.87C116.417 94.0833 116.707 94.3967 116.913 94.81C117.127 95.2167 117.233 95.7167 117.233 96.31ZM113.183 96.31C113.183 96.73 113.237 97.0967 113.343 97.41C113.457 97.7167 113.63 97.9533 113.863 98.12C114.097 98.2867 114.393 98.37 114.753 98.37C115.113 98.37 115.41 98.2867 115.643 98.12C115.877 97.9533 116.047 97.7167 116.153 97.41C116.267 97.0967 116.323 96.73 116.323 96.31C116.323 95.8833 116.267 95.52 116.153 95.22C116.04 94.92 115.867 94.69 115.633 94.53C115.407 94.3633 115.11 94.28 114.743 94.28C114.197 94.28 113.8 94.46 113.553 94.82C113.307 95.18 113.183 95.6767 113.183 96.31ZM121.328 93.54C121.428 93.54 121.535 93.5467 121.648 93.56C121.768 93.5667 121.871 93.58 121.958 93.6L121.848 94.41C121.761 94.39 121.665 94.3733 121.558 94.36C121.458 94.3467 121.361 94.34 121.268 94.34C121.061 94.34 120.865 94.3833 120.678 94.47C120.491 94.5567 120.325 94.68 120.178 94.84C120.031 94.9933 119.915 95.18 119.828 95.4C119.748 95.62 119.708 95.8667 119.708 96.14V99H118.828V93.64H119.548L119.648 94.62H119.688C119.801 94.42 119.938 94.24 120.098 94.08C120.258 93.9133 120.441 93.7833 120.648 93.69C120.855 93.59 121.081 93.54 121.328 93.54ZM129.039 93.54C129.645 93.54 130.099 93.6967 130.399 94.01C130.699 94.3167 130.849 94.8167 130.849 95.51V99H129.979V95.55C129.979 95.13 129.889 94.8133 129.709 94.6C129.535 94.3867 129.262 94.28 128.889 94.28C128.369 94.28 127.995 94.43 127.769 94.73C127.549 95.03 127.439 95.4667 127.439 96.04V99H126.569V95.55C126.569 95.27 126.529 95.0367 126.449 94.85C126.369 94.6567 126.249 94.5133 126.089 94.42C125.929 94.3267 125.722 94.28 125.469 94.28C125.109 94.28 124.825 94.3567 124.619 94.51C124.412 94.6567 124.262 94.8733 124.169 95.16C124.082 95.4467 124.039 95.8 124.039 96.22V99H123.159V93.64H123.869L123.999 94.37H124.049C124.162 94.1833 124.299 94.03 124.459 93.91C124.625 93.7833 124.809 93.69 125.009 93.63C125.209 93.57 125.415 93.54 125.629 93.54C126.042 93.54 126.385 93.6133 126.659 93.76C126.939 93.9067 127.142 94.1333 127.269 94.44H127.319C127.499 94.1333 127.742 93.9067 128.049 93.76C128.362 93.6133 128.692 93.54 129.039 93.54ZM134.734 93.55C135.388 93.55 135.871 93.6933 136.184 93.98C136.498 94.2667 136.654 94.7233 136.654 95.35V99H136.014L135.844 98.24H135.804C135.651 98.4333 135.491 98.5967 135.324 98.73C135.164 98.8567 134.978 98.95 134.764 99.01C134.558 99.07 134.304 99.1 134.004 99.1C133.684 99.1 133.394 99.0433 133.134 98.93C132.881 98.8167 132.681 98.6433 132.534 98.41C132.388 98.17 132.314 97.87 132.314 97.51C132.314 96.9767 132.524 96.5667 132.944 96.28C133.364 95.9867 134.011 95.8267 134.884 95.8L135.794 95.77V95.45C135.794 95.0033 135.698 94.6933 135.504 94.52C135.311 94.3467 135.038 94.26 134.684 94.26C134.404 94.26 134.138 94.3033 133.884 94.39C133.631 94.47 133.394 94.5633 133.174 94.67L132.904 94.01C133.138 93.8833 133.414 93.7767 133.734 93.69C134.054 93.5967 134.388 93.55 134.734 93.55ZM134.994 96.41C134.328 96.4367 133.864 96.5433 133.604 96.73C133.351 96.9167 133.224 97.18 133.224 97.52C133.224 97.82 133.314 98.04 133.494 98.18C133.681 98.32 133.918 98.39 134.204 98.39C134.658 98.39 135.034 98.2667 135.334 98.02C135.634 97.7667 135.784 97.38 135.784 96.86V96.38L134.994 96.41ZM140.3 98.38C140.433 98.38 140.57 98.37 140.71 98.35C140.85 98.3233 140.963 98.2967 141.05 98.27V98.94C140.957 98.9867 140.823 99.0233 140.65 99.05C140.477 99.0833 140.31 99.1 140.15 99.1C139.87 99.1 139.61 99.0533 139.37 98.96C139.137 98.86 138.947 98.69 138.8 98.45C138.653 98.21 138.58 97.8733 138.58 97.44V94.32H137.82V93.9L138.59 93.55L138.94 92.41H139.46V93.64H141.01V94.32H139.46V97.42C139.46 97.7467 139.537 97.99 139.69 98.15C139.85 98.3033 140.053 98.38 140.3 98.38ZM145.813 97.52C145.813 97.8667 145.727 98.1567 145.553 98.39C145.38 98.6233 145.133 98.8 144.813 98.92C144.493 99.04 144.113 99.1 143.673 99.1C143.3 99.1 142.977 99.07 142.703 99.01C142.437 98.95 142.2 98.8667 141.993 98.76V97.96C142.207 98.0667 142.463 98.1667 142.763 98.26C143.07 98.3467 143.38 98.39 143.693 98.39C144.14 98.39 144.463 98.32 144.663 98.18C144.863 98.0333 144.963 97.84 144.963 97.6C144.963 97.4667 144.927 97.3467 144.853 97.24C144.78 97.1333 144.647 97.0267 144.453 96.92C144.267 96.8133 143.997 96.6933 143.643 96.56C143.297 96.4267 143 96.2933 142.753 96.16C142.507 96.0267 142.317 95.8667 142.183 95.68C142.05 95.4933 141.983 95.2533 141.983 94.96C141.983 94.5067 142.167 94.1567 142.533 93.91C142.907 93.6633 143.393 93.54 143.993 93.54C144.32 93.54 144.623 93.5733 144.903 93.64C145.19 93.7 145.457 93.7867 145.703 93.9L145.403 94.6C145.257 94.5333 145.1 94.4767 144.933 94.43C144.773 94.3767 144.61 94.3367 144.443 94.31C144.277 94.2767 144.107 94.26 143.933 94.26C143.573 94.26 143.297 94.32 143.103 94.44C142.917 94.5533 142.823 94.71 142.823 94.91C142.823 95.0567 142.867 95.1833 142.953 95.29C143.04 95.39 143.183 95.49 143.383 95.59C143.59 95.6833 143.863 95.7967 144.203 95.93C144.543 96.0567 144.833 96.1867 145.073 96.32C145.313 96.4533 145.497 96.6167 145.623 96.81C145.75 96.9967 145.813 97.2333 145.813 97.52ZM148.378 97.95C148.318 98.1833 148.242 98.4367 148.148 98.71C148.055 98.9833 147.952 99.2533 147.838 99.52C147.732 99.7933 147.625 100.05 147.518 100.29H146.868C146.935 100.037 146.998 99.7633 147.058 99.47C147.125 99.1833 147.185 98.9 147.238 98.62C147.292 98.3333 147.335 98.0733 147.368 97.84H148.308L148.378 97.95ZM82.782 107.64V113H82.062L81.932 112.29H81.892C81.7786 112.477 81.632 112.63 81.452 112.75C81.272 112.87 81.0753 112.957 80.862 113.01C80.6486 113.07 80.4253 113.1 80.192 113.1C79.7653 113.1 79.4053 113.033 79.112 112.9C78.8253 112.76 78.6086 112.547 78.462 112.26C78.3153 111.973 78.242 111.603 78.242 111.15V107.64H79.132V111.09C79.132 111.517 79.2286 111.837 79.422 112.05C79.6153 112.263 79.9153 112.37 80.322 112.37C80.722 112.37 81.0353 112.297 81.262 112.15C81.4953 111.997 81.6586 111.777 81.752 111.49C81.852 111.197 81.902 110.843 81.902 110.43V107.64H82.782ZM87.2336 107.54C87.8936 107.54 88.4236 107.77 88.8236 108.23C89.2303 108.69 89.4336 109.383 89.4336 110.31C89.4336 110.917 89.3403 111.43 89.1536 111.85C88.9736 112.263 88.7169 112.577 88.3836 112.79C88.0569 112.997 87.6703 113.1 87.2236 113.1C86.9503 113.1 86.7069 113.063 86.4936 112.99C86.2803 112.917 86.0969 112.823 85.9436 112.71C85.7969 112.59 85.6703 112.46 85.5636 112.32H85.5036C85.5169 112.433 85.5303 112.577 85.5436 112.75C85.5569 112.923 85.5636 113.073 85.5636 113.2V115.4H84.6836V107.64H85.4036L85.5236 108.37H85.5636C85.6703 108.217 85.7969 108.077 85.9436 107.95C86.0969 107.823 86.2769 107.723 86.4836 107.65C86.6969 107.577 86.9469 107.54 87.2336 107.54ZM87.0736 108.28C86.7136 108.28 86.4236 108.35 86.2036 108.49C85.9836 108.623 85.8236 108.827 85.7236 109.1C85.6236 109.373 85.5703 109.72 85.5636 110.14V110.31C85.5636 110.75 85.6103 111.123 85.7036 111.43C85.7969 111.737 85.9536 111.97 86.1736 112.13C86.4003 112.29 86.7069 112.37 87.0936 112.37C87.4203 112.37 87.6869 112.28 87.8936 112.1C88.1069 111.92 88.2636 111.677 88.3636 111.37C88.4703 111.057 88.5236 110.7 88.5236 110.3C88.5236 109.687 88.4036 109.197 88.1636 108.83C87.9303 108.463 87.5669 108.28 87.0736 108.28ZM95.6236 112.38C95.7569 112.38 95.8936 112.37 96.0336 112.35C96.1736 112.323 96.2869 112.297 96.3736 112.27V112.94C96.2803 112.987 96.1469 113.023 95.9736 113.05C95.8003 113.083 95.6336 113.1 95.4736 113.1C95.1936 113.1 94.9336 113.053 94.6936 112.96C94.4603 112.86 94.2703 112.69 94.1236 112.45C93.9769 112.21 93.9036 111.873 93.9036 111.44V108.32H93.1436V107.9L93.9136 107.55L94.2636 106.41H94.7836V107.64H96.3336V108.32H94.7836V111.42C94.7836 111.747 94.8603 111.99 95.0136 112.15C95.1736 112.303 95.3769 112.38 95.6236 112.38ZM102.307 110.31C102.307 110.757 102.247 111.153 102.127 111.5C102.014 111.84 101.847 112.13 101.627 112.37C101.414 112.61 101.15 112.793 100.837 112.92C100.53 113.04 100.187 113.1 99.8069 113.1C99.4535 113.1 99.1269 113.04 98.8269 112.92C98.5269 112.793 98.2669 112.61 98.0469 112.37C97.8269 112.13 97.6535 111.84 97.5269 111.5C97.4069 111.153 97.3469 110.757 97.3469 110.31C97.3469 109.717 97.4469 109.217 97.6469 108.81C97.8469 108.397 98.1335 108.083 98.5069 107.87C98.8802 107.65 99.3235 107.54 99.8369 107.54C100.324 107.54 100.75 107.65 101.117 107.87C101.49 108.083 101.78 108.397 101.987 108.81C102.2 109.217 102.307 109.717 102.307 110.31ZM98.2569 110.31C98.2569 110.73 98.3102 111.097 98.4169 111.41C98.5302 111.717 98.7035 111.953 98.9369 112.12C99.1702 112.287 99.4669 112.37 99.8269 112.37C100.187 112.37 100.484 112.287 100.717 112.12C100.95 111.953 101.12 111.717 101.227 111.41C101.34 111.097 101.397 110.73 101.397 110.31C101.397 109.883 101.34 109.52 101.227 109.22C101.114 108.92 100.94 108.69 100.707 108.53C100.48 108.363 100.184 108.28 99.8169 108.28C99.2702 108.28 98.8735 108.46 98.6269 108.82C98.3802 109.18 98.2569 109.677 98.2569 110.31ZM108.599 108.62C109.086 108.62 109.509 108.703 109.869 108.87C110.229 109.037 110.506 109.277 110.699 109.59C110.899 109.897 110.999 110.273 110.999 110.72C110.999 111.213 110.893 111.64 110.679 112C110.466 112.353 110.159 112.627 109.759 112.82C109.366 113.007 108.889 113.1 108.329 113.1C107.963 113.1 107.616 113.067 107.289 113C106.969 112.933 106.699 112.837 106.479 112.71V111.88C106.719 112.027 107.009 112.143 107.349 112.23C107.696 112.31 108.026 112.35 108.339 112.35C108.693 112.35 108.999 112.297 109.259 112.19C109.526 112.077 109.733 111.907 109.879 111.68C110.026 111.447 110.099 111.157 110.099 110.81C110.099 110.343 109.956 109.987 109.669 109.74C109.383 109.487 108.929 109.36 108.309 109.36C108.123 109.36 107.909 109.377 107.669 109.41C107.429 109.443 107.236 109.477 107.089 109.51L106.649 109.23L106.919 105.86H110.499V106.66H107.669L107.499 108.73C107.613 108.71 107.766 108.687 107.959 108.66C108.153 108.633 108.366 108.62 108.599 108.62ZM115.892 113L113.542 106.74H113.502C113.515 106.873 113.525 107.043 113.532 107.25C113.545 107.457 113.555 107.683 113.562 107.93C113.569 108.17 113.572 108.417 113.572 108.67V113H112.742V105.86H114.072L116.272 111.71H116.312L118.552 105.86H119.872V113H118.982V108.61C118.982 108.377 118.985 108.147 118.992 107.92C118.999 107.687 119.009 107.47 119.022 107.27C119.035 107.063 119.045 106.89 119.052 106.75H119.012L116.632 113H115.892ZM124.054 105.86C124.647 105.86 125.144 105.917 125.544 106.03C125.951 106.143 126.254 106.33 126.454 106.59C126.661 106.85 126.764 107.197 126.764 107.63C126.764 107.91 126.711 108.16 126.604 108.38C126.504 108.593 126.351 108.773 126.144 108.92C125.944 109.06 125.697 109.157 125.404 109.21V109.26C125.704 109.307 125.974 109.393 126.214 109.52C126.461 109.647 126.654 109.827 126.794 110.06C126.934 110.293 127.004 110.597 127.004 110.97C127.004 111.403 126.904 111.773 126.704 112.08C126.504 112.38 126.217 112.61 125.844 112.77C125.477 112.923 125.037 113 124.524 113H122.014V105.86H124.054ZM124.234 108.9C124.847 108.9 125.267 108.803 125.494 108.61C125.721 108.41 125.834 108.117 125.834 107.73C125.834 107.337 125.694 107.057 125.414 106.89C125.141 106.717 124.701 106.63 124.094 106.63H122.914V108.9H124.234ZM122.914 109.65V112.24H124.354C124.987 112.24 125.427 112.117 125.674 111.87C125.921 111.623 126.044 111.3 126.044 110.9C126.044 110.647 125.987 110.427 125.874 110.24C125.767 110.053 125.584 109.91 125.324 109.81C125.071 109.703 124.724 109.65 124.284 109.65H122.914Z" fill="#A7A2A0"/>
<g filter="url(#filter0_d_40002500_6566)">
<path d="M16 36C16 25.676 16 20.514 18.7666 16.9827C19.4132 16.1573 20.1573 15.4132 20.9827 14.7666C24.514 12 29.676 12 40 12H81C81 22.324 81 27.486 78.2334 31.0173C77.5868 31.8427 76.8427 32.5868 76.0173 33.2334C72.486 36 67.324 36 57 36H16Z" fill="white"/>
<path d="M28.9111 20.574C29.4511 20.574 29.8981 20.628 30.2521 20.736C30.6061 20.838 30.8671 21.006 31.0351 21.24C31.2091 21.474 31.2961 21.789 31.2961 22.185C31.2961 22.431 31.2541 22.653 31.1701 22.851C31.0861 23.049 30.9661 23.211 30.8101 23.337C30.6601 23.463 30.4861 23.547 30.2881 23.589V23.634C30.4921 23.676 30.6841 23.754 30.8641 23.868C31.0441 23.976 31.1881 24.135 31.2961 24.345C31.4041 24.549 31.4581 24.819 31.4581 25.155C31.4581 25.545 31.3681 25.878 31.1881 26.154C31.0141 26.43 30.7621 26.64 30.4321 26.784C30.1021 26.928 29.7091 27 29.2531 27H27.0211V20.574H28.9111ZM29.0191 23.193C29.4091 23.193 29.6791 23.121 29.8291 22.977C29.9791 22.833 30.0541 22.62 30.0541 22.338C30.0541 22.05 29.9641 21.843 29.7841 21.717C29.6101 21.591 29.3311 21.528 28.9471 21.528H28.2271V23.193H29.0191ZM28.2271 24.12V26.037H29.1091C29.5171 26.037 29.7991 25.947 29.9551 25.767C30.1171 25.587 30.1981 25.347 30.1981 25.047C30.1981 24.855 30.1621 24.69 30.0901 24.552C30.0241 24.414 29.9101 24.309 29.7481 24.237C29.5861 24.159 29.3611 24.12 29.0731 24.12H28.2271ZM36.5521 27L36.0571 25.299H33.8611L33.3661 27H32.0701L34.2301 20.547H35.6791L37.8481 27H36.5521ZM35.2561 22.653C35.2321 22.557 35.1991 22.443 35.1571 22.311C35.1211 22.173 35.0851 22.032 35.0491 21.888C35.0191 21.744 34.9891 21.609 34.9591 21.483C34.9351 21.627 34.9051 21.771 34.8691 21.915C34.8331 22.053 34.7971 22.185 34.7611 22.311C34.7311 22.437 34.7011 22.551 34.6711 22.653L34.1671 24.309H35.7691L35.2561 22.653ZM41.2145 21.456C40.9625 21.456 40.7345 21.51 40.5305 21.618C40.3265 21.726 40.1525 21.882 40.0085 22.086C39.8705 22.29 39.7655 22.536 39.6935 22.824C39.6215 23.112 39.5855 23.436 39.5855 23.796C39.5855 24.282 39.6455 24.699 39.7655 25.047C39.8855 25.389 40.0685 25.653 40.3145 25.839C40.5605 26.025 40.8695 26.118 41.2415 26.118C41.4995 26.118 41.7515 26.091 41.9975 26.037C42.2435 25.977 42.4925 25.899 42.7445 25.803V26.784C42.4985 26.892 42.2435 26.97 41.9795 27.018C41.7215 27.066 41.4305 27.09 41.1065 27.09C40.4765 27.09 39.9575 26.955 39.5495 26.685C39.1415 26.409 38.8355 26.025 38.6315 25.533C38.4335 25.035 38.3345 24.453 38.3345 23.787C38.3345 23.301 38.3975 22.857 38.5235 22.455C38.6495 22.053 38.8355 21.705 39.0815 21.411C39.3275 21.117 39.6305 20.889 39.9905 20.727C40.3505 20.565 40.7615 20.484 41.2235 20.484C41.5295 20.484 41.8385 20.523 42.1505 20.601C42.4685 20.673 42.7475 20.775 42.9875 20.907L42.5825 21.852C42.3725 21.75 42.1535 21.66 41.9255 21.582C41.7035 21.498 41.4665 21.456 41.2145 21.456ZM48.978 27H47.601L45.945 24.156L45.396 24.633V27H44.19V20.574H45.396V23.598C45.504 23.448 45.615 23.295 45.729 23.139C45.849 22.983 45.969 22.827 46.089 22.671L47.601 20.574H48.951L46.818 23.4L48.978 27ZM55.9201 25.245C55.9201 25.623 55.8331 25.95 55.6591 26.226C55.4911 26.502 55.2391 26.715 54.9031 26.865C54.5731 27.015 54.1651 27.09 53.6791 27.09C53.4391 27.09 53.2171 27.075 53.0131 27.045C52.8091 27.021 52.6171 26.982 52.4371 26.928C52.2631 26.874 52.0951 26.808 51.9331 26.73V25.65C52.2031 25.77 52.4941 25.881 52.8061 25.983C53.1241 26.079 53.4331 26.127 53.7331 26.127C53.9611 26.127 54.1471 26.094 54.2911 26.028C54.4351 25.956 54.5401 25.86 54.6061 25.74C54.6781 25.614 54.7141 25.47 54.7141 25.308C54.7141 25.128 54.6691 24.975 54.5791 24.849C54.4951 24.723 54.3631 24.606 54.1831 24.498C54.0031 24.39 53.7691 24.279 53.4811 24.165C53.2771 24.075 53.0821 23.979 52.8961 23.877C52.7161 23.769 52.5571 23.64 52.4191 23.49C52.2871 23.34 52.1821 23.163 52.1041 22.959C52.0321 22.755 51.9961 22.515 51.9961 22.239C51.9961 21.873 52.0831 21.558 52.2571 21.294C52.4311 21.03 52.6741 20.829 52.9861 20.691C53.2981 20.553 53.6611 20.484 54.0751 20.484C54.4231 20.484 54.7411 20.52 55.0291 20.592C55.3231 20.664 55.5991 20.766 55.8571 20.898L55.4791 21.825C55.2331 21.711 54.9901 21.621 54.7501 21.555C54.5161 21.489 54.2791 21.456 54.0391 21.456C53.8531 21.456 53.6971 21.489 53.5711 21.555C53.4451 21.615 53.3491 21.702 53.2831 21.816C53.2231 21.93 53.1931 22.062 53.1931 22.212C53.1931 22.386 53.2351 22.533 53.3191 22.653C53.4031 22.773 53.5351 22.887 53.7151 22.995C53.8951 23.097 54.1291 23.217 54.4171 23.355C54.7351 23.499 55.0051 23.652 55.2271 23.814C55.4551 23.976 55.6261 24.171 55.7401 24.399C55.8601 24.627 55.9201 24.909 55.9201 25.245ZM59.4069 27H56.7339V26.343L57.4719 26.055V21.528L56.7339 21.231V20.574H59.4069V21.231L58.6779 21.528V26.055L59.4069 26.343V27ZM65.6282 23.724C65.6282 24.444 65.4992 25.047 65.2412 25.533C64.9892 26.019 64.6232 26.385 64.1432 26.631C63.6632 26.877 63.0872 27 62.4152 27H60.6512V20.574H62.5952C63.2192 20.574 63.7592 20.694 64.2152 20.934C64.6712 21.174 65.0192 21.528 65.2592 21.996C65.5052 22.458 65.6282 23.034 65.6282 23.724ZM64.3682 23.76C64.3682 23.25 64.2992 22.83 64.1612 22.5C64.0292 22.17 63.8282 21.927 63.5582 21.771C63.2942 21.609 62.9672 21.528 62.5772 21.528H61.8572V26.037H62.4422C63.0902 26.037 63.5732 25.848 63.8912 25.47C64.2092 25.086 64.3682 24.516 64.3682 23.76ZM70.5189 27H67.0539V20.574H70.5189V21.537H68.2599V23.175H70.3749V24.138H68.2599V26.028H70.5189V27Z" fill="#0A9B0C"/>
</g>
<defs>
<filter id="filter0_d_40002500_6566" x="0" y="0" width="97" height="56" filterUnits="userSpaceOnUse" color-interpolation-filters="sRGB">
<feFlood flood-opacity="0" result="BackgroundImageFix"/>
<feColorMatrix in="SourceAlpha" type="matrix" values="0 0 0 0 0 0 0 0 0 0 0 0 0 0 0 0 0 0 127 0" result="hardAlpha"/>
<feOffset dy="4"/>
<feGaussianBlur stdDeviation="8"/>
<feComposite in2="hardAlpha" operator="out"/>
<feColorMatrix type="matrix" values="0 0 0 0 0 0 0 0 0 0 0 0 0 0 0 0 0 0 0.08 0"/>
<feBlend mode="normal" in2="BackgroundImageFix" result="effect1_dropShadow_40002500_6566"/>
<feBlend mode="normal" in="SourceGraphic" in2="effect1_dropShadow_40002500_6566" result="shape"/>
</filter>
</defs>
</svg>
