<svg width="393" height="133" viewBox="0 0 393 133" fill="none" xmlns="http://www.w3.org/2000/svg">
<g filter="url(#filter0_d_40000997_2342)">
<path d="M196 21C210.825 21 223.651 29.5509 229.819 41.9896C233.141 48.6904 239.155 54.5361 246.635 54.5361H386.712C390.185 54.5361 393 57.3515 393 60.8242V105.888C393 120.936 380.801 133.136 365.752 133.136H27.248C12.1994 133.136 0 120.936 0 105.888V60.8242C0 57.3515 2.81532 54.5361 6.28809 54.5361H145.365C152.845 54.5361 158.859 48.6904 162.181 41.9896C168.349 29.5509 181.175 21 196 21Z" fill="white"/>
</g>
<defs>
<filter id="filter0_d_40000997_2342" x="-20.96" y="0.0400009" width="434.92" height="154.057" filterUnits="userSpaceOnUse" color-interpolation-filters="sRGB">
<feFlood flood-opacity="0" result="BackgroundImageFix"/>
<feColorMatrix in="SourceAlpha" type="matrix" values="0 0 0 0 0 0 0 0 0 0 0 0 0 0 0 0 0 0 127 0" result="hardAlpha"/>
<feOffset/>
<feGaussianBlur stdDeviation="10.48"/>
<feComposite in2="hardAlpha" operator="out"/>
<feColorMatrix type="matrix" values="0 0 0 0 0.106667 0 0 0 0 0.152381 0 0 0 0 0.213333 0 0 0 0.16 0"/>
<feBlend mode="normal" in2="BackgroundImageFix" result="effect1_dropShadow_40000997_2342"/>
<feBlend mode="normal" in="SourceGraphic" in2="effect1_dropShadow_40000997_2342" result="shape"/>
</filter>
</defs>
</svg>
