<svg width="24" height="24" viewBox="0 0 24 24" fill="none" xmlns="http://www.w3.org/2000/svg">
<path d="M14.001 22.5001H9.99905C8.05505 22.5001 6.64805 22.5001 5.51105 22.3471C4.20605 22.1731 3.32105 21.7891 2.64005 21.1081C1.95905 20.4271 1.57805 19.5421 1.40105 18.2371C1.24805 17.0971 1.24805 15.6931 1.24805 13.7491V11.7481C1.24805 9.80407 1.24805 8.39707 1.40105 7.26007C1.57505 5.95507 1.95905 5.07007 2.64005 4.38907C3.32105 3.70807 4.20605 3.32707 5.51105 3.15007C6.65105 2.99707 8.05505 2.99707 9.99905 2.99707H13.998C15.942 2.99707 17.349 2.99707 18.486 3.15007C19.791 3.32407 20.676 3.70807 21.357 4.38907C22.038 5.07007 22.419 5.95507 22.596 7.26007C22.749 8.40007 22.749 9.80407 22.749 11.7481V13.7491C22.749 15.6931 22.749 17.1001 22.596 18.2371C22.422 19.5421 22.038 20.4271 21.357 21.1081C20.676 21.7891 19.791 22.1701 18.486 22.3471C17.349 22.5001 15.945 22.5001 14.001 22.5001ZM9.99905 4.50007C6.43805 4.50007 4.65305 4.50007 3.70205 5.45107C2.75105 6.40507 2.75105 8.19007 2.75105 11.7511V13.7521C2.75105 17.3131 2.75105 19.0981 3.70205 20.0491C4.65305 21.0001 6.44105 21.0001 9.99905 21.0001H13.998C17.559 21.0001 19.344 21.0001 20.295 20.0491C21.246 19.0981 21.246 17.3101 21.246 13.7521V11.7511C21.246 8.19007 21.246 6.40507 20.295 5.45407C19.347 4.50007 17.559 4.50007 14.001 4.50007H9.99905Z" fill="#353231"/>
<path d="M6.99902 4.5C6.58502 4.5 6.24902 4.164 6.24902 3.75V2.25C6.24902 1.836 6.58502 1.5 6.99902 1.5C7.41302 1.5 7.74902 1.836 7.74902 2.25V3.75C7.74902 4.164 7.41302 4.5 6.99902 4.5Z" fill="#353231"/>
<path d="M17.001 4.5C16.587 4.5 16.251 4.164 16.251 3.75V2.25C16.251 1.836 16.587 1.5 17.001 1.5C17.415 1.5 17.751 1.836 17.751 2.25V3.75C17.751 4.164 17.415 4.5 17.001 4.5Z" fill="#353231"/>
<path d="M21.501 9.50098H2.49902C2.08502 9.50098 1.74902 9.16498 1.74902 8.75098C1.74902 8.33698 2.08502 8.00098 2.49902 8.00098H21.498C21.912 8.00098 22.248 8.33698 22.248 8.75098C22.248 9.16498 21.915 9.50098 21.501 9.50098Z" fill="#353231"/>
<path d="M18 16.749C18 17.301 17.553 17.748 17.001 17.748C16.449 17.748 16.002 17.301 16.002 16.749C16.002 16.197 16.449 15.75 17.001 15.75C17.553 15.75 18 16.197 18 16.749Z" fill="#353231"/>
<path d="M18 12.75C18 13.302 17.553 13.749 17.001 13.749C16.449 13.749 16.002 13.302 16.002 12.75C16.002 12.198 16.449 11.751 17.001 11.751C17.553 11.751 18 12.198 18 12.75Z" fill="#353231"/>
<path d="M12.999 16.749C12.999 17.301 12.552 17.748 12 17.748C11.448 17.748 11.001 17.301 11.001 16.749C11.001 16.197 11.448 15.75 12 15.75C12.552 15.75 12.999 16.197 12.999 16.749Z" fill="#353231"/>
<path d="M12.999 12.75C12.999 13.302 12.552 13.749 12 13.749C11.448 13.749 11.001 13.302 11.001 12.75C11.001 12.198 11.448 11.751 12 11.751C12.552 11.751 12.999 12.198 12.999 12.75Z" fill="#353231"/>
<path d="M8.001 16.749C8.001 17.301 7.554 17.748 7.002 17.748C6.45 17.748 6 17.301 6 16.749C6 16.197 6.447 15.75 6.999 15.75C7.551 15.75 8.001 16.197 8.001 16.749Z" fill="#353231"/>
<path d="M8.001 12.75C8.001 13.302 7.554 13.749 7.002 13.749C6.45 13.749 6 13.302 6 12.75C6 12.198 6.447 11.751 6.999 11.751C7.551 11.751 8.001 12.198 8.001 12.75Z" fill="#353231"/>
</svg>
