<svg width="24" height="25" viewBox="0 0 24 25" fill="none" xmlns="http://www.w3.org/2000/svg">
<path d="M19.2087 14.0227L22.0352 7.5708H23V6.28174H6.12407L4.68642 3H1V4.28906H3.8438L8.10793 14.0226H8.85232L7.71739 18.7821C7.57559 19.3766 7.71155 19.9928 8.09032 20.4725C8.46909 20.9523 9.03692 21.2274 9.64815 21.2274C10.3248 21.2274 10.948 20.8881 11.3153 20.3197L15.3841 14.0226H17.2103L17.9609 15.5976C17.2107 16.1714 16.7257 17.075 16.7257 18.0902C16.7257 19.82 18.133 21.2274 19.8629 21.2274C21.5927 21.2274 23 19.8201 23 18.0902C23 16.3604 21.5926 14.953 19.8628 14.953C19.6083 14.953 19.361 14.9843 19.1239 15.0418L18.6382 14.0227H19.2087ZM19.8628 16.2421C20.8819 16.2421 21.7109 17.0712 21.7109 18.0902C21.7109 19.1093 20.8819 19.9384 19.8628 19.9384C18.8438 19.9384 18.0147 19.1093 18.0147 18.0902C18.0147 17.5912 18.2138 17.1381 18.5364 16.8053C18.5364 16.8053 19 16.2421 19.8628 16.2421ZM6.6888 7.57076H20.6279L18.3662 12.7336H8.95055L6.6888 7.57076ZM10.2326 19.6201C10.1038 19.8194 9.88534 19.9383 9.64811 19.9383C9.43382 19.9383 9.23479 19.8419 9.10197 19.6737C8.9692 19.5055 8.92155 19.2895 8.97126 19.0811L10.1775 14.0226H13.8494L10.2326 19.6201Z" fill="#FC8019"/>
</svg>
