<svg width="20" height="21" viewBox="0 0 20 21" fill="none" xmlns="http://www.w3.org/2000/svg">
<path d="M12.7513 14.416L13.918 13.2493L10.8346 10.166V6.33268H9.16797V10.8327L12.7513 14.416ZM10.0013 18.8327C8.84852 18.8327 7.76519 18.6139 6.7513 18.1764C5.73741 17.7389 4.85547 17.1452 4.10547 16.3952C3.35547 15.6452 2.76172 14.7632 2.32422 13.7493C1.88672 12.7355 1.66797 11.6521 1.66797 10.4993C1.66797 9.34657 1.88672 8.26324 2.32422 7.24935C2.76172 6.23546 3.35547 5.35352 4.10547 4.60352C4.85547 3.85352 5.73741 3.25977 6.7513 2.82227C7.76519 2.38477 8.84852 2.16602 10.0013 2.16602C11.1541 2.16602 12.2374 2.38477 13.2513 2.82227C14.2652 3.25977 15.1471 3.85352 15.8971 4.60352C16.6471 5.35352 17.2409 6.23546 17.6784 7.24935C18.1159 8.26324 18.3346 9.34657 18.3346 10.4993C18.3346 11.6521 18.1159 12.7355 17.6784 13.7493C17.2409 14.7632 16.6471 15.6452 15.8971 16.3952C15.1471 17.1452 14.2652 17.7389 13.2513 18.1764C12.2374 18.6139 11.1541 18.8327 10.0013 18.8327ZM10.0013 17.166C11.8485 17.166 13.4214 16.5167 14.7201 15.2181C16.0187 13.9195 16.668 12.3466 16.668 10.4993C16.668 8.65213 16.0187 7.07921 14.7201 5.7806C13.4214 4.48199 11.8485 3.83268 10.0013 3.83268C8.15408 3.83268 6.58116 4.48199 5.28255 5.7806C3.98394 7.07921 3.33464 8.65213 3.33464 10.4993C3.33464 12.3466 3.98394 13.9195 5.28255 15.2181C6.58116 16.5167 8.15408 17.166 10.0013 17.166Z" fill="#0A9B0C"/>
</svg>
