<svg width="24" height="24" viewBox="0 0 24 24" fill="none" xmlns="http://www.w3.org/2000/svg">
<path d="M12 1.90039C17.5692 1.90039 22.0996 6.43071 22.0996 12C22.0996 17.5693 17.5692 22.0996 12 22.0996C6.43085 22.0995 1.90042 17.5692 1.90039 12C1.90039 6.43081 6.43083 1.90048 12 1.90039ZM12 2.74414C6.89622 2.74423 2.74414 6.89647 2.74414 12C2.74419 17.1035 6.8963 21.2558 12 21.2559C17.1036 21.2559 21.2558 17.1035 21.2559 12C21.2559 6.89641 17.1036 2.74414 12 2.74414Z" fill="#FC8019" stroke="#FC8019" stroke-width="0.2"/>
<path d="M12.0005 5.4082C15.6352 5.40824 18.5923 8.36518 18.5923 12C18.5922 15.6347 15.6351 18.5918 12.0005 18.5918C8.36554 18.5918 5.4088 15.6347 5.40869 12C5.40869 8.36516 8.36551 5.4082 12.0005 5.4082ZM12.0005 6.25195C8.83117 6.25195 6.25244 8.83069 6.25244 12C6.25255 15.1692 8.83124 17.748 12.0005 17.748C15.1697 17.748 17.7484 15.1692 17.7485 12C17.7485 8.83071 15.1698 6.25199 12.0005 6.25195Z" fill="#FC8019" stroke="#FC8019" stroke-width="0.2"/>
<path d="M12 8.34961C14.0127 8.34961 15.6504 9.98721 15.6504 12C15.6504 14.0127 14.0127 15.6504 12 15.6504C9.98717 15.6503 8.34961 14.0127 8.34961 12C8.34963 9.98724 9.98718 8.34966 12 8.34961ZM12 9.07715C10.3886 9.0772 9.07716 10.3887 9.07715 12C9.07715 13.6113 10.3886 14.9228 12 14.9229C13.6113 14.9229 14.9229 13.6114 14.9229 12C14.9228 10.3886 13.6112 9.07715 12 9.07715Z" fill="#FC8019" stroke="#FC8019" stroke-width="0.3"/>
<path d="M15.0303 2.41602C15.231 2.37912 15.4247 2.4931 15.4971 2.67578L15.5205 2.75781L15.5264 2.84277C15.521 3.0391 15.3789 3.21158 15.1777 3.24707C12.7499 3.67541 12.43 5.80169 12.418 5.8877C12.3887 6.09855 12.2076 6.25195 12 6.25195C11.9815 6.25195 11.9627 6.25069 11.9434 6.24805C11.7132 6.21693 11.5509 6.00602 11.5811 5.77539L11.6064 5.64062C11.6589 5.39758 11.8067 4.85858 12.167 4.28418C12.6493 3.5153 13.5126 2.68507 15.0303 2.41699V2.41602Z" fill="#FC8019" stroke="#FC8019" stroke-width="0.2"/>
<path d="M17.0879 6.19629C17.9516 5.91715 19.1477 5.83542 20.4834 6.60645C20.6851 6.72278 20.7547 6.98086 20.6387 7.18262H20.6377C20.5211 7.38415 20.2639 7.45462 20.0615 7.33789C18.1933 6.25967 16.7253 7.21351 16.3447 7.50781L16.25 7.58594C16.1691 7.65893 16.0678 7.69526 15.9668 7.69531C15.8524 7.69531 15.7375 7.64926 15.6543 7.55762C15.4981 7.38606 15.5094 7.12016 15.6807 6.96289C15.6978 6.94695 16.228 6.47423 17.0879 6.19629Z" fill="#FC8019" stroke="#FC8019" stroke-width="0.2"/>
<path d="M18.0977 10.5068C18.1205 10.5069 18.1533 10.5072 18.1943 10.5088C18.2764 10.512 18.3932 10.5196 18.5352 10.5381C18.819 10.575 19.2063 10.6541 19.626 10.8242C20.4678 11.1654 21.438 11.872 21.9658 13.3213C22.0353 13.5127 21.9578 13.7215 21.791 13.8242L21.7139 13.8613C21.6661 13.8788 21.6173 13.8877 21.5693 13.8877C21.397 13.8877 21.2355 13.7805 21.1729 13.6094C20.7496 12.4473 20.0001 11.8841 19.3477 11.6094C18.8558 11.4023 18.4174 11.3584 18.2139 11.3506H18.0918C17.8483 11.3563 17.6648 11.1767 17.6553 10.9453C17.6461 10.7131 17.8261 10.5171 18.0586 10.5068H18.0977Z" fill="#FC8019" stroke="#FC8019" stroke-width="0.2"/>
<path d="M17.0103 14.8281C17.1522 14.6445 17.4149 14.6092 17.6001 14.751H17.6011C17.6234 14.7683 18.1779 15.2077 18.5991 16.0029C19.024 16.8052 19.3117 17.9692 18.7847 19.418C18.7222 19.5894 18.5605 19.6963 18.3882 19.6963C18.3404 19.6963 18.2919 19.6879 18.2446 19.6709H18.2437C18.0251 19.5911 17.912 19.3488 17.9917 19.1299C18.8346 16.813 17.1537 15.4719 17.0854 15.4189C16.9024 15.2764 16.8677 15.0123 17.0103 14.8281Z" fill="#FC8019" stroke="#FC8019" stroke-width="0.2"/>
<path d="M14.0205 17.3857C14.2487 17.336 14.4723 17.4791 14.5225 17.7061L14.5449 17.8408C14.5787 18.0869 14.6244 18.6438 14.4824 19.3066C14.2921 20.1943 13.7648 21.2719 12.4297 22.043C12.3634 22.0814 12.2903 22.0996 12.2188 22.0996C12.0734 22.0996 11.9318 22.0238 11.8535 21.8887C11.7367 21.6868 11.8061 21.428 12.0078 21.3115C14.1424 20.0785 13.7165 17.9711 13.6982 17.8867C13.6495 17.6596 13.7929 17.4353 14.0205 17.3857Z" fill="#FC8019" stroke="#FC8019" stroke-width="0.2"/>
<path d="M9.51562 17.6006C9.62412 17.3947 9.88054 17.3155 10.0859 17.4238L10.085 17.4248C10.2651 17.5194 10.349 17.7247 10.2949 17.9131L10.2637 17.9922C10.2494 18.0194 9.16341 20.0448 6.71191 20.0449C6.44783 20.0449 6.16815 20.0208 5.87305 19.9688C5.64358 19.9284 5.49018 19.7098 5.53027 19.4805C5.5707 19.2515 5.7896 19.0961 6.01953 19.1377L6.24316 19.1709C8.5097 19.4482 9.47549 17.6763 9.51562 17.6006Z" fill="#FC8019" stroke="#FC8019" stroke-width="0.2"/>
<path d="M2.30615 13.5234C2.47901 13.4299 2.69979 13.4681 2.83057 13.624C4.40331 15.497 6.42521 14.7217 6.49463 14.6943C6.70897 14.6044 6.95703 14.7075 7.04639 14.9229C7.13537 15.1381 7.03357 15.3856 6.81787 15.4746L6.81689 15.4736C6.76887 15.4933 6.19248 15.7158 5.39209 15.7158C4.4642 15.7158 3.23395 15.4177 2.18408 14.167C2.03406 13.9885 2.05753 13.7221 2.23584 13.5723L2.30615 13.5234Z" fill="#FC8019" stroke="#FC8019" stroke-width="0.2"/>
<path d="M3.50977 6.92773C3.74274 6.92788 3.93164 7.1166 3.93164 7.34961C3.93201 9.81474 5.97041 10.4998 6.05273 10.5264C6.27346 10.5977 6.39648 10.8342 6.32617 11.0557H6.3252C6.26787 11.2349 6.10264 11.3496 5.92383 11.3496C5.8814 11.3496 5.8386 11.3432 5.79688 11.3301C5.76987 11.3215 5.0985 11.0983 4.43066 10.4951C3.75698 9.8865 3.08808 8.8913 3.08789 7.34961C3.08789 7.11657 3.27666 6.92773 3.50977 6.92773Z" fill="#FC8019" stroke="#FC8019" stroke-width="0.2"/>
<path d="M8.16113 2.70898C8.31098 2.53069 8.57676 2.50685 8.75586 2.65723C8.93426 2.80693 8.95738 3.07341 8.80762 3.25195C7.22657 5.13698 8.34059 6.96802 8.39062 7.04785C8.5141 7.24455 8.45622 7.50554 8.25977 7.62988H8.25879C8.18908 7.67378 8.11125 7.69524 8.03418 7.69531C7.89523 7.69531 7.75821 7.62616 7.67773 7.5C7.66485 7.47962 7.2921 6.87562 7.16797 5.98145C7.04322 5.08223 7.17049 3.88998 8.16113 2.70898Z" fill="#FC8019" stroke="#FC8019" stroke-width="0.2"/>
</svg>
