<svg width="321" height="170" viewBox="0 0 321 170" fill="none" xmlns="http://www.w3.org/2000/svg">
<g clip-path="url(#clip0_40004858_3818)">
<path d="M15.585 170.001C6.00463 167.535 -0.190276 157.241 0.00420631 147.365C0.422767 126.114 21.1743 114.18 37.291 104.838C41.0157 102.679 44.917 100.288 46.8492 96.446C46.8502 96.4439 46.8513 96.4418 46.8534 96.4375C52.5399 85.1084 41.9459 68.9896 40.7631 57.231C39.0709 40.4104 43.172 20.9379 57.5478 10.4783C83.6973 -8.5467 107.851 13.9807 130.421 26.2806C151.612 37.8292 169.672 29.8568 190.2 21.8211C208.271 14.7468 229.339 11.5536 248.525 15.4538C258.937 17.5706 269.016 22.2443 276.411 29.8642C286.89 40.6636 291.089 56.5788 289.896 71.3174C288.9 83.6406 281.837 94.135 279.272 106.032C276.068 120.891 282.434 126.448 294.326 134.173C306.098 141.82 316.392 156.364 310.579 169.127L15.585 170.002V170.001Z" fill="#F4F7FD"/>
<path d="M180.417 42.1481C170.532 42.1481 161.238 45.9913 154.247 52.9707C147.256 59.9501 143.407 69.2289 143.407 79.0986C143.407 88.9683 147.256 98.247 154.247 105.226C161.238 112.206 170.532 116.049 180.417 116.049C190.303 116.049 199.597 112.206 206.588 105.226C213.579 98.247 217.428 88.9683 217.428 79.0986C217.428 69.2289 213.579 59.9501 206.588 52.9707C199.597 45.9913 190.303 42.1481 180.417 42.1481ZM180.417 116.437C175.368 116.437 170.47 115.45 165.86 113.503C161.406 111.622 157.406 108.929 153.972 105.501C150.538 102.072 147.841 98.0782 145.957 93.6325C144.007 89.0295 143.018 84.1384 143.018 79.0986C143.018 74.0587 144.007 69.1677 145.957 64.5647C147.841 60.1179 150.538 56.1248 153.972 52.6963C157.407 49.2668 161.407 46.5748 165.86 44.6944C170.471 42.7475 175.369 41.7598 180.417 41.7598C185.466 41.7598 190.365 42.7475 194.975 44.6944C199.429 46.5748 203.429 49.2678 206.863 52.6963C210.298 56.1259 212.994 60.1189 214.878 64.5647C216.828 69.1687 217.817 74.0587 217.817 79.0986C217.817 84.1384 216.828 89.0295 214.878 93.6325C212.994 98.0793 210.297 102.072 206.863 105.501C203.429 108.929 199.428 111.622 194.975 113.503C190.364 115.45 185.466 116.437 180.417 116.437Z" fill="#CCE6FF"/>
<path d="M145.128 43.868C140.522 48.4657 136.92 53.8148 134.427 59.7041C131.843 65.8045 130.512 72.3502 130.512 79.0984C130.512 85.8467 131.843 92.3935 134.427 98.4939C136.92 104.383 140.523 109.731 145.128 114.33C149.735 118.928 155.091 122.525 160.99 125.014C167.101 127.593 173.656 128.923 180.416 128.923C187.177 128.923 193.733 127.593 199.842 125.014C205.741 122.525 211.098 118.928 215.704 114.33C220.311 109.731 223.913 104.383 226.406 98.4939C228.99 92.3935 230.321 85.8489 230.321 79.0984C230.321 72.348 228.99 65.8034 226.406 59.7041C223.913 53.8148 220.31 48.4668 215.704 43.868C211.099 39.2693 205.741 35.673 199.842 33.1837C193.732 30.6047 187.177 29.275 180.416 29.275C173.656 29.275 167.1 30.6047 160.99 33.1837C155.091 35.673 149.735 39.2703 145.128 43.868ZM180.417 129.312C173.627 129.312 167.042 127.985 160.84 125.367C154.851 122.837 149.473 119.217 144.854 114.605C140.235 109.994 136.608 104.624 134.075 98.6448C131.452 92.4547 130.123 85.8784 130.123 79.0995C130.123 72.3206 131.452 65.7454 134.075 59.5543C136.608 53.5752 140.235 48.2051 144.854 43.5937C149.473 38.9822 154.851 35.3617 160.84 32.8323C167.042 30.2142 173.627 28.8867 180.417 28.8867C187.207 28.8867 193.793 30.2142 199.995 32.8323C205.983 35.3617 211.362 38.9822 215.981 43.5937C220.6 48.2051 224.227 53.5752 226.76 59.5543C229.383 65.7454 230.712 72.3206 230.712 79.0995C230.712 85.8784 229.383 92.4536 226.76 98.6448C224.227 104.624 220.6 109.994 215.981 114.605C211.362 119.217 205.983 122.837 199.995 125.367C193.793 127.985 187.207 129.312 180.417 129.312Z" fill="#CCE6FF"/>
<path d="M136.011 34.7654C130.232 40.5344 125.702 47.25 122.549 54.6937C119.284 62.4022 117.617 70.6226 117.617 79.0983C117.617 87.5741 119.284 95.7955 122.549 103.503C125.702 110.947 130.232 117.662 136.011 123.431C141.789 129.2 148.516 133.723 155.972 136.871C163.693 140.131 171.927 141.795 180.416 141.795C188.906 141.795 197.141 140.131 204.861 136.871C212.317 133.723 219.043 129.2 224.822 123.431C230.6 117.662 235.13 110.947 238.283 103.503C241.548 95.7944 243.215 87.5741 243.215 79.0983C243.215 70.6226 241.548 62.4012 238.283 54.6937C235.13 47.25 230.6 40.5344 224.822 34.7654C219.043 28.9964 212.317 24.4736 204.861 21.3258C197.14 18.0661 188.906 16.402 180.416 16.402C171.927 16.402 163.692 18.0661 155.972 21.3258C148.516 24.4736 141.789 28.9964 136.011 34.7654ZM180.417 142.185C171.887 142.185 163.612 140.517 155.822 137.228C148.297 134.05 141.54 129.501 135.736 123.708C129.933 117.914 125.377 111.167 122.194 103.655C118.9 95.8767 117.229 87.6152 117.229 79.0994C117.229 70.5836 118.9 62.321 122.194 54.5438C125.377 47.0315 129.933 40.2854 135.736 34.491C141.539 28.6977 148.297 24.1486 155.822 20.9712C163.613 17.682 171.888 16.0137 180.417 16.0137C188.947 16.0137 197.223 17.682 205.013 20.9712C212.538 24.1486 219.295 28.6977 225.099 34.491C230.902 40.2843 235.458 47.0315 238.641 54.5438C241.935 62.321 243.606 70.5836 243.606 79.0994C243.606 87.6152 241.935 95.8778 238.641 103.655C235.458 111.167 230.902 117.913 225.099 123.708C219.296 129.502 212.538 134.05 205.013 137.228C197.222 140.517 188.947 142.185 180.417 142.185Z" fill="#CCE6FF"/>
<path d="M180.417 3.52896C170.199 3.52896 160.286 5.52653 150.954 9.46787C141.94 13.2741 133.846 18.7224 126.894 25.6627C119.943 32.6031 114.485 40.6852 110.673 49.6833C106.726 59 104.724 68.8961 104.724 79.0982C104.724 89.3003 106.725 99.1964 110.673 108.513C114.486 117.512 119.944 125.593 126.894 132.534C133.846 139.474 141.942 144.923 150.954 148.729C160.286 152.669 170.199 154.667 180.417 154.667C190.636 154.667 200.548 152.67 209.88 148.729C218.894 144.922 226.989 139.473 233.94 132.534C240.892 125.593 246.35 117.511 250.162 108.513C254.108 99.1964 256.11 89.3003 256.11 79.0982C256.11 68.8961 254.109 59 250.162 49.6833C246.349 40.6841 240.891 32.6031 233.94 25.6627C226.989 18.7224 218.893 13.2731 209.88 9.46787C200.548 5.52759 190.636 3.52896 180.417 3.52896ZM180.417 155.058C170.147 155.058 160.183 153.05 150.802 149.088C141.742 145.263 133.605 139.785 126.619 132.81C119.631 125.834 114.145 117.711 110.314 108.666C106.346 99.3009 104.334 89.3541 104.334 79.0993C104.334 68.8444 106.346 58.8977 110.314 49.5324C114.145 40.4868 119.632 32.3635 126.619 25.3884C133.606 18.4121 141.743 12.9354 150.802 9.11015C160.182 5.14876 170.146 3.14062 180.417 3.14062C190.689 3.14062 200.652 5.14876 210.033 9.11015C219.093 12.9354 227.23 18.4132 234.216 25.3884C241.204 32.3646 246.689 40.4879 250.521 49.5324C254.489 58.8966 256.5 68.8444 256.5 79.0993C256.5 89.3541 254.489 99.3009 250.521 108.666C246.688 117.712 241.203 125.835 234.216 132.81C227.228 139.786 219.092 145.263 210.033 149.088C200.652 153.05 190.689 155.058 180.417 155.058Z" fill="#CCE6FF"/>
<path d="M120.286 86.2037C120.632 84.7414 119.725 83.2762 118.26 82.9311C116.796 82.586 115.328 83.4916 114.982 84.9539C114.637 86.4162 115.544 87.8813 117.008 88.2265C118.473 88.5716 119.941 87.666 120.286 86.2037Z" fill="#80C0FF"/>
<path d="M251.826 107.194C252.915 107.194 253.798 106.312 253.798 105.225C253.798 104.137 252.915 103.256 251.826 103.256C250.737 103.256 249.854 104.137 249.854 105.225C249.854 106.312 250.737 107.194 251.826 107.194Z" fill="#80C0FF"/>
<path d="M178.053 6.87308C179.951 6.87308 181.49 5.33668 181.49 3.44142C181.49 1.54617 179.951 0.00976562 178.053 0.00976562C176.154 0.00976562 174.615 1.54617 174.615 3.44142C174.615 5.33668 176.154 6.87308 178.053 6.87308Z" fill="#80C0FF"/>
<path d="M217.791 73.4601C218.411 72.8403 218.411 71.8354 217.791 71.2157C217.17 70.5959 216.163 70.5959 215.543 71.2157C214.922 71.8355 214.922 72.8403 215.543 73.4601C216.163 74.0799 217.17 74.0799 217.791 73.4601Z" fill="#80C0FF"/>
<path d="M160.677 35.2593C161.733 35.2593 162.589 34.4046 162.589 33.3503C162.589 32.2961 161.733 31.4414 160.677 31.4414C159.621 31.4414 158.765 32.2961 158.765 33.3503C158.765 34.4046 159.621 35.2593 160.677 35.2593Z" fill="#80C0FF"/>
<path d="M114.946 125.612L108.059 117.035C107.176 117.732 106.891 118.943 107.371 119.958L109.239 123.913L98.082 120.446C97.1635 120.207 96.2555 120.869 96.2037 121.815L96.115 123.416C95.9406 126.563 98.2511 129.301 101.387 129.664L109.23 130.572L112.642 130.941L114.946 125.612Z" fill="#FFC0B1"/>
<path d="M109.76 128.234C109.688 128.234 109.618 128.199 109.574 128.135C108.259 126.187 108.995 123.935 109.027 123.84C109.066 123.723 109.193 123.659 109.31 123.7C109.427 123.739 109.491 123.865 109.451 123.982C109.443 124.003 108.756 126.122 109.944 127.885C110.013 127.987 109.987 128.126 109.884 128.195C109.846 128.221 109.803 128.233 109.759 128.233L109.76 128.234Z" fill="#102A54"/>
<path d="M150.32 133.53L145.177 140.866L114.182 124.639L111.095 130.554L138.565 152.064C140.886 153.883 143.811 154.755 146.751 154.51C149.982 154.238 152.956 152.64 154.958 150.094L163.34 139.448L150.32 133.53Z" fill="#FFC0B1"/>
<path d="M147.371 147.487C147.371 147.487 147.363 147.487 147.359 147.487C147.235 147.481 147.14 147.376 147.147 147.253C147.341 143.383 145.043 141.049 145.02 141.027C144.932 140.939 144.932 140.798 145.02 140.71C145.108 140.623 145.248 140.623 145.336 140.709C145.436 140.81 147.799 143.2 147.594 147.275C147.587 147.394 147.489 147.487 147.371 147.487Z" fill="#102A54"/>
<path d="M164.216 106L145.674 134.06L161.352 141.975L164.216 106Z" fill="#102A54"/>
<path d="M172.785 101.557H195.89C200.761 101.557 204.931 105.044 205.785 109.832L216.363 169.137H160.011L162.32 111.595C162.545 105.988 167.164 101.557 172.786 101.557H172.785Z" fill="#3C94F8"/>
<path d="M174.714 101.557C174.714 106.464 178.699 110.442 183.614 110.442C188.528 110.442 192.513 106.464 192.513 101.557H174.714Z" fill="#FFC0B1"/>
<path d="M183.822 107.184C186.851 107.184 189.238 104.608 189.003 101.593L187.596 83.5293H180.25L178.646 101.536C178.375 104.571 180.77 107.184 183.822 107.184Z" fill="#FFC0B1"/>
<path d="M188.956 68.4648H165.718L165.912 69.9042C166.582 74.8786 166.795 79.909 166.461 84.9172C166.302 87.3136 166.473 90.1681 167.67 92.4769C170.019 97.005 175.489 99.0332 180.129 96.9016C184.807 94.7531 192.045 88.0206 188.955 68.4648H188.956Z" fill="#FFC0B1"/>
<path d="M175.91 85.4384H173.764C173.425 85.4384 173.112 85.2833 172.906 85.0142C172.7 84.744 172.634 84.4021 172.725 84.075L174.587 77.3647C174.623 77.2349 174.758 77.1579 174.889 77.1948C175.019 77.2307 175.095 77.3658 175.059 77.4955L173.196 84.2059C173.147 84.3842 173.183 84.571 173.295 84.7187C173.407 84.8664 173.578 84.9509 173.763 84.9509H175.909C176.044 84.9509 176.153 85.0606 176.153 85.1946C176.153 85.3286 176.043 85.4384 175.909 85.4384H175.91Z" fill="#102A54"/>
<path d="M178.83 79.3045C179.481 79.3045 180.01 78.7773 180.01 78.1269C180.01 77.4765 179.481 76.9492 178.83 76.9492C178.179 76.9492 177.65 77.4765 177.65 78.1269C177.65 78.7773 178.179 79.3045 178.83 79.3045Z" fill="#102A54"/>
<path d="M170.414 79.0741C171.065 79.0741 171.594 78.5468 171.594 77.8964C171.594 77.246 171.065 76.7188 170.414 76.7188C169.762 76.7188 169.234 77.246 169.234 77.8964C169.234 78.5468 169.762 79.0741 170.414 79.0741Z" fill="#102A54"/>
<path d="M179.02 97.5722C178.918 97.5722 178.821 97.5068 178.788 97.4033C178.745 97.2757 178.816 97.1374 178.944 97.0952C178.977 97.0847 182.233 95.9988 184.41 93.4451C184.497 93.3428 184.652 93.3301 184.754 93.4177C184.857 93.5053 184.869 93.6593 184.782 93.7617C182.513 96.4241 179.234 97.5152 179.095 97.5606C179.07 97.569 179.044 97.5732 179.019 97.5732L179.02 97.5722Z" fill="#102A54"/>
<path d="M195.598 68.4642C193.051 61.9629 188.145 61.9629 187.1 62.042C188.818 60.9583 189.961 59.0472 189.961 56.8682C189.961 53.4903 187.218 50.752 183.835 50.752C180.451 50.752 177.709 53.4903 177.709 56.8682C177.709 57.7704 177.906 58.6262 178.257 59.3976C176.292 59.4102 174.321 59.7965 172.457 60.551C163.108 64.333 165.717 70.9282 165.717 70.9282C171.984 74.896 180.224 72.4868 184.548 70.7161L185.301 78.1292L186.974 85.5191L188.158 90.7479C188.158 90.7479 198.458 75.7686 195.598 68.4663V68.4642Z" fill="#102A54"/>
<path d="M172.93 76.1242C172.802 76.1242 172.673 76.0851 172.562 76.0039C170.035 74.1656 168.475 75.6082 168.409 75.6715C168.164 75.9152 167.77 75.9121 167.527 75.6672C167.282 75.4224 167.286 75.0246 167.531 74.7819C168.331 73.9862 170.568 73.008 173.3 74.9951C173.579 75.1987 173.64 75.5892 173.437 75.8677C173.315 76.0355 173.124 76.1242 172.931 76.1242H172.93Z" fill="#102A54"/>
<path d="M181.044 76.1652C180.916 76.1652 180.787 76.1261 180.676 76.0449C178.149 74.2066 176.588 75.6502 176.523 75.7125C176.278 75.9562 175.884 75.9531 175.641 75.7083C175.397 75.4634 175.4 75.0656 175.645 74.8229C176.445 74.0273 178.682 73.049 181.414 75.0361C181.693 75.2397 181.754 75.6302 181.551 75.9088C181.429 76.0765 181.239 76.1662 181.045 76.1662L181.044 76.1652Z" fill="#102A54"/>
<path d="M171.11 87.4551C171.11 87.4551 173.542 87.8529 175.909 87.4699C175.909 87.4699 175.789 90.5733 172.458 90.0647C170 89.6901 171.11 87.4551 171.11 87.4551Z" fill="white"/>
<path d="M173.014 90.3478C171.712 90.3478 171.026 89.626 170.991 89.588C170.918 89.5089 170.923 89.3865 171.002 89.3137C171.081 89.2409 171.203 89.2451 171.276 89.3242C171.312 89.3622 172.184 90.2644 173.871 89.8497C175.543 89.4382 175.714 87.4744 175.716 87.4543C175.724 87.3478 175.817 87.2676 175.924 87.276C176.031 87.2844 176.111 87.3773 176.103 87.4839C176.1 87.506 175.906 89.7484 173.963 90.2265C173.618 90.3119 173.3 90.3468 173.014 90.3468V90.3478Z" fill="#102A54"/>
<path d="M189.019 74.5329C191.347 74.8843 193.143 77.1235 193.143 79.8345C193.143 82.7891 191.01 85.1846 188.378 85.1846C185.746 85.1846 183.613 82.7891 183.613 79.8345C183.613 76.8798 185.746 74.4844 188.378 74.4844C188.595 74.4844 188.809 74.5002 189.019 74.5319" fill="#3C94F8"/>
<path d="M187.974 85.1624C187.946 85.1624 187.917 85.1572 187.888 85.1466C185.963 84.3974 184.669 82.2626 184.669 79.8335C184.669 76.7543 186.761 74.248 189.331 74.248C189.461 74.248 189.567 74.3536 189.567 74.4834C189.567 74.6132 189.461 74.7187 189.331 74.7187C187.021 74.7187 185.14 77.0128 185.14 79.8335C185.14 82.0695 186.314 84.0291 188.06 84.7076C188.181 84.7551 188.242 84.8913 188.194 85.0126C188.158 85.1055 188.068 85.1624 187.974 85.1624Z" fill="#102A54"/>
<path d="M184.972 82.8707C184.842 82.8337 184.706 82.9097 184.669 83.0385C184.657 83.0849 183.433 87.2605 179.892 89.7973C179.548 89.3045 178.499 89.2222 177.421 89.6348C176.249 90.0822 175.491 90.9412 175.725 91.5532C175.96 92.1653 177.099 92.2993 178.27 91.8508C179.206 91.4931 179.877 90.8737 179.99 90.326C183.811 87.7206 185.083 83.3698 185.14 83.1704C185.177 83.0406 185.101 82.9055 184.971 82.8686L184.972 82.8707Z" fill="#102A54"/>
<path d="M187.291 74.6258C187.291 74.6258 186.712 62.1391 172.456 60.5488C172.456 60.5488 174.45 59.5938 177.242 59.4355C177.242 59.4355 189.082 62.4926 188.377 74.4855L187.29 74.6258H187.291Z" fill="#3C94F8"/>
<path d="M189.332 81.3117C190.032 81.3117 190.6 80.5988 190.6 79.7193C190.6 78.8399 190.032 78.127 189.332 78.127C188.631 78.127 188.063 78.8399 188.063 79.7193C188.063 80.5988 188.631 81.3117 189.332 81.3117Z" fill="#102A54"/>
<path d="M183.614 110.442C183.614 110.442 186.274 117.068 190.601 115.388C194.928 113.708 195.169 101.557 195.169 101.557H192.515C192.515 101.557 191.775 108.977 183.615 110.442H183.614Z" fill="#102A54"/>
<path d="M183.486 110.442C183.486 110.442 180.827 117.068 176.5 115.388C172.173 113.708 171.932 101.557 171.932 101.557H174.586C174.586 101.557 175.326 108.977 183.485 110.442H183.486Z" fill="#102A54"/>
<path d="M186.048 169.38C185.918 169.38 185.809 169.278 185.804 169.147L183.243 110.452C183.237 110.317 183.341 110.203 183.477 110.198C183.609 110.188 183.726 110.296 183.731 110.431L186.292 169.126C186.299 169.261 186.194 169.375 186.059 169.38C186.056 169.38 186.051 169.38 186.048 169.38Z" fill="#102A54"/>
<path d="M187.724 122.889C188.228 122.386 188.228 121.571 187.724 121.068C187.221 120.565 186.404 120.565 185.901 121.068C185.397 121.571 185.397 122.386 185.901 122.889C186.404 123.392 187.221 123.392 187.724 122.889Z" fill="#102A54"/>
<path d="M188.25 134.969C188.753 134.466 188.753 133.651 188.25 133.148C187.746 132.645 186.93 132.645 186.426 133.148C185.922 133.651 185.922 134.466 186.426 134.969C186.93 135.472 187.746 135.472 188.25 134.969Z" fill="#102A54"/>
<path d="M187.862 147.426C188.574 147.426 189.151 146.85 189.151 146.139C189.151 145.428 188.574 144.852 187.862 144.852C187.15 144.852 186.572 145.428 186.572 146.139C186.572 146.85 187.15 147.426 187.862 147.426Z" fill="#102A54"/>
<path d="M189.298 159.131C189.802 158.628 189.802 157.813 189.298 157.31C188.794 156.808 187.978 156.808 187.474 157.31C186.971 157.813 186.971 158.628 187.474 159.131C187.978 159.634 188.794 159.634 189.298 159.131Z" fill="#102A54"/>
<path d="M202.974 104.472L227.52 129.927L210.99 141.08C210.99 141.08 194.361 126.111 202.974 104.471V104.472Z" fill="#102A54"/>
<path d="M258.264 118.117L263.626 108.516C264.612 109.056 265.095 110.203 264.791 111.285L263.607 115.495L274.031 110.223C274.897 109.836 275.902 110.337 276.111 111.261L276.465 112.825C277.161 115.899 275.339 118.983 272.308 119.862L264.725 122.059L261.422 122.989L258.262 118.117H258.264Z" fill="#FFC0B1"/>
<path d="M263.777 119.846C263.746 119.846 263.714 119.84 263.685 119.826C263.572 119.775 263.522 119.642 263.574 119.53C264.455 117.59 263.422 115.621 263.411 115.601C263.353 115.492 263.394 115.356 263.503 115.298C263.612 115.24 263.748 115.281 263.806 115.39C263.854 115.478 264.954 117.575 263.982 119.715C263.945 119.797 263.864 119.846 263.778 119.846H263.777Z" fill="#102A54"/>
<path d="M224.701 131.801L230.994 138.181L258.855 117.033L262.884 122.354L239.38 148.126C237.394 150.304 234.655 151.652 231.715 151.896C228.484 152.167 225.285 151.083 222.886 148.906L212.847 139.8L224.7 131.802L224.701 131.801Z" fill="#FFC0B1"/>
<path d="M229.898 145.075C229.795 145.075 229.702 145.004 229.679 144.9C228.798 140.914 230.729 138.165 230.811 138.05C230.883 137.95 231.023 137.927 231.124 137.999C231.224 138.07 231.248 138.21 231.176 138.311C231.152 138.345 229.281 141.026 230.117 144.804C230.143 144.924 230.067 145.044 229.947 145.071C229.931 145.074 229.914 145.076 229.898 145.076V145.075Z" fill="#102A54"/>
<path d="M123.64 95.123H46.3611C43.5112 95.123 41.2009 97.4295 41.2009 100.275V148.776C41.2009 151.621 43.5112 153.928 46.3611 153.928H123.64C126.49 153.928 128.801 151.621 128.801 148.776V100.275C128.801 97.4295 126.49 95.123 123.64 95.123Z" fill="#0C203F"/>
<path d="M90.5192 139.32H78.68C77.46 139.32 76.4709 140.308 76.4709 141.526V165.3C76.4709 166.518 77.46 167.506 78.68 167.506H90.5192C91.7392 167.506 92.7282 166.518 92.7282 165.3V141.526C92.7282 140.308 91.7392 139.32 90.5192 139.32Z" fill="#102A54"/>
<path d="M103.578 165.715H66.4245C65.6825 165.715 65.0811 166.315 65.0811 167.056V168.017C65.0811 168.758 65.6825 169.359 66.4245 169.359H103.578C104.32 169.359 104.921 168.758 104.921 168.017V167.056C104.921 166.315 104.32 165.715 103.578 165.715Z" fill="#0C203F"/>
<path d="M90.5486 75.9999C106.176 75.9999 118.845 63.352 118.845 47.75C118.845 32.1479 106.176 19.5 90.5486 19.5C74.9211 19.5 62.2524 32.1479 62.2524 47.75C62.2524 63.352 74.9211 75.9999 90.5486 75.9999Z" fill="#CCE6FF"/>
<path d="M100.439 37.6562H80.6649C78.4304 37.6562 76.5691 39.1874 76.0448 41.2388V41.2356L65.3335 60.5815C65.3335 60.5815 68.2021 65.6962 70.6892 67.8732L76.6505 59.2951L76.604 57.9001L77.2847 72.7115C81.2409 74.8114 85.7563 76.0018 90.5497 76.0018C95.343 76.0018 99.8817 74.8051 103.845 72.6946L105.202 42.6307C105.325 39.9208 103.157 37.6562 100.44 37.6562H100.439Z" fill="#E6515C"/>
<path d="M116.234 46.1344L104.289 24.4766L99.7305 26.5111L104.953 41.4818L104.758 52.4437L112.119 53.0948C114.081 53.7417 116.257 52.582 116.738 50.4873C117.075 49.0216 116.897 47.4841 116.234 46.1344Z" fill="#E6515C"/>
<path d="M103.767 24.7103L103.68 23.2646C103.611 22.0954 103.208 20.9695 102.52 20.0208L101.634 18.7988L100.973 23.6034L101.454 26.0452L103.767 24.7103Z" fill="#FFC0B1"/>
<path d="M101.629 26.2025C101.545 26.2025 101.475 26.136 101.472 26.0516L101.4 23.6361V23.6298L101.653 18.7926C101.657 18.7071 101.731 18.6395 101.817 18.6448C101.902 18.649 101.969 18.7229 101.965 18.8084L101.713 23.6393L101.785 26.0421C101.787 26.1276 101.72 26.2004 101.634 26.2025C101.633 26.2025 101.631 26.2025 101.63 26.2025H101.629Z" fill="#102A54"/>
<path d="M90.4481 41.137C88.5159 41.1391 86.9918 39.4982 87.1387 37.5756L88.0213 26.0513L92.7068 26.0449L93.7448 37.5302C93.9202 39.4655 92.394 41.1349 90.447 41.137H90.4481Z" fill="#FFC0B1"/>
<path d="M87.142 16.4437L101.965 16.4258L101.842 17.3438C101.419 20.518 101.286 23.727 101.503 26.9213C101.607 28.4492 101.5 30.2706 100.738 31.7448C99.2433 34.6351 95.7553 35.933 92.7936 34.5771C89.8077 33.2105 85.1856 28.9209 87.1409 16.4448L87.142 16.4437Z" fill="#FFC0B1"/>
<path d="M95.4772 27.2603C95.3916 27.2603 95.3208 27.1907 95.3208 27.1052C95.3208 27.0187 95.3906 26.949 95.4762 26.949L96.845 26.9469C96.9633 26.9469 97.0722 26.8931 97.1441 26.7981C97.216 26.7042 97.2381 26.585 97.2064 26.471L96.0131 22.192C95.9899 22.1086 96.0385 22.0232 96.122 21.9999C96.2044 21.9767 96.2911 22.0253 96.3143 22.1086L97.5077 26.3877C97.5658 26.5955 97.5235 26.814 97.3935 26.987C97.2635 27.1601 97.0637 27.2582 96.8471 27.2582L95.4783 27.2603H95.4772Z" fill="#102A54"/>
<path d="M94.1404 23.1309C94.4343 22.8375 94.4343 22.3618 94.1404 22.0683C93.8465 21.7749 93.37 21.7749 93.0761 22.0683C92.7822 22.3618 92.7822 22.8375 93.0761 23.1309C93.37 23.4243 93.8465 23.4243 94.1404 23.1309Z" fill="#102A54"/>
<path d="M99.7305 22.4436C99.7305 22.8583 99.3944 23.196 98.979 23.196C98.5636 23.196 98.2253 22.8605 98.2253 22.4457C98.2253 22.031 98.5615 21.6934 98.9768 21.6934C99.3922 21.6934 99.7305 22.0289 99.7305 22.4436Z" fill="#102A54"/>
<path d="M93.5028 35.0029C93.487 35.0029 93.4711 35.0008 93.4542 34.9955C93.3654 34.967 91.2726 34.2737 89.8235 32.5769C89.7675 32.5115 89.7759 32.4133 89.8415 32.3574C89.907 32.3015 90.0053 32.3099 90.0613 32.3753C91.4512 34.0036 93.5293 34.6926 93.5504 34.7C93.6318 34.7264 93.6772 34.8151 93.6508 34.8963C93.6297 34.9617 93.5684 35.0039 93.5028 35.0039V35.0029Z" fill="#102A54"/>
<path d="M88.7273 17.0056C88.7273 17.0056 88.9472 22.2122 87.7031 23.0342C86.4601 23.8563 86.0458 22.2787 86.0458 22.2787C86.0458 22.2787 84.2753 16.955 87.1133 15.772C88.852 15.0481 88.7273 17.0046 88.7273 17.0046V17.0056Z" fill="#102A54"/>
<path d="M96.6514 30.1277C96.6514 30.1277 96.6462 30.1277 96.6441 30.1277C96.5817 30.1246 95.1062 30.0349 93.8272 28.0605C93.7807 27.9888 93.8008 27.8917 93.8737 27.8453C93.9456 27.7988 94.0428 27.8189 94.0894 27.8917C95.2753 29.7225 96.6462 29.8154 96.6599 29.8165C96.7455 29.8207 96.8121 29.8945 96.8079 29.98C96.8037 30.0634 96.735 30.1277 96.6525 30.1277H96.6514Z" fill="#102A54"/>
<path d="M85.8545 17.0232C85.8545 17.0232 84.5566 9.97309 91.1954 9.21226C97.8342 8.45143 104.971 9.37688 106.575 6.86328C106.575 6.86328 108.461 15.5786 101.965 16.4249C95.4687 17.2712 85.8535 17.0221 85.8535 17.0221L85.8545 17.0232Z" fill="#102A54"/>
<path d="M93.2786 24.786C92.1233 24.786 91.0833 23.9766 90.8402 22.8042C90.7049 22.1542 90.8317 21.4894 91.1963 20.9343C91.561 20.3793 92.1212 19.9983 92.7733 19.8633C93.4255 19.7282 94.0903 19.8548 94.6463 20.2189C95.2023 20.5829 95.5838 21.1422 95.7191 21.7933C95.9982 23.1366 95.1315 24.4557 93.7859 24.7343C93.6158 24.7691 93.4456 24.786 93.2786 24.786ZM93.2839 20.1218C93.1348 20.1218 92.9858 20.1366 92.8368 20.1682C92.2671 20.2864 91.7766 20.6188 91.4574 21.1053C91.1382 21.5907 91.0272 22.1721 91.1456 22.7409C91.3898 23.9154 92.5461 24.6731 93.7225 24.4293C94.2922 24.3111 94.7827 23.9787 95.1019 23.4922C95.4211 23.0058 95.532 22.4254 95.4137 21.8566C95.2953 21.2878 94.9623 20.7982 94.4751 20.4795C94.1157 20.2442 93.7045 20.1218 93.2839 20.1218Z" fill="#102A54"/>
<path d="M99.2971 24.8661C98.1418 24.8661 97.1017 24.0567 96.8586 22.8843C96.5796 21.541 97.4463 20.2219 98.7918 19.9433C99.4429 19.8083 100.109 19.9349 100.665 20.299C101.221 20.663 101.602 21.2223 101.738 21.8734C101.873 22.5234 101.746 23.1882 101.381 23.7433C101.017 24.2983 100.457 24.6793 99.8044 24.8143C99.6342 24.8492 99.4641 24.8661 99.2971 24.8661ZM99.3024 20.2019C99.1533 20.2019 99.0043 20.2166 98.8553 20.2483C97.6788 20.4921 96.9199 21.6465 97.1641 22.821C97.2825 23.3898 97.6154 23.8794 98.1027 24.1981C98.5889 24.5168 99.1713 24.6276 99.741 24.5094C100.311 24.3912 100.801 24.0588 101.12 23.5723C101.44 23.0869 101.551 22.5055 101.432 21.9367C101.314 21.3679 100.981 20.8783 100.494 20.5596C100.134 20.3243 99.723 20.2019 99.3024 20.2019Z" fill="#102A54"/>
<path d="M95.3523 21.3816C95.2994 21.3816 95.2487 21.3552 95.2191 21.3077C95.1736 21.2349 95.1969 21.1389 95.2698 21.0935C95.3132 21.0671 96.3458 20.4445 97.2104 21.0724C97.2802 21.1231 97.296 21.2201 97.2453 21.2898C97.1946 21.3594 97.0973 21.3742 97.0276 21.3246C96.3331 20.8202 95.4432 21.3531 95.4347 21.3584C95.4093 21.3742 95.3808 21.3816 95.3533 21.3816H95.3523Z" fill="#102A54"/>
<path d="M91.096 21.6307C91.0897 21.6307 91.0833 21.6307 91.077 21.6296L87.7201 21.2223C87.6344 21.2117 87.5731 21.1347 87.5837 21.0492C87.5943 20.9637 87.6714 20.9036 87.757 20.9131L91.114 21.3204C91.1996 21.331 91.2609 21.408 91.2503 21.4935C91.2408 21.5726 91.1732 21.6307 91.096 21.6307Z" fill="#102A54"/>
<path d="M88.0858 22.6064C88.0879 23.9455 87.347 25.0314 86.4317 25.0324C85.5163 25.0335 84.7733 23.9487 84.7722 22.6096C84.7701 21.2705 85.511 20.1846 86.4264 20.1836C87.3417 20.1825 88.0848 21.2673 88.0858 22.6064Z" fill="#FFC0B1"/>
<path d="M86.846 25.1161C86.7678 25.1161 86.7001 25.058 86.6917 24.9778C86.6821 24.8934 86.7424 24.8164 86.8259 24.8058C86.8386 24.8037 87.2814 24.7214 87.6461 23.9321C87.682 23.854 87.7751 23.8202 87.8533 23.8561C87.9315 23.892 87.9653 23.9849 87.9294 24.063C87.4802 25.0338 86.8883 25.1119 86.8639 25.115C86.8576 25.115 86.8523 25.115 86.846 25.115V25.1161Z" fill="#102A54"/>
<path d="M104.758 52.5999C104.758 52.5999 104.754 52.5999 104.751 52.5999C104.665 52.5957 104.598 52.5229 104.602 52.4374L104.813 47.7426C104.818 47.6572 104.889 47.5907 104.976 47.5939C105.063 47.5981 105.129 47.6709 105.125 47.7564L104.914 52.4512C104.91 52.5345 104.841 52.5999 104.758 52.5999Z" fill="#102A54"/>
<path d="M112.118 53.2523C112.09 53.2523 112.06 53.2449 112.035 53.228C110.32 52.1358 108.473 49.522 106.545 45.4593C105.115 42.4455 104.17 39.7135 104.161 39.6871C104.134 39.6058 104.177 39.5172 104.259 39.4887C104.34 39.4613 104.429 39.5045 104.457 39.5858C104.494 39.6934 108.222 50.4284 112.204 52.9652C112.277 53.0117 112.298 53.1077 112.251 53.1805C112.222 53.2269 112.171 53.2523 112.119 53.2523H112.118Z" fill="#102A54"/>
<path d="M76.6503 59.4498C76.5637 59.4498 76.4939 59.3802 76.4939 59.2936V49.5527C76.4939 49.4661 76.5637 49.3965 76.6503 49.3965C76.737 49.3965 76.8068 49.4661 76.8068 49.5527V59.2936C76.8068 59.3802 76.737 59.4498 76.6503 59.4498Z" fill="#102A54"/>
<path d="M223.65 47.5801C211.362 47.5801 201.401 54.8138 201.401 63.738C201.401 69.3118 205.287 74.2261 211.199 77.1312L207.011 82.84C206.62 83.3729 207.114 84.1021 207.754 83.9385L223.921 80.9733C236.577 78.5642 245.899 72.6622 245.899 63.738C245.899 54.8138 235.938 47.5801 223.65 47.5801Z" fill="white"/>
<path d="M206.557 84.1567C206.263 84.1567 205.987 84.0132 205.816 83.76C205.6 83.4413 205.609 83.0361 205.836 82.7258L209.887 77.2027C203.809 74.1446 200.188 69.1248 200.188 63.7388C200.188 59.3585 202.532 55.2451 206.785 52.1564C211.02 49.0804 216.649 47.3867 222.632 47.3867C228.616 47.3867 234.244 49.0804 238.479 52.1564C242.734 55.2462 245.076 59.3595 245.076 63.7388C245.076 68.1181 242.949 71.8547 238.754 74.9561C234.942 77.7746 229.473 79.922 222.94 81.1662L206.778 84.1304C206.704 84.1483 206.63 84.1578 206.557 84.1578V84.1567ZM222.632 47.7761C210.472 47.7761 200.577 54.937 200.577 63.7399C200.577 69.0361 204.2 73.9768 210.267 76.9579L210.475 77.0602L206.15 82.9559C205.993 83.169 206.042 83.3991 206.138 83.5426C206.235 83.6861 206.43 83.8169 206.688 83.7515L206.7 83.7484L222.867 80.7831C229.342 79.5506 234.756 77.4274 238.522 74.6437C242.612 71.6204 244.686 67.9513 244.686 63.7399C244.686 54.9381 234.793 47.7761 222.631 47.7761H222.632Z" fill="#CCE6FF"/>
<path d="M208.813 61.0762H236.691C236.794 61.0762 236.877 60.993 236.877 60.8904V59.4469C236.877 59.3443 236.794 59.2611 236.691 59.2611H208.813C208.711 59.2611 208.627 59.3443 208.627 59.4469V60.8904C208.627 60.993 208.711 61.0762 208.813 61.0762Z" fill="#CCE6FF"/>
<path d="M208.813 65.0879H236.691C236.794 65.0879 236.877 65.0047 236.877 64.9022V63.4586C236.877 63.356 236.794 63.2729 236.691 63.2729H208.813C208.711 63.2729 208.627 63.356 208.627 63.4586V64.9022C208.627 65.0047 208.711 65.0879 208.813 65.0879Z" fill="#CCE6FF"/>
<path d="M221.991 69.0977H236.741C236.816 69.0977 236.877 69.0367 236.877 68.9615V67.4188C236.877 67.3436 236.816 67.2826 236.741 67.2826H221.991C221.915 67.2826 221.854 67.3436 221.854 67.4188V68.9615C221.854 69.0367 221.915 69.0977 221.991 69.0977Z" fill="#CCE6FF"/>
<path d="M320.413 169.885H3.05781C2.73438 169.885 2.47119 169.649 2.47119 169.358C2.47119 169.066 2.73332 168.83 3.05781 168.83H320.413C320.737 168.83 321 169.066 321 169.358C321 169.649 320.738 169.885 320.413 169.885Z" fill="#102A54"/>
<path d="M249.889 22.1554C249.889 14.9217 244.015 9.05664 236.769 9.05664C229.522 9.05664 223.648 14.9206 223.648 22.1554C223.648 26.083 225.381 29.6065 228.123 32.0072C228.363 28.2347 231.021 25.1196 234.569 24.1931C232.935 23.3837 231.81 21.7016 231.81 19.7568C231.81 17.0237 234.03 14.8077 236.768 14.8077C239.505 14.8077 241.725 17.0237 241.725 19.7568C241.725 21.7016 240.601 23.3837 238.966 24.1931C242.514 25.1196 245.173 28.2347 245.413 32.0072C248.155 29.6065 249.887 26.083 249.887 22.1554H249.889Z" fill="#CCE6FF"/>
<path d="M238.968 24.192C240.603 23.3826 241.727 21.7006 241.727 19.7557C241.727 17.0227 239.508 14.8066 236.77 14.8066C234.032 14.8066 231.813 17.0227 231.813 19.7557C231.813 21.7006 232.936 23.3826 234.571 24.192C231.023 25.1185 228.365 28.2346 228.125 32.0061C230.433 34.0269 233.458 35.2531 236.771 35.2531C240.084 35.2531 243.108 34.0269 245.417 32.0061C245.177 28.2336 242.519 25.1185 238.971 24.192H238.968Z" fill="#80C0FF"/>
<path d="M119.545 165.713H169.733C170.141 165.713 170.471 166.043 170.471 166.451V168.763C170.471 169.17 170.141 169.5 169.733 169.5H119.545C119.137 169.5 118.807 169.17 118.807 168.763V166.451C118.807 166.043 119.137 165.713 119.545 165.713Z" fill="#0C203F"/>
<path d="M200.853 160.527C203.967 160.527 206.495 163.051 206.495 166.16V169.321H195.212V166.16C195.212 163.051 197.74 160.527 200.854 160.527H200.853Z" fill="#0C203F"/>
<path d="M200.853 167.426C200.765 167.426 200.694 167.355 200.694 167.267V160.527C200.694 160.44 200.765 160.369 200.853 160.369C200.941 160.369 201.011 160.44 201.011 160.527V167.267C201.011 167.355 200.941 167.426 200.853 167.426Z" fill="white"/>
</g>
<defs>
<clipPath id="clip0_40004858_3818">
<rect width="321" height="170" fill="white"/>
</clipPath>
</defs>
</svg>
