<svg width="24" height="24" viewBox="0 0 24 24" fill="none" xmlns="http://www.w3.org/2000/svg">
<g clip-path="url(#clip0_40002795_10080)">
<path d="M18.8134 13.1049C17.839 12.4047 16.7781 11.8657 15.6607 11.4977C17.1465 10.3822 18.1094 8.60609 18.1094 6.60936C18.1094 3.24068 15.3687 0.5 12 0.5C8.63127 0.5 5.89064 3.24068 5.89064 6.60936C5.89064 8.60856 6.85592 10.3866 8.34485 11.5018C6.98067 11.951 5.70062 12.6498 4.58027 13.5713C2.52591 15.2612 1.09753 17.6182 0.558337 20.2082C0.389341 21.0198 0.591804 21.8533 1.1137 22.4951C1.63305 23.1337 2.40314 23.4999 3.22646 23.4999H12.4941C12.9903 23.4999 13.3926 23.0977 13.3926 22.6015C13.3926 22.1053 12.9903 21.7031 12.4941 21.7031H3.22646C2.84292 21.7031 2.61153 21.489 2.50776 21.3614C2.32857 21.1411 2.25921 20.8542 2.31747 20.5744C3.24987 16.0959 7.20006 12.8245 11.7618 12.7141C11.8408 12.7172 11.9202 12.7187 12 12.7187C12.0803 12.7187 12.1603 12.7171 12.2399 12.714C14.2374 12.7613 16.1429 13.3985 17.7648 14.564C18.1677 14.8536 18.7291 14.7616 19.0187 14.3588C19.3082 13.9558 19.2163 13.3944 18.8134 13.1049ZM12.2187 10.9164C12.1459 10.915 12.073 10.9143 12 10.9143C11.9275 10.9143 11.855 10.9151 11.7826 10.9164C9.50527 10.8028 7.68751 8.91439 7.68751 6.60936C7.68751 4.23143 9.62207 2.29687 12 2.29687C14.3779 2.29687 16.3125 4.23143 16.3125 6.60936C16.3125 8.91394 14.4954 10.8021 12.2187 10.9164Z" fill="#FF0000"/>
<path d="M20.9522 19.6817L23.2368 17.3971C23.5877 17.0462 23.5877 16.4773 23.2368 16.1265C22.8859 15.7756 22.3171 15.7756 21.9662 16.1265L19.6816 18.4111L17.397 16.1264C17.0461 15.7756 16.4773 15.7756 16.1264 16.1264C15.7756 16.4773 15.7755 17.0462 16.1264 17.3971L18.411 19.6817L16.1264 21.9663C15.7755 22.3172 15.7755 22.886 16.1264 23.2369C16.3018 23.4123 16.5317 23.5 16.7617 23.5C16.9917 23.5 17.2216 23.4124 17.397 23.2369L19.6816 20.9523L21.9662 23.2369C22.1417 23.4124 22.3716 23.5 22.6015 23.5C22.8315 23.5 23.0614 23.4124 23.2368 23.2369C23.5877 22.886 23.5877 22.3172 23.2368 21.9663L20.9522 19.6817Z" fill="#FF0000"/>
</g>
<defs>
<clipPath id="clip0_40002795_10080">
<rect width="24" height="24" fill="white"/>
</clipPath>
</defs>
</svg>
