<svg width="16" height="16" viewBox="0 0 16 16" fill="none" xmlns="http://www.w3.org/2000/svg">
<g clip-path="url(#clip0_40005160_13371)">
<path d="M14.4244 13.4301C13.8426 13.0907 13.6487 12.9452 14.0365 11.9513C14.1335 11.7089 14.4002 11.0058 14.0123 10.4967C16.582 7.58764 15.5638 5.64825 12.9699 5.30885C12.1214 5.18764 11.0062 5.38158 10.6426 6.08461C10.4971 6.35128 10.4729 6.35128 9.98804 6.15734L9.79411 6.06037C9.35774 5.86643 8.82441 6.1331 8.29108 6.44825C8.87289 5.47855 9.3335 4.48461 9.3335 3.75734C9.3335 1.81795 7.75774 0.242188 5.7941 0.242188C3.85471 0.242188 2.25471 1.81795 2.25471 3.78158C2.25471 4.33916 2.52138 5.04219 2.90926 5.76946C2.08501 5.35734 1.52744 5.28461 1.13956 5.55128C0.242589 6.1331 0.994105 8.1937 0.872892 8.67855C0.581983 8.84825 0.436529 9.1634 0.509256 9.43007C0.630468 9.76946 0.703195 10.3028 1.18804 10.424C2.3032 10.6422 2.7638 12.1937 2.9335 13.0664C3.20017 14.3513 3.05471 14.5937 5.09107 14.9089C6.37592 15.1028 8.04865 14.9573 9.1638 15.3937C10.3759 15.8786 12.0971 15.8301 13.382 15.7089C14.885 15.5392 15.4426 14.6422 15.0305 13.9876C14.9093 13.721 14.6668 13.5755 14.4244 13.4301ZM5.7941 0.702794C7.49107 0.702794 8.84865 2.08461 8.84865 3.75734C8.84865 5.1634 6.66683 8.02401 5.7941 9.11491C4.89713 8.02401 2.73956 5.18764 2.73956 3.75734C2.73956 2.08461 4.12138 0.702794 5.7941 0.702794ZM5.62441 9.64825C5.67289 9.69673 5.74562 9.72097 5.7941 9.72097C5.86683 9.72097 5.93956 9.69673 5.9638 9.64825C6.01229 9.59976 6.32744 9.21188 6.73956 8.67855C7.63653 8.84825 8.12138 9.21188 8.12138 9.50279C8.12138 9.93916 7.12744 10.424 5.76986 10.424C4.41229 10.424 3.41835 9.93916 3.41835 9.50279C3.41835 9.21188 3.9032 8.84825 4.80017 8.67855C5.26077 9.21188 5.57592 9.59976 5.62441 9.64825ZM13.382 15.1998C12.1941 15.321 10.5456 15.3695 9.38198 14.9089C8.14562 14.424 6.49714 14.6179 5.21229 14.3998C3.44259 14.1089 3.66077 14.0604 3.44259 12.921C3.20017 11.6846 2.64259 10.1816 1.3335 9.91492C1.1638 9.86643 1.06683 9.45431 0.994105 9.23613C0.969862 9.21188 1.04259 9.11491 1.1638 9.04219C1.81835 8.70279 0.75168 6.37552 1.43047 5.91492C1.60017 5.7937 2.08501 5.74522 3.3941 6.54522C3.75774 7.15128 4.16986 7.7331 4.55774 8.24219C3.61229 8.46037 3.00623 8.94522 3.00623 9.47855C3.00623 10.2786 4.21835 10.8604 5.81835 10.8604C7.41835 10.8604 8.63047 10.2543 8.63047 9.47855C8.63047 8.92098 8.02441 8.46037 7.07895 8.24219C7.27289 7.99976 7.46683 7.70885 7.66077 7.41795C7.78198 7.34522 7.9032 7.27249 8.02441 7.17552C8.55774 6.81188 9.28501 6.32704 9.62441 6.47249L9.79411 6.54522C10.279 6.73916 10.6911 6.90885 11.0305 6.25431C11.2729 5.7937 12.1699 5.62401 12.8729 5.72098C15.1274 6.01188 16.0002 7.5634 13.5032 10.2786C13.4547 10.327 13.4305 10.3998 13.4547 10.4482C13.4547 10.521 13.479 10.5695 13.5517 10.6179C13.7941 10.8361 13.8183 11.1755 13.6002 11.7331C13.1153 12.9937 13.4305 13.3573 14.2062 13.7937C14.4002 13.9149 14.6183 14.0119 14.6911 14.1573C14.982 14.6907 14.182 15.127 13.382 15.1998Z" fill="#857E7B" stroke="#857E7B" stroke-width="0.666667"/>
<path d="M5.79385 5.38164C6.66657 5.38164 7.39385 4.65437 7.39385 3.78164C7.39385 2.88467 6.66657 2.18164 5.79385 2.18164C4.89688 2.18164 4.19385 2.90891 4.19385 3.78164C4.19385 4.65437 4.92112 5.38164 5.79385 5.38164ZM5.79385 2.64225C6.42415 2.64225 6.93324 3.15134 6.93324 3.78164C6.93324 4.41194 6.42415 4.92103 5.79385 4.92103C5.16354 4.92103 4.65445 4.41194 4.65445 3.78164C4.65445 3.15134 5.18779 2.64225 5.79385 2.64225Z" fill="#857E7B" stroke="#857E7B" stroke-width="0.666667"/>
</g>
<defs>
<clipPath id="clip0_40005160_13371">
<rect width="16" height="16" fill="white"/>
</clipPath>
</defs>
</svg>
