<svg width="24" height="24" viewBox="0 0 24 24" fill="none" xmlns="http://www.w3.org/2000/svg">
<path fill-rule="evenodd" clip-rule="evenodd" d="M14.7129 2.83206H8.05994C7.05996 2.82811 6.09831 3.21644 5.38147 3.91365C4.66463 4.61086 4.2497 5.56136 4.22589 6.56106V17.2701C4.2039 18.2848 4.58574 19.2667 5.28741 20.0001C5.98909 20.7335 6.95318 21.1582 7.9679 21.1811H16.0489C17.0558 21.1393 18.0071 20.7082 18.7023 19.9786C19.3974 19.2489 19.782 18.2778 19.7749 17.2701V8.10406L14.7129 2.83206Z" stroke="#353231" stroke-width="1.3" stroke-linecap="round" stroke-linejoin="round"/>
<path d="M14.45 2.81982V5.72882C14.4497 6.41062 14.72 7.06468 15.2014 7.54744C15.6829 8.0302 16.3362 8.30223 17.018 8.30382H19.775" stroke="#353231" stroke-width="1.3" stroke-linecap="round" stroke-linejoin="round"/>
<path d="M14.263 15.4287H8.86293" stroke="#353231" stroke-width="1.3" stroke-linecap="round" stroke-linejoin="round"/>
<path d="M12.2179 11.6758H8.86195" stroke="#353231" stroke-width="1.3" stroke-linecap="round" stroke-linejoin="round"/>
</svg>
