<svg width="24" height="24" viewBox="0 0 24 24" fill="none" xmlns="http://www.w3.org/2000/svg">
<path d="M12 16.2188C8.81223 16.2188 6.21875 18.8122 6.21875 22H7.78125C7.78125 21.1186 8.05312 20.2996 8.51719 19.6221L10.3342 21.4391C10.2748 21.6153 10.2422 21.8037 10.2422 22H13.7578C13.7578 21.8037 13.7252 21.6153 13.6659 21.439L15.4829 19.622C15.9469 20.2996 16.2188 21.1186 16.2188 22H17.7812C17.7812 18.8122 15.1878 16.2188 12 16.2188ZM11.439 20.3341L9.62203 18.5171C10.2996 18.0531 11.1186 17.7812 12 17.7812C12.8814 17.7812 13.7004 18.0531 14.3779 18.5172L12.5609 20.3342C12.3847 20.2748 12.1962 20.2422 12 20.2422C11.8038 20.2422 11.6153 20.2748 11.439 20.3341ZM19.0711 14.9289C17.9819 13.8398 16.6855 13.0335 15.2711 12.5454C16.786 11.502 17.7812 9.75578 17.7812 7.78125C17.7812 4.59348 15.1878 2 12 2C8.81223 2 6.21875 4.59348 6.21875 7.78125C6.21875 9.75578 7.21402 11.502 8.72898 12.5454C7.31453 13.0335 6.01813 13.8398 4.92895 14.9289C3.0402 16.8177 2 19.3289 2 22H3.5625C3.5625 17.3475 7.34754 13.5625 12 13.5625C16.6525 13.5625 20.4375 17.3475 20.4375 22H22C22 19.3289 20.9598 16.8177 19.0711 14.9289ZM7.78125 7.78125C7.78125 5.45504 9.67375 3.5625 12 3.5625C14.3263 3.5625 16.2188 5.45504 16.2188 7.78125C16.2188 10.1075 14.3263 12 12 12C9.67375 12 7.78125 10.1075 7.78125 7.78125Z" fill="#FC8019"/>
</svg>
