<svg width="15" height="16" viewBox="0 0 15 16" fill="none" xmlns="http://www.w3.org/2000/svg">
<path d="M12.3251 12.5733C12.2451 13.7067 12.1517 15.12 9.59174 15.12H5.03174C2.48508 15.12 2.37841 13.7067 2.29841 12.5733L1.88508 7.29334C1.85841 6.94667 1.97841 6.61333 2.20508 6.36C2.43174 6.10667 2.76508 5.97333 3.09841 5.97333H11.5251C11.8584 5.97333 12.1917 6.12 12.4184 6.36C12.6451 6.61333 12.7651 6.94667 12.7384 7.28L12.3251 12.5733ZM13.7117 4.65333C13.6851 4.65333 13.6584 4.65333 13.6317 4.65333C12.2451 4.52 10.9784 4.42667 9.76508 4.37333C8.13841 4.29333 6.51174 4.26667 4.87174 4.33333C4.07174 4.37333 3.25841 4.42667 2.45841 4.50667L1.00508 4.65333C0.978411 4.65333 0.93841 4.65333 0.911743 4.65333C0.445077 4.65333 0.0450775 4.30667 0.00507751 3.82667C-0.0482558 3.33333 0.325078 2.88 0.818411 2.84L2.27174 2.69333C2.84508 2.64 3.40508 2.6 3.97841 2.57333L4.08508 1.94667C4.19174 1.28 4.39174 0 6.39174 0H8.24508C10.2584 0 10.4584 1.32 10.5517 1.96L10.6584 2.6C11.6584 2.65333 12.6851 2.73333 13.8051 2.84C14.3117 2.89333 14.6717 3.33333 14.6317 3.84C14.5784 4.30667 14.1784 4.65333 13.7117 4.65333Z" fill="#FF0000"/>
</svg>
