<svg width="24" height="24" viewBox="0 0 24 24" fill="none" xmlns="http://www.w3.org/2000/svg">
<path d="M17.0077 17.0138C16.9277 18.1471 16.8344 19.5604 14.2744 19.5604H9.71436C7.16769 19.5604 7.06103 18.1471 6.98103 17.0138L6.56769 11.7338C6.54103 11.3871 6.66103 11.0538 6.88769 10.8004C7.11436 10.5471 7.44769 10.4138 7.78103 10.4138H16.2077C16.541 10.4138 16.8744 10.5604 17.101 10.8004C17.3277 11.0538 17.4477 11.3871 17.421 11.7204L17.0077 17.0138ZM18.3944 9.09376C18.3677 9.09376 18.341 9.09376 18.3144 9.09376C16.9277 8.96043 15.661 8.8671 14.4477 8.81376C12.821 8.73376 11.1944 8.7071 9.55436 8.77376C8.75436 8.81376 7.94103 8.8671 7.14103 8.9471L5.68769 9.09376C5.66103 9.09376 5.62103 9.09376 5.59436 9.09376C5.12769 9.09376 4.72769 8.7471 4.68769 8.2671C4.63436 7.77376 5.00769 7.32043 5.50103 7.28043L6.95436 7.13376C7.52769 7.08043 8.08769 7.04043 8.66103 7.01376L8.76769 6.3871C8.87436 5.72043 9.07436 4.44043 11.0744 4.44043H12.9277C14.941 4.44043 15.141 5.76043 15.2344 6.40043L15.341 7.04043C16.341 7.09376 17.3677 7.17376 18.4877 7.28043C18.9944 7.33376 19.3544 7.77376 19.3144 8.28043C19.261 8.7471 18.861 9.09376 18.3944 9.09376Z" fill="#353231"/>
</svg>
