<svg width="24" height="24" viewBox="0 0 24 24" fill="none" xmlns="http://www.w3.org/2000/svg">
<path d="M18.2428 8.47138C18.6026 8.11166 18.8048 7.62373 18.8048 7.11493C18.8049 6.60614 18.6028 6.11816 18.2431 5.75835C17.8834 5.39853 17.3955 5.19635 16.8867 5.19629C16.3779 5.19623 15.8899 5.39828 15.5301 5.75801L6.44739 14.8427C6.28937 15.0003 6.17252 15.1943 6.10711 15.4076L5.20809 18.3694C5.19051 18.4282 5.18918 18.4908 5.20425 18.5503C5.21932 18.6099 5.25023 18.6642 5.29371 18.7076C5.33718 18.751 5.39159 18.7818 5.45116 18.7968C5.51074 18.8118 5.57325 18.8104 5.63208 18.7927L8.59454 17.8944C8.80767 17.8295 9.00163 17.7134 9.1594 17.5561L18.2428 8.47138Z" fill="#353231" stroke="#353231" stroke-width="1.36111" stroke-linecap="round" stroke-linejoin="round"/>
<path d="M14.042 7.2373L16.7642 9.95953" stroke="white" stroke-linecap="round" stroke-linejoin="round"/>
</svg>
