<svg width="14" height="14" viewBox="0 0 14 14" fill="none" xmlns="http://www.w3.org/2000/svg">
<path d="M12.3508 3.97519C12.6592 3.66685 12.8325 3.24863 12.8326 2.81252C12.8326 2.37641 12.6594 1.95815 12.3511 1.64973C12.0428 1.34132 11.6245 1.16802 11.1884 1.16797C10.7523 1.16791 10.3341 1.3411 10.0256 1.64944L2.24048 9.43636C2.10504 9.5714 2.00488 9.73767 1.94881 9.92052L1.17823 12.4592C1.16315 12.5096 1.16201 12.5632 1.17493 12.6143C1.18785 12.6653 1.21435 12.7119 1.25161 12.7491C1.28887 12.7863 1.33551 12.8127 1.38657 12.8256C1.43763 12.8384 1.49122 12.8372 1.54164 12.822L4.08089 12.052C4.26358 11.9965 4.42983 11.8969 4.56506 11.7621L12.3508 3.97519Z" stroke="white" stroke-width="1.16667" stroke-linecap="round" stroke-linejoin="round"/>
<path d="M8.75 2.91797L11.0833 5.2513" stroke="white" stroke-width="1.16667" stroke-linecap="round" stroke-linejoin="round"/>
</svg>
