<svg width="16" height="16" viewBox="0 0 16 16" fill="none" xmlns="http://www.w3.org/2000/svg">
<path d="M15.2075 10.733L14.0715 9.59694V5.70022L14.8131 5.43284C14.9834 5.37143 15.0969 5.20997 15.0971 5.02894C15.0972 4.84798 14.9839 4.68629 14.8137 4.62468L8.02814 2.16727C7.93365 2.13304 7.83005 2.13304 7.73555 2.16727L0.95004 4.62468C0.780502 4.68609 0.667362 4.84677 0.666674 5.02708C0.666044 5.20739 0.77801 5.36891 0.947061 5.43155L3.4513 6.35921V9.19075C3.4513 9.27863 3.47822 9.36442 3.52849 9.43648C3.55613 9.47612 3.81796 9.83367 4.48832 10.1711C5.33521 10.5974 6.44599 10.8136 7.78975 10.8136C9.13253 10.8136 10.2489 10.5979 11.1079 10.1724C11.7849 9.83706 12.0554 9.48323 12.0841 9.44401C12.1377 9.37049 12.1666 9.28184 12.1666 9.19081V6.38694L13.2122 6.00997V9.59694L12.0762 10.733C11.9956 10.8136 11.9503 10.9228 11.9503 11.0368C11.9503 11.1507 11.9956 11.26 12.0762 11.3406L13.2122 12.4766V13.4297C13.2122 13.667 13.4046 13.8594 13.6418 13.8594C13.8791 13.8594 14.0715 13.667 14.0715 13.4297V12.4766L15.2075 11.3406C15.3753 11.1728 15.3753 10.9007 15.2075 10.733ZM7.88186 3.0282L13.4031 5.02774L7.79178 7.05077L2.34547 5.03321L7.88186 3.0282ZM11.3073 9.01952C9.83847 10.3412 5.4739 10.1896 4.31059 9.02382V6.67755L7.64049 7.9111C7.69333 7.91946 7.74323 7.96503 7.93545 7.91241L11.3073 6.6968L11.3073 9.01952ZM13.6418 11.691L12.9875 11.0368L13.6418 10.3825L14.2961 11.0368L13.6418 11.691Z" fill="#857E7B"/>
</svg>
