<svg width="24" height="24" viewBox="0 0 24 24" fill="none" xmlns="http://www.w3.org/2000/svg">
<path d="M22.8112 16.1L21.1072 14.3959V8.55082L22.2197 8.14975C22.475 8.05763 22.6454 7.81544 22.6456 7.5439C22.6458 7.27245 22.4758 7.02992 22.2205 6.9375L12.0422 3.2514C11.9005 3.20005 11.7451 3.20005 11.6033 3.2514L1.42505 6.9375C1.17075 7.02962 1.00104 7.27065 1 7.54111C0.999059 7.81157 1.16701 8.05385 1.42058 8.14782L5.17694 9.53931V13.7866C5.17694 13.9184 5.21732 14.0471 5.29273 14.1552C5.33419 14.2147 5.72693 14.751 6.73247 15.2571C8.0028 15.8966 9.66897 16.2209 11.6846 16.2209C13.6988 16.2209 15.3734 15.8973 16.6618 15.2591C17.6773 14.7561 18.0831 14.2253 18.1261 14.1665C18.2065 14.0562 18.2499 13.9232 18.2499 13.7867V9.5809L19.8183 9.01544V14.3959L18.1142 16.1C17.9934 16.2208 17.9254 16.3847 17.9254 16.5556C17.9254 16.7266 17.9933 16.8905 18.1142 17.0113L19.8183 18.7153V20.1451C19.8183 20.501 20.1068 20.7895 20.4628 20.7895C20.8187 20.7895 21.1072 20.501 21.1072 20.1451V18.7153L22.8112 17.0113C23.0629 16.7597 23.0629 16.3516 22.8112 16.1ZM11.8228 4.54278L20.1047 7.5421L11.6877 10.5766L3.5182 7.55031L11.8228 4.54278ZM16.9609 13.5298C14.7577 15.5122 8.21084 15.2849 6.46587 13.5362V10.0168L11.4607 11.8671C11.54 11.8797 11.6148 11.948 11.9032 11.8691L16.9609 10.0457L16.9609 13.5298ZM20.4627 17.537L19.4813 16.5556L20.4627 15.5742L21.4441 16.5556L20.4627 17.537Z" fill="#353231"/>
</svg>
