<svg width="24" height="24" viewBox="0 0 24 24" fill="none" xmlns="http://www.w3.org/2000/svg">
<path d="M18 21C18 18.8783 17.1571 16.8434 15.6569 15.3431C14.1566 13.8429 12.1217 13 10 13C7.87827 13 5.84344 13.8429 4.34315 15.3431C2.84285 16.8434 2 18.8783 2 21" stroke="#FC8019" stroke-width="2" stroke-linecap="round" stroke-linejoin="round"/>
<path d="M10 13C12.7614 13 15 10.7614 15 8C15 5.23858 12.7614 3 10 3C7.23858 3 5 5.23858 5 8C5 10.7614 7.23858 13 10 13Z" stroke="#FC8019" stroke-width="2" stroke-linecap="round" stroke-linejoin="round"/>
<path d="M22 19.9992C22 16.6292 20 13.4992 18 11.9992C18.6574 11.506 19.1831 10.8583 19.5306 10.1135C19.878 9.36867 20.0365 8.54969 19.992 7.72902C19.9475 6.90835 19.7014 6.1113 19.2755 5.40842C18.8495 4.70553 18.2569 4.11848 17.55 3.69922" stroke="#FC8019" stroke-width="2" stroke-linecap="round" stroke-linejoin="round"/>
</svg>
