<svg width="24" height="24" viewBox="0 0 24 24" fill="none" xmlns="http://www.w3.org/2000/svg">
<path d="M12 17H12.01" stroke="#FC8019" stroke-width="2" stroke-linecap="round" stroke-linejoin="round"/>
<path d="M15 2H6C5.46957 2 4.96086 2.21071 4.58579 2.58579C4.21071 2.96086 4 3.46957 4 4V20C4 20.5304 4.21071 21.0391 4.58579 21.4142C4.96086 21.7893 5.46957 22 6 22H18C18.5304 22 19.0391 21.7893 19.4142 21.4142C19.7893 21.0391 20 20.5304 20 20V7L15 2Z" stroke="#FC8019" stroke-width="2" stroke-linecap="round" stroke-linejoin="round"/>
<path d="M9.10001 9.00017C9.33999 8.3388 9.80478 7.78281 10.4131 7.4294C11.0215 7.07598 11.7347 6.94763 12.4281 7.06677C13.1215 7.18591 13.751 7.54497 14.2065 8.08118C14.662 8.61738 14.9145 9.29663 14.92 10.0002C14.92 12.0002 11.92 13.0002 11.92 13.0002" stroke="#FC8019" stroke-width="2" stroke-linecap="round" stroke-linejoin="round"/>
</svg>
