<svg width="56" height="44" viewBox="0 0 56 44" fill="none" xmlns="http://www.w3.org/2000/svg">
<g clip-path="url(#clip0_2303_12738)">
<path d="M24.4674 0.438657L22.2071 0.249228C16.3064 -0.24499 14.1757 8.11257 19.6947 10.2547C20.1134 10.4189 20.5625 10.5348 21.042 10.6022L33.0571 32.0914L40.0174 27.1193C40.0174 27.1193 41.8405 20.4324 36.2061 17.272C38.361 13.0334 36.2061 10.7959 34.3831 9.46989C34.441 9.13377 34.4918 8.79811 34.5355 8.46294C35.2561 2.90263 29.7571 -1.42285 24.4674 0.438657Z" fill="#25232D"/>
<path d="M29.0898 12.9849L30.0754 19.8128C30.3175 21.4834 31.5894 22.818 33.2458 23.1413L36.1912 23.7138C36.1912 23.7138 35.7838 33.1424 26.1145 32.6795C17.2813 32.2565 16.7358 24.9529 16.7358 24.9529L20.2565 23.7181C21.7833 23.1826 22.8316 21.774 22.9071 20.1589L23.0994 16.0456L29.0898 12.9849Z" fill="#C2968E"/>
<path d="M22.9402 19.466L23.0997 16.0449L25.4312 14.8542L28.0461 14.7759C28.0461 14.7759 27.5904 19.4489 22.9402 19.466Z" fill="#25232D"/>
<path d="M6.22641 44.5806L7.86574 36.0649H15.8402L16.276 46.3025C16.4255 49.8219 13.869 52.8726 10.3796 53.3412L10.0392 53.3882C11.3424 52.988 11.6358 50.4713 10.2471 48.5472C8.72172 46.4364 6.22641 44.5806 6.22641 44.5806Z" fill="#C2968E"/>
<path d="M20.257 23.7182C20.257 23.7182 21.2227 29.3996 26.0623 29.3469C29.3395 29.3113 32.3575 27.4426 33.2463 23.1414L40.3733 24.3862C43.8171 24.9886 46.5631 27.5964 47.3407 31.0047L48.9658 38.1274H40.1853L36.589 49.3406L38.0161 52.7788H15.2721V48.6541L12.6272 37.9594H6.51717L8.0511 30.7013C8.58947 28.1562 10.5322 26.1409 13.0574 25.5113L20.257 23.7182Z" fill="#F28F00"/>
<path d="M37.7783 38.1271L36.9778 33.9127C36.9038 33.5253 36.3412 33.5566 36.3127 33.9497C36.0222 37.9633 34.6335 44.0192 28.8524 43.3498L34.2077 51.179L36.589 49.3403L38.9761 41.8985L37.7783 38.1271Z" fill="#25232D"/>
<path d="M12.3132 36.9883L12.4585 36.9542L11.4501 32.8096L11.3034 32.8452L12.3132 36.9883Z" fill="#25232D"/>
<path d="M19.0805 24.0107C19.6202 27.4474 22.0372 30.2319 25.3059 30.7418C29.4733 31.3927 33.4569 28.1083 34.1876 23.4253C34.1933 23.3855 34.1947 23.3456 34.2004 23.3071L35.3127 23.5008C35.3099 23.5341 35.3066 23.5668 35.3028 23.5991C34.5465 28.4416 30.6711 31.9524 26.3598 31.9524C25.9535 31.9524 25.5442 31.9206 25.1321 31.857C21.4006 31.2744 18.6304 28.1468 17.9838 24.2842L19.0805 24.0107Z" fill="#F3DAC6"/>
<path d="M21.3715 23.7525C22.9011 28.5323 30.6762 50.5841 44.9985 54.2587L49.1745 76.9458C49.3995 78.1678 48.2131 79.1705 47.048 78.7418C39.5678 75.9958 18.1854 64.8908 12.3303 26.4187C12.2306 25.7678 12.6393 25.1426 13.2746 24.9688L20.1594 23.0931C20.675 22.9521 21.2077 23.244 21.3715 23.7525Z" fill="#FFCE00"/>
<path d="M47.9341 38.1279H37.7777L39.5452 46.7404L25.5049 51.6385L21.5127 51.3066C20.5584 51.1243 15.7985 51.9176 15.7985 51.9176C15.3997 52.2025 15.2943 52.7494 15.5593 53.1624L17.1032 55.5538C17.3139 55.8828 17.8039 56.2075 18.3451 56.2217L20.6766 56.5949C20.6766 56.5949 22.5695 57.9864 25.6644 56.3998L41.4381 56.6462C46.5896 56.1876 50.663 52.0914 49.686 47.0908L47.9341 38.1279Z" fill="#C2968E"/>
<path d="M24.9538 4.67576C25.7813 6.56576 27.4249 9.56525 29.604 9.82731V12.1546C29.604 13.3694 29.1952 14.5644 28.3877 15.4702C27.4562 16.5128 25.891 17.5041 23.36 17.2634C19.7909 16.9258 19.0118 13.0732 19.9931 10.8214L19.8991 8.90297C19.8079 7.0201 20.5514 5.15574 22.017 3.96791C22.0369 3.95177 22.0568 3.93562 22.0768 3.91948C23.0396 3.16035 24.4624 3.55202 24.9538 4.67576Z" fill="#C2968E"/>
<path d="M28.3963 10.464L29.1554 9.42571C29.7493 8.61246 30.9656 8.62243 31.5467 9.44422C31.964 10.0324 31.8928 10.8357 31.3801 11.3428L29.9444 12.7585C29.5699 13.1288 28.9332 12.9394 28.8221 12.4252L28.3963 10.464Z" fill="#C2968E"/>
<path d="M29.1752 11.0348L29.9315 10.2543C30.0739 10.1061 30.2662 10.0235 30.4713 10.0221C30.4741 10.0221 30.477 10.0221 30.4798 10.0221C30.6821 10.0221 30.8715 10.1004 31.0168 10.2429L31.0353 10.2628L31.1421 10.156L31.1222 10.136C30.947 9.96371 30.7091 9.87256 30.4698 9.87256C30.2249 9.87541 29.9956 9.97368 29.8246 10.1489L29.0669 10.9294L29.1752 11.0348Z" fill="#25232D"/>
<path d="M29.1216 12.9667C29.1216 13.3099 29.3993 13.5877 29.7426 13.5877C30.0844 13.5877 30.3635 13.3099 30.3635 12.9667C30.3635 12.6234 30.0844 12.3457 29.7426 12.3457C29.3993 12.3457 29.1216 12.6234 29.1216 12.9667Z" fill="#F3DAC6"/>
<path d="M28.4374 26.6784L30.8003 25.1146L30.7177 24.9893L28.3548 26.5545L28.4374 26.6784Z" fill="#25232D"/>
<path d="M22.2178 6.58302C22.2178 6.96045 22.3802 7.26667 22.5796 7.26667C22.779 7.26667 22.9399 6.96045 22.9399 6.58302C22.9399 6.20416 22.779 5.89795 22.5796 5.89795C22.3802 5.89795 22.2178 6.20416 22.2178 6.58302Z" fill="#AC2828"/>
<path opacity="0.4" d="M22.2178 6.58302C22.2178 6.96045 22.3802 7.26667 22.5796 7.26667C22.779 7.26667 22.9399 6.96045 22.9399 6.58302C22.9399 6.20416 22.779 5.89795 22.5796 5.89795C22.3802 5.89795 22.2178 6.20416 22.2178 6.58302Z" fill="black"/>
<path d="M24.1018 8.66551C25.6542 7.96335 26.5971 8.64984 26.607 8.65696L26.6968 8.53732C26.6569 8.50599 25.6784 7.78816 24.0391 8.52878L24.1018 8.66551Z" fill="#25232D"/>
<path d="M20.2253 8.66418C21.1582 8.2426 21.8661 8.31667 22.2962 8.45197L22.3403 8.30955C21.886 8.16569 21.1397 8.08736 20.1641 8.52746L20.2253 8.66418Z" fill="#25232D"/>
<path d="M24.9893 9.7572C24.9893 10.0093 25.1944 10.2144 25.4479 10.2144C25.7014 10.2144 25.9065 10.0093 25.9065 9.7572C25.9065 9.50368 25.7014 9.29858 25.4479 9.29858C25.1944 9.29858 24.9893 9.50368 24.9893 9.7572Z" fill="#25232D"/>
<path d="M20.8621 9.7572C20.8621 10.0093 21.0686 10.2144 21.3207 10.2144C21.5742 10.2144 21.7793 10.0093 21.7793 9.7572C21.7793 9.50368 21.5742 9.29858 21.3207 9.29858C21.0686 9.29858 20.8621 9.50368 20.8621 9.7572Z" fill="#25232D"/>
<path d="M22.2637 12.1223H23.1382V11.9728H22.2637C22.1113 11.9728 21.9731 11.8944 21.8948 11.7634C21.8165 11.6324 21.8136 11.4743 21.8863 11.3404L23.0043 9.27238L22.8718 9.20117L21.7538 11.2692C21.6555 11.4501 21.6612 11.6637 21.7666 11.8403C21.872 12.0169 22.0572 12.1223 22.2637 12.1223Z" fill="#25232D"/>
<path d="M24.4368 12.925H21.96C21.96 12.925 21.997 14.4177 23.0994 14.4177C24.3385 14.4177 24.4368 12.925 24.4368 12.925Z" fill="white"/>
<path opacity="0.45" d="M25.0325 12.4406C25.0325 12.9619 25.4541 13.3835 25.9754 13.3835C26.4966 13.3835 26.9182 12.9619 26.9182 12.4406C26.9182 11.9193 26.4966 11.4963 25.9754 11.4963C25.4541 11.4963 25.0325 11.9193 25.0325 12.4406Z" fill="#AC2828"/>
<path opacity="0.45" d="M19.6031 12.4406C19.6031 12.9619 20.0246 13.3835 20.5459 13.3835C21.0672 13.3835 21.4888 12.9619 21.4888 12.4406C21.4888 11.9193 21.0672 11.4963 20.5459 11.4963C20.0246 11.4963 19.6031 11.9193 19.6031 12.4406Z" fill="#AC2828"/>
</g>
<defs>
<clipPath id="clip0_2303_12738">
<rect width="56" height="56" fill="white" transform="matrix(-1 0 0 1 56 0)"/>
</clipPath>
</defs>
</svg>
