<svg width="16" height="16" viewBox="0 0 16 16" fill="none" xmlns="http://www.w3.org/2000/svg">
<g clip-path="url(#clip0_40005161_16920)">
<path d="M12.6225 0V0.979594H13.7275L11.5718 3.02362C10.8087 2.24269 9.74454 1.75706 8.56898 1.75706C6.98763 1.75706 5.60776 2.63556 4.89126 3.93003C4.82988 3.92734 4.76819 3.92572 4.70613 3.92572C2.38994 3.92572 0.5056 5.81006 0.5056 8.12628C0.5056 10.2768 2.1301 12.0547 4.21632 12.2981V13.5999H2.74985V14.5795H4.21638V16H5.19597V14.5794H6.72651V13.5998H5.19597V12.2981C6.56935 12.1378 7.74248 11.3127 8.38388 10.1538C8.44526 10.1565 8.50691 10.1581 8.56894 10.1581C10.8852 10.1581 12.7695 8.27378 12.7695 5.95759C12.7695 5.1705 12.5517 4.43341 12.1735 3.80309L14.5148 1.58316V2.79981H15.4944V0H12.6225ZM4.70619 11.3472C2.93016 11.3472 1.48526 9.90228 1.48526 8.12622C1.48526 6.41937 2.81979 5.01866 4.50016 4.91206C4.41419 5.24644 4.36844 5.59675 4.36844 5.95759C4.36844 7.84709 5.62257 9.44903 7.3421 9.97516C6.75879 10.8043 5.79476 11.3472 4.70619 11.3472ZM7.78263 9.08125C6.38548 8.72937 5.34807 7.46244 5.34807 5.95759C5.34807 5.62522 5.39869 5.30444 5.4926 5.00256C6.88976 5.35444 7.92716 6.62141 7.92716 8.12625C7.92716 8.45862 7.87651 8.77938 7.78263 9.08125ZM8.77504 9.17172C8.86101 8.83734 8.90676 8.48706 8.90676 8.12622C8.90676 6.23672 7.65263 4.63478 5.93313 4.10862C6.51644 3.2795 7.48051 2.73659 8.56904 2.73659C10.3451 2.73659 11.79 4.1815 11.79 5.95756C11.7899 7.66441 10.4554 9.06516 8.77504 9.17172Z" fill="#857E7B"/>
</g>
<defs>
<clipPath id="clip0_40005161_16920">
<rect width="16" height="16" fill="white"/>
</clipPath>
</defs>
</svg>
