<svg width="28" height="28" viewBox="0 0 28 28" fill="none" xmlns="http://www.w3.org/2000/svg">
<path d="M2.8 14C2.8 20.1856 7.81441 25.2 14 25.2C20.1855 25.2 25.2 20.1856 25.2 14C25.2 7.81446 20.1855 2.80005 14 2.80005C7.81441 2.80005 2.8 7.81446 2.8 14Z" stroke="#59260B" stroke-width="1.61359" stroke-linecap="round" stroke-linejoin="round"/>
<path d="M15.1216 2.85522C15.1216 2.85522 18.4816 7.27992 18.4816 13.9999C18.4816 20.7199 15.1216 25.1447 15.1216 25.1447" stroke="#59260B" stroke-width="1.61359" stroke-linecap="round" stroke-linejoin="round"/>
<path d="M12.8806 25.1447C12.8806 25.1447 9.5206 20.7199 9.5206 13.9999C9.5206 7.27992 12.8806 2.85522 12.8806 2.85522" stroke="#59260B" stroke-width="1.61359" stroke-linecap="round" stroke-linejoin="round"/>
<path d="M3.50497 17.9199H24.4946" stroke="#59260B" stroke-width="1.61359" stroke-linecap="round" stroke-linejoin="round"/>
<path d="M3.50497 10.0801H24.4946" stroke="#59260B" stroke-width="1.61359" stroke-linecap="round" stroke-linejoin="round"/>
</svg>
