<svg width="26" height="26" viewBox="0 0 26 26" fill="none" xmlns="http://www.w3.org/2000/svg">
<g clip-path="url(#clip0_40000997_2234)">
<mask id="mask0_40000997_2234" style="mask-type:luminance" maskUnits="userSpaceOnUse" x="0" y="0" width="26" height="26">
<path d="M25.3322 0.634766H0.180176V25.7868H25.3322V0.634766Z" fill="white"/>
</mask>
<g mask="url(#mask0_40000997_2234)">
<path d="M21.1823 7.78141L15.1458 3.55797C13.5004 2.40517 10.9748 2.46805 9.39227 3.69421L4.14179 7.79189C3.09379 8.60933 2.26587 10.2861 2.26587 11.6066V18.8378C2.26587 21.5102 4.43523 23.6901 7.10763 23.6901H18.4051C21.0775 23.6901 23.2468 21.5207 23.2468 18.8483V11.7429C23.2468 10.3281 22.3351 8.58837 21.1823 7.78141ZM13.5424 19.4981C13.5424 19.9277 13.186 20.2841 12.7564 20.2841C12.3267 20.2841 11.9704 19.9277 11.9704 19.4981V16.3541C11.9704 15.9244 12.3267 15.5681 12.7564 15.5681C13.186 15.5681 13.5424 15.9244 13.5424 16.3541V19.4981Z" fill="#FC8019"/>
</g>
</g>
<defs>
<clipPath id="clip0_40000997_2234">
<rect width="25.152" height="25.152" fill="white" transform="translate(0.180176 0.634766)"/>
</clipPath>
</defs>
</svg>
