<svg width="24" height="24" viewBox="0 0 24 24" fill="none" xmlns="http://www.w3.org/2000/svg">
<path d="M14.6885 1.38965C14.7767 1.39108 14.8637 1.41222 14.9424 1.45215C14.9816 1.47207 15.0182 1.4964 15.0518 1.52441L15.1426 1.62012L15.1436 1.62207C15.1961 1.69502 15.231 1.77938 15.2451 1.86816C15.2581 1.95032 15.2529 2.03433 15.2305 2.11426V2.12207L15.2246 2.13867L13.3047 7.75293H17.8184C17.9208 7.75345 18.0216 7.78206 18.1094 7.83496C18.1971 7.88793 18.2691 7.96424 18.3174 8.05469H18.3164C18.3657 8.14533 18.3894 8.24755 18.3838 8.35059C18.3782 8.45306 18.3435 8.55132 18.2852 8.63574L18.2861 8.63672L9.13379 22.3516V22.3525C9.08585 22.4237 9.02222 22.483 8.94824 22.5264C8.87427 22.5698 8.79153 22.5964 8.70605 22.6035H8.70508C8.62194 22.6094 8.53773 22.5964 8.45996 22.5664C8.3824 22.5364 8.31238 22.4898 8.25488 22.4297L8.25391 22.4287C8.19239 22.363 8.14724 22.2837 8.12207 22.1973C8.0969 22.1107 8.09264 22.0192 8.10938 21.9307L9.65137 13.7188H6.17188V13.7178C6.1301 13.7182 6.08836 13.7143 6.04785 13.7041V13.7031C5.97444 13.6866 5.90498 13.6561 5.84375 13.6123C5.78155 13.5678 5.72903 13.5108 5.68945 13.4453L5.68848 13.4434C5.64802 13.3734 5.62238 13.2961 5.61328 13.2158C5.60511 13.1434 5.61222 13.0704 5.63086 13V12.9873L5.63672 12.9707L9.42578 1.78027V1.77832C9.42869 1.76799 9.43292 1.75861 9.4375 1.75098V1.75C9.47816 1.64685 9.54786 1.55721 9.63867 1.49316C9.73413 1.42591 9.84807 1.39 9.96484 1.38965H14.6885ZM6.96094 12.583H10.3389C10.4221 12.583 10.5048 12.6022 10.5801 12.6377C10.6553 12.6732 10.7216 12.7249 10.7744 12.7891C10.8272 12.8533 10.8659 12.9283 10.8867 13.0088C10.9075 13.0894 10.9098 13.174 10.8945 13.2559L9.73535 19.4092L16.7578 8.8916H12.5078C12.4178 8.89139 12.329 8.86945 12.249 8.82812C12.169 8.78677 12.1001 8.72667 12.0479 8.65332C11.9956 8.58001 11.9612 8.49531 11.9482 8.40625C11.9353 8.31718 11.9435 8.22576 11.9727 8.14062L13.8926 2.52344H10.3701L6.96094 12.583Z" fill="#FC8019" stroke="#FC8019" stroke-width="0.21524"/>
</svg>
