<svg width="24" height="24" viewBox="0 0 24 24" fill="none" xmlns="http://www.w3.org/2000/svg">
<path fill-rule="evenodd" clip-rule="evenodd" d="M5.125 7.30332C3.7581 7.30332 2.65 8.41142 2.65 9.77832V17.7061C2.65 19.0729 3.7581 20.1811 5.125 20.1811H18.875C20.2419 20.1811 21.35 19.0729 21.35 17.7061V9.77832C21.35 8.41142 20.2419 7.30332 18.875 7.30332H14.6909V5.65332H18.875C21.1532 5.65332 23 7.50014 23 9.77832V17.7061C23 19.9843 21.1532 21.8311 18.875 21.8311H5.125C2.84682 21.8311 1 19.9843 1 17.7061V9.77832C1 7.50015 2.84682 5.65332 5.125 5.65332H9.52339V7.30332H5.125ZM7.72995 11.159C7.08834 11.159 6.56821 11.6791 6.56821 12.3207C6.56821 12.962 7.08821 13.4821 7.73014 13.4821C8.37185 13.4821 8.89169 12.9622 8.89169 12.3207C8.89169 11.6791 8.37156 11.159 7.72995 11.159ZM9.8561 14.1607C10.2832 13.6676 10.5417 13.0244 10.5417 12.3207C10.5417 10.7678 9.28282 9.50896 7.72995 9.50896C6.17707 9.50896 4.91821 10.7678 4.91821 12.3207C4.91821 13.0245 5.1768 13.6678 5.60408 14.1608C5.04135 14.5618 4.59686 15.1177 4.33262 15.7656C4.08612 16.3699 4.25105 16.966 4.61043 17.3717C4.95156 17.7567 5.46138 17.9751 5.98706 17.9751H9.47321C9.99888 17.9751 10.5087 17.7567 10.8498 17.3717C11.2092 16.966 11.3742 16.3699 11.1277 15.7656C10.8634 15.1176 10.4189 14.5617 9.8561 14.1607ZM7.73014 15.1321C6.91744 15.1321 6.21518 15.6127 5.89542 16.308C5.92151 16.3184 5.95297 16.3251 5.98706 16.3251H9.47321C9.5073 16.3251 9.53876 16.3184 9.56486 16.308C9.24509 15.6127 8.54283 15.1321 7.73014 15.1321Z" fill="#353231"/>
<path fill-rule="evenodd" clip-rule="evenodd" d="M10.9 3.81895C10.7481 3.81895 10.625 3.94207 10.625 4.09395V7.24383C10.625 7.39571 10.7481 7.51883 10.9 7.51883H13.1002C13.2521 7.51883 13.3752 7.39571 13.3752 7.24383V4.09395C13.3752 3.94207 13.2521 3.81895 13.1002 3.81895H10.9ZM8.97498 4.09395C8.97498 3.0308 9.83683 2.16895 10.9 2.16895H13.1002C14.1633 2.16895 15.0252 3.0308 15.0252 4.09395V7.24383C15.0252 8.30697 14.1633 9.16883 13.1002 9.16883H10.9C9.83683 9.16883 8.97498 8.30697 8.97498 7.24383V4.09395ZM13.9486 12.023C13.9486 11.5674 14.318 11.198 14.7736 11.198H16.943C17.3987 11.198 17.768 11.5674 17.768 12.023C17.768 12.4788 17.3987 12.848 16.943 12.848H14.7736C14.318 12.848 13.9486 12.4788 13.9486 12.023ZM13.9486 15.4627C13.9486 15.0071 14.318 14.6377 14.7736 14.6377H19.1129C19.5685 14.6377 19.9379 15.0071 19.9379 15.4627C19.9379 15.9184 19.5685 16.2877 19.1129 16.2877H14.7736C14.318 16.2877 13.9486 15.9184 13.9486 15.4627Z" fill="#353231"/>
</svg>
