<svg width="69" height="22" viewBox="0 0 69 22" fill="none" xmlns="http://www.w3.org/2000/svg">
<g clip-path="url(#clip0_40003055_18436)">
<path d="M1.31055 2.65234H22.6895C23.4121 2.65625 24 3.24805 24 3.9707V18.0293C24 18.7539 23.4062 19.3477 22.6816 19.3477H1.31055C0.589844 19.3438 0 18.752 0 18.0293V3.9707C0 3.24805 0.587891 2.65625 1.31055 2.65234Z" fill="#FF9933"/>
<path d="M0 8.2168H24V13.7832H0V8.2168Z" fill="white"/>
<path d="M0 13.7832H24V18.0293C24 18.7539 23.4062 19.3477 22.6816 19.3477H1.31055C0.589844 19.3438 0 18.752 0 18.0293V13.7832Z" fill="#128807"/>
<path d="M14.2266 11C14.2266 9.76953 13.2305 8.77344 12 8.77344C10.7695 8.77344 9.77344 9.76953 9.77344 11C9.77344 12.2285 10.7695 13.2266 12 13.2266C13.2305 13.2266 14.2266 12.2305 14.2266 11Z" fill="#000088"/>
<path d="M13.9473 11C13.9473 9.92383 13.0762 9.05273 12 9.05273C10.9238 9.05273 10.0527 9.92383 10.0527 11C10.0527 12.0762 10.9238 12.9473 12 12.9473C13.0762 12.9473 13.9473 12.0762 13.9473 11Z" fill="white"/>
<path d="M12.3887 11C12.3887 10.7852 12.2148 10.6094 12 10.6094C11.7852 10.6094 11.6113 10.7832 11.6113 11C11.6113 11.2148 11.7852 11.3887 12 11.3887C12.2148 11.3887 12.3887 11.2148 12.3887 11Z" fill="#000088"/>
<path d="M14.0274 11.2676C14.0352 11.2149 13.9961 11.166 13.9434 11.1582C13.8906 11.1504 13.8418 11.1895 13.834 11.2422C13.8262 11.2949 13.8653 11.3438 13.918 11.3516C13.9727 11.3574 14.0215 11.3203 14.0274 11.2676Z" fill="#000088"/>
<path d="M12 12.9473L12.0664 11.7793L12 11.2227L11.9336 11.7793L12 12.9473Z" fill="#000088"/>
<path d="M13.8887 11.7831C13.9102 11.7343 13.8848 11.6757 13.8359 11.6561C13.7871 11.6346 13.7285 11.66 13.709 11.7089C13.6875 11.7577 13.7129 11.8163 13.7617 11.8358C13.8125 11.8554 13.8691 11.8319 13.8887 11.7831Z" fill="black"/>
<path d="M11.4961 12.8809L11.8633 11.7695L11.9434 11.2148L11.7344 11.7363L11.4961 12.8809Z" fill="black"/>
<path d="M13.623 12.2462C13.6562 12.2032 13.6484 12.1426 13.6055 12.1094C13.5625 12.0762 13.5019 12.084 13.4687 12.127C13.4355 12.17 13.4434 12.2305 13.4863 12.2637C13.5293 12.2969 13.5898 12.2872 13.623 12.2462Z" fill="black"/>
<path d="M11.0254 12.6875L11.668 11.709L11.8887 11.1934L11.5527 11.6406L11.0254 12.6875Z" fill="black"/>
<path d="M13.2441 12.6231C13.2871 12.5899 13.2949 12.5294 13.2617 12.4864C13.2285 12.4434 13.168 12.4356 13.125 12.4688C13.082 12.502 13.0742 12.5626 13.1074 12.6055C13.1406 12.6465 13.2031 12.6563 13.2441 12.6231Z" fill="black"/>
<path d="M10.623 12.377L11.4961 11.5977L11.8418 11.1582L11.4023 11.5039L10.623 12.377Z" fill="black"/>
<path d="M12.7832 12.8905C12.832 12.869 12.8574 12.8124 12.8359 12.7636C12.8145 12.7147 12.7578 12.6893 12.709 12.7108C12.6602 12.7304 12.6348 12.7889 12.6563 12.8378C12.6758 12.8866 12.7324 12.91 12.7832 12.8905Z" fill="black"/>
<path d="M10.3125 11.9746L11.3594 11.4473L11.8066 11.1113L11.291 11.332L10.3125 11.9746Z" fill="black"/>
<path d="M12.2676 13.027C12.3203 13.0192 12.3574 12.9703 12.3516 12.9176C12.3437 12.8649 12.2949 12.8278 12.2422 12.8336C12.1895 12.8414 12.1523 12.8903 12.1582 12.943C12.1641 12.9977 12.2129 13.0348 12.2676 13.027Z" fill="black"/>
<path d="M10.1191 11.5039L11.2656 11.2656L11.7852 11.0586L11.2305 11.1367L10.1191 11.5039Z" fill="black"/>
<path d="M11.7324 13.0274C11.7852 13.0352 11.834 12.9961 11.8418 12.9434C11.8496 12.8906 11.8105 12.8418 11.7578 12.834C11.7051 12.8262 11.6562 12.8653 11.6484 12.918C11.6426 12.9727 11.6797 13.0215 11.7324 13.0274Z" fill="black"/>
<path d="M10.0527 11L11.2207 11.0664L11.7773 11L11.2207 10.9336L10.0527 11Z" fill="black"/>
<path d="M11.2168 12.8905C11.2656 12.912 11.3242 12.8866 11.3437 12.8378C11.3633 12.7889 11.3398 12.7304 11.291 12.7108C11.2422 12.6893 11.1836 12.7147 11.164 12.7636C11.1445 12.8124 11.168 12.869 11.2168 12.8905Z" fill="black"/>
<path d="M10.1191 10.4961L11.2305 10.8633L11.7852 10.9434L11.2656 10.7344L10.1191 10.4961Z" fill="black"/>
<path d="M10.7539 12.6231C10.7969 12.6563 10.8574 12.6485 10.8906 12.6055C10.9238 12.5626 10.916 12.502 10.873 12.4688C10.8301 12.4356 10.7695 12.4434 10.7363 12.4864C10.7051 12.5294 10.7129 12.5899 10.7539 12.6231Z" fill="black"/>
<path d="M10.3125 10.0254L11.291 10.668L11.8066 10.8887L11.3594 10.5527L10.3125 10.0254Z" fill="black"/>
<path d="M10.377 12.2462C10.4102 12.2891 10.4707 12.2969 10.5137 12.2637C10.5567 12.2305 10.5645 12.17 10.5313 12.127C10.4981 12.084 10.4375 12.0762 10.3946 12.1094C10.3535 12.1407 10.3438 12.2032 10.377 12.2462Z" fill="black"/>
<path d="M10.623 9.62305L11.4023 10.4961L11.8418 10.8438L11.4961 10.4023L10.623 9.62305Z" fill="black"/>
<path d="M10.1094 11.7831C10.1308 11.8319 10.1875 11.8573 10.2363 11.8358C10.2851 11.8143 10.3105 11.7577 10.289 11.7089C10.2676 11.66 10.2109 11.6346 10.1621 11.6561C10.1133 11.6757 10.0898 11.7323 10.1094 11.7831Z" fill="black"/>
<path d="M11.0254 9.3125L11.5527 10.3594L11.8887 10.8066L11.668 10.293L11.0254 9.3125Z" fill="black"/>
<path d="M9.97266 11.2672C9.98047 11.3199 10.0293 11.3571 10.082 11.3512C10.1348 11.3434 10.1719 11.2946 10.166 11.2418C10.1582 11.1891 10.1094 11.152 10.0566 11.1578C10.002 11.1637 9.96484 11.2125 9.97266 11.2672Z" fill="black"/>
<path d="M11.4961 9.11914L11.7344 10.2656L11.9434 10.7852L11.8633 10.2305L11.4961 9.11914Z" fill="black"/>
<path d="M9.97268 10.7321C9.96486 10.7848 10.0039 10.8336 10.0567 10.8414C10.1094 10.8492 10.1582 10.8102 10.166 10.7574C10.1738 10.7047 10.1348 10.6559 10.0821 10.6481C10.0274 10.6422 9.97854 10.6793 9.97268 10.7321Z" fill="black"/>
<path d="M12 9.05273L11.9336 10.2207L12 10.7773L12.0664 10.2207L12 9.05273Z" fill="black"/>
<path d="M10.1113 10.2168C10.0898 10.2657 10.1152 10.3243 10.1641 10.3438C10.2129 10.3633 10.2715 10.3399 10.291 10.2911C10.3125 10.2422 10.2871 10.1836 10.2383 10.1641C10.1875 10.1446 10.1309 10.168 10.1113 10.2168Z" fill="black"/>
<path d="M12.5039 9.11914L12.1367 10.2305L12.0566 10.7852L12.2656 10.2656L12.5039 9.11914Z" fill="black"/>
<path d="M10.3769 9.75592C10.3437 9.79889 10.3516 9.85943 10.3945 9.89264C10.4375 9.92584 10.498 9.91803 10.5312 9.87506C10.5644 9.83209 10.5566 9.77154 10.5137 9.73834C10.4707 9.70514 10.4102 9.71295 10.3769 9.75592Z" fill="black"/>
<path d="M12.9746 9.3125L12.332 10.293L12.1113 10.8066L12.4473 10.3594L12.9746 9.3125Z" fill="black"/>
<path d="M10.7559 9.37716C10.7129 9.41036 10.7051 9.47091 10.7383 9.51388C10.7715 9.55685 10.832 9.56466 10.875 9.53146C10.918 9.49825 10.9258 9.43771 10.8926 9.39474C10.8594 9.35177 10.7969 9.34591 10.7559 9.37716Z" fill="black"/>
<path d="M13.377 9.62305L12.5039 10.4023L12.1582 10.8438L12.5977 10.4961L13.377 9.62305Z" fill="black"/>
<path d="M11.2168 9.11148C11.168 9.13297 11.1445 9.18961 11.164 9.23843C11.1855 9.28726 11.2422 9.31265 11.291 9.29117C11.3398 9.26968 11.3652 9.21304 11.3437 9.16422C11.3242 9.11343 11.2676 9.09 11.2168 9.11148Z" fill="black"/>
<path d="M13.6875 10.0254L12.6406 10.5527L12.1934 10.8887L12.709 10.668L13.6875 10.0254Z" fill="black"/>
<path d="M11.7324 8.97268C11.6797 8.98049 11.6426 9.02932 11.6484 9.08205C11.6562 9.13479 11.7051 9.17189 11.7578 9.16604C11.8105 9.15822 11.8496 9.1094 11.8418 9.05666C11.8359 9.00393 11.7871 8.96486 11.7324 8.97268Z" fill="black"/>
<path d="M13.8809 10.4961L12.7344 10.7344L12.2148 10.9434L12.7695 10.8633L13.8809 10.4961Z" fill="black"/>
<path d="M12.2676 8.97268C12.2149 8.96486 12.166 9.00393 12.1582 9.05666C12.1504 9.1094 12.1895 9.15822 12.2422 9.16604C12.2949 9.17385 12.3438 9.13479 12.3516 9.08205C12.3574 9.02932 12.3203 8.97854 12.2676 8.97268Z" fill="black"/>
<path d="M13.9473 11L12.7793 10.9336L12.2227 11L12.7793 11.0664L13.9473 11Z" fill="black"/>
<path d="M12.7832 9.11121C12.7344 9.08973 12.6758 9.11512 12.6563 9.16394C12.6348 9.21277 12.6602 9.27137 12.709 9.2909C12.7578 9.31043 12.8164 9.28699 12.8359 9.23816C12.8555 9.18738 12.832 9.13074 12.7832 9.11121Z" fill="black"/>
<path d="M13.8809 11.5039L12.7695 11.1367L12.2148 11.0586L12.7344 11.2656L13.8809 11.5039Z" fill="black"/>
<path d="M13.2441 9.37701C13.2012 9.34381 13.1406 9.35162 13.1074 9.39459C13.0742 9.43756 13.082 9.4981 13.125 9.53131C13.168 9.56451 13.2285 9.5567 13.2617 9.51373C13.2949 9.47076 13.2871 9.41021 13.2441 9.37701Z" fill="black"/>
<path d="M13.6875 11.9746L12.709 11.332L12.1934 11.1113L12.6406 11.4473L13.6875 11.9746Z" fill="black"/>
<path d="M13.623 9.75592C13.5898 9.71295 13.5293 9.70514 13.4863 9.73834C13.4434 9.77154 13.4355 9.83209 13.4687 9.87506C13.5019 9.91803 13.5625 9.92584 13.6055 9.89264C13.6465 9.85943 13.6562 9.79693 13.623 9.75592Z" fill="black"/>
<path d="M13.377 12.377L12.5977 11.5039L12.1582 11.1582L12.5039 11.5977L13.377 12.377Z" fill="black"/>
<path d="M13.8906 10.2167C13.8691 10.1679 13.8125 10.1425 13.7637 10.1639C13.7148 10.1854 13.6895 10.2421 13.7109 10.2909C13.7324 10.3397 13.7891 10.3632 13.8379 10.3436C13.8867 10.3241 13.9102 10.2675 13.8906 10.2167Z" fill="black"/>
<path d="M12.9746 12.6875L12.4473 11.6406L12.1113 11.1934L12.332 11.709L12.9746 12.6875Z" fill="black"/>
<path d="M14.0273 10.7321C14.0195 10.6793 13.9707 10.6422 13.918 10.6481C13.8652 10.6559 13.8281 10.7047 13.834 10.7574C13.8418 10.8102 13.8906 10.8473 13.9434 10.8414C13.998 10.8356 14.0352 10.7867 14.0273 10.7321Z" fill="black"/>
<path d="M12.5039 12.8809L12.2656 11.7363L12.0566 11.2148L12.1367 11.7695L12.5039 12.8809Z" fill="black"/>
</g>
<path d="M37.136 10.792H40.32V11.928H37.136V15.224H35.984V11.928H32.8V10.792H35.984V7.48H37.136V10.792ZM49.4763 10.456C49.4763 11.1067 49.4283 11.7573 49.3323 12.408C49.2469 13.048 49.0923 13.656 48.8683 14.232C48.6443 14.7973 48.3349 15.304 47.9403 15.752C47.5456 16.1893 47.0443 16.536 46.4363 16.792C45.8283 17.0373 45.0923 17.16 44.2283 17.16C44.0149 17.16 43.7643 17.144 43.4763 17.112C43.1989 17.0907 42.9696 17.0533 42.7883 17V15.8C42.9803 15.864 43.2043 15.9173 43.4603 15.96C43.7163 15.992 43.9616 16.008 44.1963 16.008C44.9429 16.008 45.5563 15.8853 46.0363 15.64C46.5269 15.3947 46.9163 15.064 47.2043 14.648C47.4923 14.2213 47.7003 13.7307 47.8283 13.176C47.9563 12.6107 48.0309 12.0187 48.0523 11.4H47.9563C47.7963 11.6453 47.5936 11.8693 47.3483 12.072C47.1029 12.2747 46.8043 12.4347 46.4523 12.552C46.1109 12.6693 45.7056 12.728 45.2363 12.728C44.5856 12.728 44.0096 12.5947 43.5082 12.328C43.0176 12.0507 42.6336 11.656 42.3563 11.144C42.0896 10.632 41.9563 10.008 41.9563 9.272C41.9563 8.472 42.1056 7.784 42.4043 7.208C42.7136 6.632 43.1403 6.18933 43.6843 5.88C44.2283 5.57067 44.8683 5.416 45.6043 5.416C46.1483 5.416 46.6549 5.52267 47.1243 5.736C47.5936 5.93867 48.0043 6.248 48.3563 6.664C48.7083 7.08 48.9803 7.60267 49.1723 8.232C49.3749 8.86133 49.4763 9.60267 49.4763 10.456ZM45.6043 6.6C44.9429 6.6 44.3989 6.81867 43.9723 7.256C43.5563 7.69333 43.3483 8.36 43.3483 9.256C43.3483 9.992 43.5243 10.5733 43.8763 11C44.2389 11.416 44.7936 11.624 45.5403 11.624C46.0523 11.624 46.4949 11.5227 46.8683 11.32C47.2416 11.1067 47.5296 10.84 47.7323 10.52C47.9456 10.2 48.0523 9.86933 48.0523 9.528C48.0523 9.18667 47.9989 8.84533 47.8923 8.504C47.7963 8.152 47.6469 7.832 47.4443 7.544C47.2416 7.256 46.9856 7.02667 46.6763 6.856C46.3669 6.68533 46.0096 6.6 45.6043 6.6ZM55.9925 17H54.6165V9.016C54.6165 8.70667 54.6165 8.44533 54.6165 8.232C54.6272 8.01867 54.6378 7.82133 54.6485 7.64C54.6592 7.448 54.6698 7.25067 54.6805 7.048C54.5098 7.21867 54.3552 7.36267 54.2165 7.48C54.0778 7.59733 53.9018 7.74667 53.6885 7.928L52.4725 8.92L51.7365 7.976L54.8245 5.576H55.9925V17Z" fill="#857E7B"/>
<path opacity="0.7" d="M68 0V22" stroke="#E3E2E1"/>
<defs>
<clipPath id="clip0_40003055_18436">
<rect width="24" height="16.6953" fill="white" transform="translate(0 2.65234)"/>
</clipPath>
</defs>
</svg>
