<svg width="24" height="24" viewBox="0 0 24 24" fill="none" xmlns="http://www.w3.org/2000/svg">
<path d="M17.519 15.1682L14.7977 14.6638C14.3889 14.588 14.0922 14.2313 14.0922 13.8155V13.37C14.4498 13.1041 14.7552 12.7719 14.9903 12.3918C16.0636 11.4989 16.6779 10.1927 16.6779 8.79516C16.6779 7.05039 15.7176 5.52586 14.298 4.72176C14.3198 4.59305 14.3311 4.46262 14.3311 4.33129C14.3311 3.04578 13.2852 2 11.9998 2C10.7143 2 9.66848 3.04578 9.66848 4.33129C9.66848 4.46262 9.67965 4.59309 9.70157 4.72176C8.28192 5.5259 7.32165 7.05039 7.32165 8.79516C7.32165 10.1927 7.9359 11.4989 9.00922 12.3918C9.2443 12.7719 9.54973 13.1041 9.90731 13.37V13.8155C9.90731 14.2313 9.61059 14.588 9.20176 14.6638L6.48051 15.1682C5.08344 15.4272 4.06946 16.6464 4.06946 18.0673V21.5703C4.06946 21.8076 4.26184 22 4.49915 22H19.5004C19.7377 22 19.93 21.8076 19.93 21.5703V18.0673C19.9301 16.6464 18.9161 15.4272 17.519 15.1682ZM9.34532 10.5489V10.2231C9.34532 9.70863 9.73028 9.27234 10.2408 9.20828C11.4872 9.05184 12.6378 8.48809 13.522 7.60805C14.2368 8.24664 14.6542 9.16691 14.6542 10.136V10.5489C14.6542 12.0126 13.4634 13.2034 11.9997 13.2034C10.5361 13.2034 9.34532 12.0126 9.34532 10.5489ZM10.5279 4.33129C10.5279 3.51965 11.1882 2.85938 11.9998 2.85938C12.8114 2.85938 13.4717 3.51965 13.4717 4.33129C13.4717 4.33898 13.4713 4.34664 13.4712 4.35434C13.0083 4.20055 12.5136 4.11703 11.9998 4.11703C11.4859 4.11703 10.9913 4.20055 10.5283 4.35434C10.5282 4.34664 10.5279 4.33898 10.5279 4.33129ZM11.9998 4.97641C14.1054 4.97641 15.8185 6.68949 15.8185 8.79516C15.8185 9.31879 15.7126 9.8266 15.5136 10.2935V10.1359C15.5136 8.76398 14.8462 7.47008 13.7284 6.67469C13.5481 6.54645 13.2999 6.57605 13.1548 6.74305C12.3796 7.63566 11.3067 8.20828 10.1337 8.35551C9.1943 8.47344 8.4859 9.27629 8.4859 10.2231V10.2934C8.28692 9.82656 8.18098 9.31875 8.18098 8.79516C8.18102 6.68949 9.89411 4.97641 11.9998 4.97641ZM11.9998 14.0627C12.4337 14.0627 12.8493 13.9835 13.2334 13.839C13.2373 14.1261 13.3119 14.3983 13.4421 14.6375L11.9998 16.08L10.5574 14.6376C10.6876 14.3984 10.7623 14.1261 10.7662 13.839C11.1502 13.9835 11.5659 14.0627 11.9998 14.0627ZM9.3584 15.5088C9.58211 15.4673 9.78883 15.3835 9.97129 15.2668L11.6959 16.9915C11.7765 17.072 11.8858 17.1173 11.9997 17.1173C12.1137 17.1173 12.223 17.0721 12.3036 16.9915L14.0282 15.2668C14.2106 15.3835 14.4173 15.4673 14.6411 15.5088L14.8212 15.5422L11.9998 20.6779L9.17825 15.5422L9.3584 15.5088ZM4.92883 18.0673C4.92883 17.0606 5.64727 16.1967 6.63715 16.0132L8.28836 15.7071L11.2734 21.1406H4.92883V18.0673ZM19.0707 21.1406H12.7261L15.7112 15.7071L17.3624 16.0132C18.3523 16.1967 19.0707 17.0606 19.0707 18.0673V21.1406Z" fill="#353231" stroke="#353231" stroke-width="0.1"/>
</svg>
