<svg width="24" height="24" viewBox="0 0 24 24" fill="none" xmlns="http://www.w3.org/2000/svg">
<path d="M16.9453 2.71094C16.9453 2.32261 17.2601 2.00781 17.6484 2.00781C18.0368 2.00781 18.3516 2.32261 18.3516 2.71094C18.3516 3.09926 18.0368 3.41406 17.6484 3.41406C17.2601 3.41406 16.9453 3.09926 16.9453 2.71094Z" fill="#FC8019"/>
<path d="M16.9453 9.68359C16.9453 9.29527 17.2601 8.98047 17.6484 8.98047C18.0368 8.98047 18.3516 9.29527 18.3516 9.68359C18.3516 10.0719 18.0368 10.3867 17.6484 10.3867C17.2601 10.3867 16.9453 10.0719 16.9453 9.68359Z" fill="#FC8019"/>
<path d="M20.4316 6.19531C20.4316 5.80699 20.7464 5.49219 21.1348 5.49219C21.5231 5.49219 21.8379 5.80699 21.8379 6.19531C21.8379 6.58364 21.5231 6.89844 21.1348 6.89844C20.7464 6.89844 20.4316 6.58364 20.4316 6.19531Z" fill="#FC8019"/>
<path d="M13.459 6.19531C13.459 5.80699 13.7738 5.49219 14.1621 5.49219C14.5504 5.49219 14.8652 5.80699 14.8652 6.19531C14.8652 6.58364 14.5504 6.89844 14.1621 6.89844C13.7738 6.89844 13.459 6.58364 13.459 6.19531Z" fill="#FC8019"/>
<path d="M14.6846 4.23148C14.4101 3.95694 14.4101 3.51181 14.6846 3.23727C14.9592 2.96272 15.4043 2.96272 15.6788 3.23727C15.9534 3.51181 15.9534 3.95694 15.6788 4.23148C15.4043 4.50603 14.9592 4.50603 14.6846 4.23148Z" fill="#FC8019"/>
<path d="M19.6143 9.16117C19.3398 8.88663 19.3398 8.4415 19.6143 8.16695C19.8888 7.89241 20.334 7.89241 20.6085 8.16695C20.8831 8.4415 20.8831 8.88663 20.6085 9.16117C20.334 9.43572 19.8888 9.43572 19.6143 9.16117Z" fill="#FC8019"/>
<path d="M19.6143 4.23148C19.3398 3.95694 19.3398 3.51181 19.6143 3.23727C19.8888 2.96272 20.334 2.96272 20.6085 3.23727C20.8831 3.51181 20.8831 3.95694 20.6085 4.23148C20.334 4.50603 19.8888 4.50603 19.6143 4.23148Z" fill="#FC8019"/>
<path d="M14.6827 9.15727C14.4081 8.88272 14.4081 8.43759 14.6827 8.16305C14.9572 7.8885 15.4023 7.8885 15.6769 8.16305C15.9514 8.43759 15.9514 8.88272 15.6769 9.15727C15.4023 9.43181 14.9572 9.43181 14.6827 9.15727Z" fill="#FC8019"/>
<path d="M17.6484 8C18.6451 8 19.4531 7.19201 19.4531 6.19531C19.4531 5.19861 18.6451 4.39062 17.6484 4.39062C16.6517 4.39062 15.8438 5.19861 15.8438 6.19531C15.8438 7.19201 16.6517 8 17.6484 8Z" fill="#FC8019"/>
<path d="M15.9941 12.9922L6.99414 21.9922H9.00541L18.0055 12.9922H15.9941Z" fill="#FC8019"/>
<path d="M19.9941 12.9922L10.9941 21.9922H13.0055L22.0055 12.9922H19.9941Z" fill="#FC8019"/>
<path d="M10.3025 16.6953H0V18.2891H8.70877L10.3025 16.6953Z" fill="#FC8019"/>
<path d="M14.0056 12.9922H9.12891V10.609C9.68058 10.346 10.0619 9.78336 10.0619 9.13147C10.0619 8.22791 8.42578 5.85931 8.42578 5.85931C8.42578 5.85931 6.7897 8.22786 6.7897 9.13147C6.7897 9.78331 7.17098 10.346 7.72266 10.609V12.9922H4.23047V10.5631C4.73958 10.3058 5.08884 9.7783 5.08884 9.16892V6.04587C5.08884 5.18347 4.38975 4.48438 3.52734 4.48438C2.66494 4.48438 1.96584 5.18352 1.96584 6.04587V9.16892C1.96584 9.7783 2.31516 10.3058 2.82427 10.5631V12.9922H2C0.895431 12.9922 0 13.8876 0 14.9922V15.2891H11.7088L14.0056 12.9922Z" fill="#FC8019"/>
<path d="M23.9941 12.9922L14.9941 21.9922H17.0055L23.9998 14.9978V12.9922H23.9941Z" fill="#FC8019"/>
<path d="M21.9998 21.994C23.1044 21.994 23.9998 21.0985 23.9998 19.994V16.9883L18.9941 21.994H21.9998Z" fill="#FC8019"/>
<path d="M0 19.6953V19.9922C0 21.0968 0.89543 21.9922 2 21.9922H5.00564L7.30252 19.6953H0Z" fill="#FC8019"/>
</svg>
