<svg width="24" height="24" viewBox="0 0 24 24" fill="none" xmlns="http://www.w3.org/2000/svg">
<g clip-path="url(#clip0_40000907_29776)">
<path d="M13 13.7401C12.696 13.9157 12.3511 14.0081 12 14.0081C11.6489 14.0081 11.304 13.9157 11 13.7401L2.50001 8.87014C2.34611 8.78292 2.2181 8.65644 2.12904 8.5036C2.03998 8.35076 1.99306 8.17703 1.99306 8.00014C1.99306 7.82324 2.03998 7.64951 2.12904 7.49667C2.2181 7.34383 2.34611 7.21735 2.50001 7.13014L11 2.26014C11.304 2.0846 11.6489 1.99219 12 1.99219C12.3511 1.99219 12.696 2.0846 13 2.26014L21.5 7.13014C21.6539 7.21735 21.7819 7.34383 21.871 7.49667C21.96 7.64951 22.007 7.82324 22.007 8.00014C22.007 8.17703 21.96 8.35076 21.871 8.5036C21.7819 8.65644 21.6539 8.78292 21.5 8.87014L13 13.7401Z" stroke="#FC8019" stroke-width="2" stroke-linecap="round" stroke-linejoin="round"/>
<path d="M20 14.2852L21.5 15.1302C21.6539 15.2174 21.7819 15.3439 21.871 15.4967C21.96 15.6495 22.007 15.8233 22.007 16.0002C22.007 16.1771 21.96 16.3508 21.871 16.5036C21.7819 16.6565 21.6539 16.7829 21.5 16.8702L13 21.7402C12.696 21.9157 12.3511 22.0081 12 22.0081C11.6489 22.0081 11.304 21.9157 11 21.7402L2.50001 16.8702C2.34611 16.7829 2.2181 16.6565 2.12904 16.5036C2.03998 16.3508 1.99306 16.1771 1.99306 16.0002C1.99306 15.8233 2.03998 15.6495 2.12904 15.4967C2.2181 15.3439 2.34611 15.2174 2.50001 15.1302L4.00001 14.2852" stroke="#FC8019" stroke-width="2" stroke-linecap="round" stroke-linejoin="round"/>
</g>
<defs>
<clipPath id="clip0_40000907_29776">
<rect width="24" height="24" fill="white"/>
</clipPath>
</defs>
</svg>
