<svg width="65" height="64" viewBox="0 0 65 64" fill="none" xmlns="http://www.w3.org/2000/svg">
<g clip-path="url(#clip0_2096_5870)">
<path d="M35.1 58.5335V53.2001C36.9667 52.9335 38.7778 52.4223 40.5334 51.6668C42.2889 50.9112 43.9445 49.9557 45.5 48.8001L49.3667 52.6668C47.2778 54.3112 45.0334 55.6335 42.6334 56.6335C40.2334 57.6335 37.7222 58.2668 35.1 58.5335ZM53.1 48.8001L49.3667 45.0668C50.5222 43.6001 51.4556 41.989 52.1667 40.2335C52.8778 38.4779 53.3667 36.6224 53.6334 34.6668H59.1C58.7445 37.4223 58.0667 39.989 57.0667 42.3668C56.0667 44.7446 54.7445 46.889 53.1 48.8001ZM53.6334 29.3335C53.3667 27.3335 52.8778 25.4557 52.1667 23.7001C51.4556 21.9446 50.5222 20.3557 49.3667 18.9335L53.1 15.2001C54.7889 17.1557 56.1556 19.3335 57.2 21.7335C58.2445 24.1335 58.8778 26.6668 59.1 29.3335H53.6334ZM29.7667 58.5335C22.9667 57.7335 17.2889 54.8223 12.7334 49.8001C8.1778 44.7779 5.90002 38.8446 5.90002 32.0001C5.90002 25.1112 8.1778 19.1557 12.7334 14.1335C17.2889 9.11124 22.9667 6.22235 29.7667 5.4668V10.8001C24.4334 11.5557 20.0111 13.9335 16.5 17.9335C12.9889 21.9335 11.2334 26.6224 11.2334 32.0001C11.2334 37.3779 12.9889 42.0557 16.5 46.0335C20.0111 50.0112 24.4334 52.4001 29.7667 53.2001V58.5335ZM45.6334 15.2001C44.0334 14.0001 42.3445 13.0224 40.5667 12.2668C38.7889 11.5112 36.9667 11.0224 35.1 10.8001V5.4668C37.7222 5.68902 40.2334 6.30013 42.6334 7.30013C45.0334 8.30013 47.2778 9.64457 49.3667 11.3335L45.6334 15.2001ZM32.5 45.3335C29.9222 43.1557 27.5 40.8223 25.2334 38.3335C22.9667 35.8446 21.8334 32.9335 21.8334 29.6001C21.8334 26.5779 22.8667 24.0001 24.9334 21.8668C27 19.7335 29.5222 18.6668 32.5 18.6668C35.4778 18.6668 38 19.7335 40.0667 21.8668C42.1334 24.0001 43.1667 26.5779 43.1667 29.6001C43.1667 32.9335 42.0334 35.8446 39.7667 38.3335C37.5 40.8223 35.0778 43.1557 32.5 45.3335ZM32.5 32.0001C33.3 32.0001 33.9778 31.7224 34.5334 31.1668C35.0889 30.6112 35.3667 29.9335 35.3667 29.1335C35.3667 28.3779 35.0889 27.7112 34.5334 27.1335C33.9778 26.5557 33.3 26.2668 32.5 26.2668C31.7 26.2668 31.0222 26.5557 30.4667 27.1335C29.9111 27.7112 29.6334 28.3779 29.6334 29.1335C29.6334 29.9335 29.9111 30.6112 30.4667 31.1668C31.0222 31.7224 31.7 32.0001 32.5 32.0001Z" fill="#DF8700"/>
<rect x="43.5" y="-1" width="22" height="22" rx="11" fill="white"/>
<rect x="43.5" y="-1" width="22" height="22" rx="11" stroke="white" stroke-width="2"/>
<path d="M47.425 17.075C49.375 19.025 51.7333 20 54.5 20C57.2667 20 59.625 19.025 61.575 17.075C63.525 15.125 64.5 12.7667 64.5 10C64.5 7.23333 63.525 4.875 61.575 2.925C59.625 0.975 57.2667 0 54.5 0C51.7333 0 49.375 0.975 47.425 2.925C45.475 4.875 44.5 7.23333 44.5 10C44.5 12.7667 45.475 15.125 47.425 17.075Z" fill="#FFD21E"/>
<path d="M55.2 15.7C55 15.9 54.7667 16 54.5 16C54.2333 16 54 15.9 53.8 15.7C53.6 15.5 53.5 15.2667 53.5 15C53.5 14.7333 53.6 14.5 53.8 14.3C54 14.1 54.2333 14 54.5 14C54.7667 14 55 14.1 55.2 14.3C55.4 14.5 55.5 14.7333 55.5 15C55.5 15.2667 55.4 15.5 55.2 15.7Z" fill="white"/>
<path d="M55.5 5V11C55.5 11.5523 55.0523 12 54.5 12C53.9477 12 53.5 11.5523 53.5 11V5C53.5 4.44772 53.9477 4 54.5 4C55.0523 4 55.5 4.44772 55.5 5Z" fill="white"/>
</g>
<defs>
<clipPath id="clip0_2096_5870">
<rect width="64" height="64" fill="white" transform="translate(0.5)"/>
</clipPath>
</defs>
</svg>
