<svg width="65" height="64" viewBox="0 0 65 64" fill="none" xmlns="http://www.w3.org/2000/svg">
<path d="M35.1 58.5335V53.2001C36.9667 52.9335 38.7778 52.4223 40.5333 51.6668C42.2889 50.9112 43.9444 49.9557 45.5 48.8001L49.3667 52.6668C47.2778 54.3112 45.0333 55.6335 42.6333 56.6335C40.2333 57.6335 37.7222 58.2668 35.1 58.5335ZM53.1 48.8001L49.3667 45.0668C50.5222 43.6001 51.4556 41.989 52.1667 40.2335C52.8778 38.4779 53.3667 36.6224 53.6333 34.6668H59.1C58.7444 37.4223 58.0667 39.989 57.0667 42.3668C56.0667 44.7446 54.7444 46.889 53.1 48.8001ZM53.6333 29.3335C53.3667 27.3335 52.8778 25.4557 52.1667 23.7001C51.4556 21.9446 50.5222 20.3557 49.3667 18.9335L53.1 15.2001C54.7889 17.1557 56.1556 19.3335 57.2 21.7335C58.2444 24.1335 58.8778 26.6668 59.1 29.3335H53.6333ZM29.7667 58.5335C22.9667 57.7335 17.2889 54.8223 12.7333 49.8001C8.17777 44.7779 5.89999 38.8446 5.89999 32.0001C5.89999 25.1112 8.17777 19.1557 12.7333 14.1335C17.2889 9.11124 22.9667 6.22235 29.7667 5.4668V10.8001C24.4333 11.5557 20.0111 13.9335 16.5 17.9335C12.9889 21.9335 11.2333 26.6224 11.2333 32.0001C11.2333 37.3779 12.9889 42.0557 16.5 46.0335C20.0111 50.0112 24.4333 52.4001 29.7667 53.2001V58.5335ZM45.6333 15.2001C44.0333 14.0001 42.3444 13.0224 40.5667 12.2668C38.7889 11.5112 36.9667 11.0224 35.1 10.8001V5.4668C37.7222 5.68902 40.2333 6.30013 42.6333 7.30013C45.0333 8.30013 47.2778 9.64457 49.3667 11.3335L45.6333 15.2001ZM32.5 45.3335C29.9222 43.1557 27.5 40.8223 25.2333 38.3335C22.9667 35.8446 21.8333 32.9335 21.8333 29.6001C21.8333 26.5779 22.8667 24.0001 24.9333 21.8668C27 19.7335 29.5222 18.6668 32.5 18.6668C35.4778 18.6668 38 19.7335 40.0667 21.8668C42.1333 24.0001 43.1667 26.5779 43.1667 29.6001C43.1667 32.9335 42.0333 35.8446 39.7667 38.3335C37.5 40.8223 35.0778 43.1557 32.5 45.3335ZM32.5 32.0001C33.3 32.0001 33.9778 31.7224 34.5333 31.1668C35.0889 30.6112 35.3667 29.9335 35.3667 29.1335C35.3667 28.3779 35.0889 27.7112 34.5333 27.1335C33.9778 26.5557 33.3 26.2668 32.5 26.2668C31.7 26.2668 31.0222 26.5557 30.4667 27.1335C29.9111 27.7112 29.6333 28.3779 29.6333 29.1335C29.6333 29.9335 29.9111 30.6112 30.4667 31.1668C31.0222 31.7224 31.7 32.0001 32.5 32.0001Z" fill="#DF8700"/>
</svg>
