<svg width="17" height="20" viewBox="0 0 17 20" fill="none" xmlns="http://www.w3.org/2000/svg">
<path d="M13.1708 7.45823V5.31022C13.1721 4.71139 13.0553 4.11818 12.8274 3.56443C12.5994 3.01069 12.2647 2.50726 11.8422 2.0829C11.4197 1.65853 10.9177 1.32154 10.365 1.09117C9.81225 0.860792 9.21956 0.741559 8.62073 0.740245C8.0219 0.738932 7.42863 0.855559 6.87488 1.08351C6.32113 1.31146 5.8178 1.64626 5.39343 2.06877C4.96907 2.49127 4.63199 2.99323 4.40161 3.54597C4.17124 4.09871 4.05209 4.69141 4.05078 5.29023V7.45723" stroke="#1A1A1A" stroke-width="1.5" stroke-linecap="round" stroke-linejoin="round"/>
<path fill-rule="evenodd" clip-rule="evenodd" d="M12.4301 19.2597H4.79004C3.78477 19.2589 2.82088 18.8591 2.11023 18.148C1.39958 17.437 1.00026 16.473 1 15.4677V11.1787C1.00026 10.1734 1.39958 9.20938 2.11023 8.49835C2.82088 7.78733 3.78477 7.38751 4.79004 7.38672H12.4301C13.4365 7.38672 14.4017 7.78595 15.1141 8.49686C15.8265 9.20777 16.2279 10.1723 16.23 11.1787V15.4677C16.2279 16.4741 15.8265 17.4386 15.1141 18.1495C14.4017 18.8604 13.4365 19.2597 12.4301 19.2597V19.2597Z" stroke="#1A1A1A" stroke-width="1.5" stroke-linecap="round" stroke-linejoin="round"/>
<path d="M8.60938 12.2109V14.4319" stroke="#1A1A1A" stroke-width="1.5" stroke-linecap="round" stroke-linejoin="round"/>
</svg>
