<svg width="24" height="24" viewBox="0 0 24 24" fill="none" xmlns="http://www.w3.org/2000/svg">
<path fill-rule="evenodd" clip-rule="evenodd" d="M18.2161 2.90017C18.5103 3.06924 18.6117 3.44476 18.4426 3.73895L17.0615 6.14198V9.19612C17.0615 9.53543 16.7865 9.81048 16.4472 9.81048C16.1079 9.81048 15.8328 9.53543 15.8328 9.19612V6.0249C15.8328 5.88676 15.869 5.75107 15.9379 5.6313L17.3773 3.1267C17.5464 2.83252 17.9219 2.73109 18.2161 2.90017Z" fill="#FC8019" stroke="#FC8019" stroke-width="0.2"/>
<path fill-rule="evenodd" clip-rule="evenodd" d="M13.1408 9.3712C13.1408 9.03189 13.4159 8.75684 13.7552 8.75684H20.0557C21.1796 8.75684 22.0237 9.78317 21.8068 10.8859L21.0282 14.8435C20.9627 15.1764 20.6397 15.3932 20.3068 15.3278C19.9739 15.2622 19.7571 14.9392 19.8225 14.6063L20.6011 10.6487C20.6687 10.3053 20.4058 9.98556 20.0557 9.98556H13.7552C13.4159 9.98556 13.1408 9.7105 13.1408 9.3712Z" fill="#FC8019" stroke="#FC8019" stroke-width="0.2"/>
<path fill-rule="evenodd" clip-rule="evenodd" d="M6.00266 17.095C6.56816 17.095 7.0266 16.6365 7.0266 16.071C7.0266 15.5055 6.56816 15.0471 6.00266 15.0471C5.43715 15.0471 4.97872 15.5055 4.97872 16.071C4.97872 16.6365 5.43715 17.095 6.00266 17.095ZM6.00266 18.3237C7.24677 18.3237 8.25532 17.3151 8.25532 16.071C8.25532 14.8269 7.24677 13.8184 6.00266 13.8184C4.75855 13.8184 3.75 14.8269 3.75 16.071C3.75 17.3151 4.75855 18.3237 6.00266 18.3237Z" fill="#FC8019" stroke="#FC8019" stroke-width="0.2"/>
<path fill-rule="evenodd" clip-rule="evenodd" d="M19.3724 19.9612C20.6973 19.9612 21.7713 18.8871 21.7713 17.5622C21.7713 16.2373 20.6973 15.1633 19.3724 15.1633C18.0475 15.1633 16.9734 16.2373 16.9734 17.5622C16.9734 18.8871 18.0475 19.9612 19.3724 19.9612ZM19.3724 21.1899C21.3759 21.1899 23 19.5658 23 17.5622C23 15.5587 21.3759 13.9346 19.3724 13.9346C17.3689 13.9346 15.7447 15.5587 15.7447 17.5622C15.7447 19.5658 17.3689 21.1899 19.3724 21.1899Z" fill="#FC8019" stroke="#FC8019" stroke-width="0.2"/>
<path fill-rule="evenodd" clip-rule="evenodd" d="M6.00266 19.845C8.08693 19.845 9.7766 18.1553 9.7766 16.071C9.7766 13.9868 8.08693 12.2971 6.00266 12.2971C3.91839 12.2971 2.22872 13.9868 2.22872 16.071C2.22872 18.1553 3.91839 19.845 6.00266 19.845ZM6.00266 21.0737C8.76553 21.0737 11.0053 18.8339 11.0053 16.071C11.0053 13.3081 8.76553 11.0684 6.00266 11.0684C3.23979 11.0684 1 13.3081 1 16.071C1 18.8339 3.23979 21.0737 6.00266 21.0737Z" fill="#FC8019" stroke="#FC8019" stroke-width="0.2"/>
<path fill-rule="evenodd" clip-rule="evenodd" d="M2.88053 10.8201L3.42152 11.6783C3.60249 11.9653 3.51648 12.3447 3.22948 12.5256C2.94243 12.7066 2.56307 12.6206 2.38212 12.3336L1.61563 11.1177C1.40849 10.7892 1.46463 10.3358 1.79636 10.0786C3.72466 8.58362 6.80443 8.48064 9.2222 9.6515C10.4486 10.2454 11.5384 11.1805 12.2434 12.4692C12.9506 13.7621 13.2493 15.3723 12.9535 17.2754C12.8951 17.6512 12.5704 17.9447 12.174 17.9447H10.2449C9.90561 17.9447 9.63055 17.6697 9.63055 17.3304C9.63055 16.9911 9.90561 16.716 10.2449 16.716H11.7889C11.9561 15.2219 11.6864 14.0114 11.1654 13.0589C10.5997 12.0247 9.71603 11.2559 8.68665 10.7574C6.74135 9.81533 4.39221 9.88449 2.88053 10.8201Z" fill="#FC8019" stroke="#FC8019" stroke-width="0.2"/>
<path fill-rule="evenodd" clip-rule="evenodd" d="M4.18823 2.93467C4.18823 2.59537 4.46329 2.32031 4.80259 2.32031H14.5154C14.8547 2.32031 15.1297 2.59537 15.1297 2.93467C15.1297 3.27398 14.8547 3.54904 14.5154 3.54904H4.80259C4.46329 3.54904 4.18823 3.27398 4.18823 2.93467Z" fill="#FC8019" stroke="#FC8019" stroke-width="0.2"/>
<path fill-rule="evenodd" clip-rule="evenodd" d="M11.2695 17.3292C11.2695 16.9899 11.5446 16.7148 11.8839 16.7148H16.2137C16.553 16.7148 16.828 16.9899 16.828 17.3292C16.828 17.6685 16.553 17.9436 16.2137 17.9436H11.8839C11.5446 17.9436 11.2695 17.6685 11.2695 17.3292Z" fill="#FC8019" stroke="#FC8019" stroke-width="0.2"/>
<path fill-rule="evenodd" clip-rule="evenodd" d="M6.17759 2.37988C6.5169 2.37988 6.79196 2.65494 6.79196 2.99424V9.25488C6.79196 9.59419 6.5169 9.86924 6.17759 9.86924C5.83829 9.86924 5.56323 9.59419 5.56323 9.25488V2.99424C5.56323 2.65494 5.83829 2.37988 6.17759 2.37988Z" fill="#FC8019" stroke="#FC8019" stroke-width="0.2"/>
<path fill-rule="evenodd" clip-rule="evenodd" d="M8.72349 2.37988C9.0628 2.37988 9.33785 2.65494 9.33785 2.99424V9.8985C9.33785 10.2378 9.0628 10.5129 8.72349 10.5129C8.38419 10.5129 8.10913 10.2378 8.10913 9.8985V2.99424C8.10913 2.65494 8.38419 2.37988 8.72349 2.37988Z" fill="#FC8019" stroke="#FC8019" stroke-width="0.2"/>
<path fill-rule="evenodd" clip-rule="evenodd" d="M13.085 2.52899C13.4228 2.49789 13.7219 2.74659 13.7531 3.08448L14.7179 13.5677C14.8141 14.6134 13.991 15.5158 12.9409 15.5158H12.7024C12.3631 15.5158 12.0881 15.2407 12.0881 14.9014C12.0881 14.5621 12.3631 14.287 12.7024 14.287H12.9409C13.2679 14.287 13.5243 14.006 13.4944 13.6802L12.5295 3.19706C12.4984 2.8592 12.7471 2.56009 13.085 2.52899Z" fill="#FC8019" stroke="#FC8019" stroke-width="0.2"/>
</svg>
