<svg width="56" height="44" viewBox="0 0 56 44" fill="none" xmlns="http://www.w3.org/2000/svg">
<g style="mix-blend-mode:luminosity" clip-path="url(#clip0_40002625_1148)">
<path d="M31.4884 26.2141H24.5111V18.4092H31.4884V26.2141Z" fill="#C2968E"/>
<path d="M24.5111 23.0541C25.1304 23.3061 25.7526 23.4736 26.3241 23.4736C27.3305 23.4736 28.4889 22.9683 29.5164 22.3644C30.3244 21.8887 30.9873 21.2229 31.4884 20.4445V18.4092H24.5111V23.0541Z" fill="#25232D"/>
<path d="M43.074 29.9425L33.8812 27.0161C33.1845 26.7951 32.7045 26.0984 32.7045 25.3059V24.5205H28.0004H23.2964V25.3059C23.2964 26.0984 22.8164 26.7951 22.1182 27.0161L12.9254 29.9425L7.30078 81.5691H28.0004H48.7001L43.074 29.9425Z" fill="#DF8700"/>
<path d="M28.0012 80.9781C27.7465 80.9781 27.5396 80.7712 27.5396 80.5164V26.7615C27.5396 26.5067 27.7465 26.2998 28.0012 26.2998C28.256 26.2998 28.4615 26.5067 28.4615 26.7615V80.5164C28.4615 80.7712 28.256 80.9781 28.0012 80.9781Z" fill="#FFCE00"/>
<path d="M28.001 7.43359L21.3052 8.80879L21.8161 15.9297C21.9653 17.9932 23.0674 19.8765 24.8086 20.9012C25.8361 21.5064 26.9946 22.0103 28.001 22.0103C29.006 22.0103 30.1644 21.5064 31.1919 20.9012C32.9331 19.8765 34.0366 17.9932 34.1844 15.9297L34.6968 8.80879L28.001 7.43359Z" fill="#C2968E"/>
<path opacity="0.55" d="M25.8473 15.8839C25.8473 16.6454 25.2293 17.2633 24.4693 17.2633C23.7078 17.2633 23.0898 16.6454 23.0898 15.8839C23.0898 15.1238 23.7078 14.5059 24.4693 14.5059C25.2293 14.5059 25.8473 15.1238 25.8473 15.8839Z" fill="#AE2828"/>
<path opacity="0.55" d="M32.9102 15.8839C32.9102 16.6454 32.2937 17.2633 31.5322 17.2633C30.7707 17.2633 30.1542 16.6454 30.1542 15.8839C30.1542 15.1238 30.7707 14.5059 31.5322 14.5059C32.2937 14.5059 32.9102 15.1238 32.9102 15.8839Z" fill="#AE2828"/>
<path d="M21.15 11.9782C20.6686 11.5292 19.9113 11.57 19.4792 12.0655C18.8612 12.7735 18.8148 13.8151 19.368 14.5766L20.2505 15.7927C20.6249 16.3079 21.2443 16.588 21.8777 16.526L22.4041 16.474L21.15 11.9782Z" fill="#C2968E"/>
<path d="M34.8508 11.9782C35.3322 11.5292 36.0881 11.57 36.5202 12.0655C37.1381 12.7735 37.1846 13.8151 36.6328 14.5766L35.7503 15.7927C35.3758 16.3079 34.7565 16.588 34.1217 16.526L33.5967 16.474L34.8508 11.9782Z" fill="#C2968E"/>
<path d="M23.2342 9.5293C23.2342 9.5293 23.4707 11.7293 22.187 13.5366L21.8084 15.9295L20.664 13.2453C20.3107 12.4162 20.246 11.4928 20.4796 10.623L20.747 9.63486L23.2342 9.5293Z" fill="#25232D"/>
<path d="M32.7653 9.5293C32.7653 9.5293 32.5303 11.7293 33.8126 13.5366L34.1926 15.9295L35.337 13.2453C35.6903 12.4162 35.755 11.4928 35.5199 10.623L35.2539 9.63486L32.7653 9.5293Z" fill="#25232D"/>
<path d="M26.0401 13.0702C26.0401 13.3573 25.8064 13.5896 25.5193 13.5896C25.2321 13.5896 24.9999 13.3573 24.9999 13.0702C24.9999 12.783 25.2321 12.5508 25.5193 12.5508C25.8064 12.5508 26.0401 12.783 26.0401 13.0702Z" fill="#25232D"/>
<path d="M30.9329 13.0702C30.9329 13.3573 30.7006 13.5896 30.4135 13.5896C30.1264 13.5896 29.8927 13.3573 29.8927 13.0702C29.8927 12.783 30.1264 12.5508 30.4135 12.5508C30.7006 12.5508 30.9329 12.783 30.9329 13.0702Z" fill="#25232D"/>
<path d="M26.5593 11.9773C25.1067 11.5761 23.9623 11.9702 23.9511 11.9744L23.8525 11.6957C23.9018 11.6774 25.0926 11.2664 26.6381 11.6929L26.5593 11.9773Z" fill="#25232D"/>
<path d="M29.4411 11.9779L29.3623 11.6936C30.9106 11.2657 32.1 11.6781 32.1493 11.6964L32.0508 11.9751C32.0395 11.9708 30.8937 11.5767 29.4411 11.9779Z" fill="#25232D"/>
<path d="M28.5637 15.837H27.5812C27.3912 15.837 27.2124 15.7511 27.0928 15.6019C26.9788 15.4598 26.9365 15.2782 26.9746 15.1036C27.2293 13.9537 27.8655 13.1077 27.9922 12.9458L27.7881 11.7522C27.7811 11.7128 27.8092 11.6748 27.8487 11.6678C27.8895 11.6621 27.9275 11.6875 27.9345 11.7283L28.1442 12.9529C28.1471 12.9754 28.1419 12.9956 28.1288 13.0134C28.1203 13.0218 27.3884 13.9185 27.1181 15.136C27.09 15.2655 27.1224 15.402 27.2082 15.509C27.2997 15.623 27.4362 15.6892 27.5812 15.6892H28.5637C28.6045 15.6892 28.6369 15.7216 28.6369 15.7624C28.6369 15.8032 28.6045 15.837 28.5637 15.837Z" fill="#25232D"/>
<path d="M30.5343 16.0156C29.991 15.8355 29.4167 15.7637 28.8424 15.7637H28.0007H27.1576C26.5847 15.7637 26.0104 15.8355 25.4657 16.0156C25.0392 16.1564 24.5817 16.3717 24.265 16.6941C24.265 16.6941 25.8682 17.6231 28.0007 17.6231C30.1318 17.6231 31.7364 16.6941 31.7364 16.6941C31.4197 16.3717 30.9608 16.1564 30.5343 16.0156Z" fill="#25232D"/>
<path d="M36.8293 7.17295C36.712 7.11571 36.5895 7.05941 36.4619 7.00405L36.3521 4.97856C36.3296 4.55347 35.9918 4.2058 35.5526 4.15513L34.9445 4.08616C32.6629 1.12183 28.0742 0.0182997 28.0038 0.00140894V0C28.0029 0 28.002 0 28.001 0C28.0001 0 27.9987 0 27.9968 0V0.00140894C27.9278 0.0182997 23.3378 1.12183 21.0575 4.08616L20.448 4.15513C20.0103 4.2058 19.6725 4.55347 19.6499 4.97856L19.5387 7.00405C19.4121 7.05941 19.2896 7.11571 19.1714 7.17295C18.7688 7.37001 18.5605 7.81903 18.6773 8.25256C18.8448 8.86766 19.1151 9.79103 19.4444 10.6454C19.6021 11.0564 20.0722 11.2464 20.4776 11.0747C21.6177 10.5919 24.1246 9.70657 28.001 9.27163C31.876 9.70657 34.3843 10.5919 35.5245 11.0747C35.9298 11.2464 36.3985 11.0564 36.5576 10.6454C36.887 9.79103 37.1572 8.86766 37.3233 8.25256C37.4416 7.81903 37.2332 7.37001 36.8293 7.17295Z" fill="#4A5C42"/>
<path d="M33.0119 8.9273C32.4615 8.86959 29.1608 9.12436 28.001 9.27216C28.7376 9.35567 29.4245 9.45279 30.0617 9.56352C30.8105 9.39039 31.9633 9.12999 33.0119 8.9273Z" fill="#25232D"/>
<path d="M36.4151 6.1312C34.712 5.75397 30.1261 4.75601 27.7656 4.72363C30.5062 5.16842 35.3355 6.53095 36.4616 7.00389L36.4151 6.1312Z" fill="#25232D"/>
<path d="M34.0265 3.09375C31.78 3.29925 25.8401 4.66882 23.9019 5.86525C26.2187 4.90951 33.5015 3.96503 34.9442 4.08749C34.6683 3.72856 34.3572 3.39919 34.0265 3.09375Z" fill="#25232D"/>
<path d="M13.135 29.9434C9.5767 31.0807 3.31303 45.5673 0.355732 54.6447C-0.374795 56.8856 0.0348067 59.3474 1.44659 61.2152C3.56357 64.0121 11.6374 61.8655 11.6374 61.8655L10.7956 50.1532L13.135 29.9434Z" fill="#DF8700"/>
<path d="M42.8647 29.9434C46.4231 31.0807 52.6881 46.8637 55.6454 55.9411C56.3746 58.1819 55.9664 60.6452 54.5546 62.5116C52.4376 65.3098 44.3638 63.1619 44.3638 63.1619L45.2041 50.1532L42.8647 29.9434Z" fill="#DF8700"/>
<path d="M10.3203 49.3308C10.3203 49.3308 13.6689 32.4682 13.6267 32.8229C13.5845 33.1776 12.4471 48.6031 12.4471 48.6031L10.3203 49.3308Z" fill="#25232D"/>
<path d="M45.6794 49.3308C45.6794 49.3308 42.3322 32.4682 42.3744 32.8229C42.4166 33.1776 43.5526 48.6031 43.5526 48.6031L45.6794 49.3308Z" fill="#25232D"/>
</g>
<defs>
<clipPath id="clip0_40002625_1148">
<rect width="56" height="56" fill="white"/>
</clipPath>
</defs>
</svg>
