<svg width="16" height="16" viewBox="0 0 16 16" fill="none" xmlns="http://www.w3.org/2000/svg">
<g clip-path="url(#clip0_40005161_16632)">
<path d="M14.4242 13.4301C13.8424 13.0907 13.6485 12.9452 14.0364 11.9513C14.1333 11.7089 14.4 11.0058 14.0121 10.4967C16.5818 7.58764 15.5636 5.64825 12.9697 5.30885C12.1212 5.18764 11.0061 5.38158 10.6424 6.08461C10.497 6.35128 10.4727 6.35128 9.98788 6.15734L9.79394 6.06037C9.35757 5.86643 8.82424 6.1331 8.29091 6.44825C8.87273 5.47855 9.33333 4.48461 9.33333 3.75734C9.33333 1.81795 7.75757 0.242188 5.79394 0.242188C3.85454 0.242188 2.25454 1.81795 2.25454 3.78158C2.25454 4.33916 2.52121 5.04219 2.90909 5.76946C2.08485 5.35734 1.52727 5.28461 1.13939 5.55128C0.242421 6.1331 0.993937 8.1937 0.872725 8.67855C0.581815 8.84825 0.436361 9.1634 0.509088 9.43007C0.6303 9.76946 0.703028 10.3028 1.18788 10.424C2.30303 10.6422 2.76363 12.1937 2.93333 13.0664C3.2 14.3513 3.05454 14.5937 5.09091 14.9089C6.37575 15.1028 8.04848 14.9573 9.16363 15.3937C10.3758 15.8786 12.097 15.8301 13.3818 15.7089C14.8848 15.5392 15.4424 14.6422 15.0303 13.9876C14.9091 13.721 14.6667 13.5755 14.4242 13.4301ZM5.79394 0.702794C7.49091 0.702794 8.84848 2.08461 8.84848 3.75734C8.84848 5.1634 6.66666 8.02401 5.79394 9.11491C4.89697 8.02401 2.73939 5.18764 2.73939 3.75734C2.73939 2.08461 4.12121 0.702794 5.79394 0.702794ZM5.62424 9.64825C5.67272 9.69673 5.74545 9.72097 5.79394 9.72097C5.86666 9.72097 5.93939 9.69673 5.96363 9.64825C6.01212 9.59976 6.32727 9.21188 6.73939 8.67855C7.63636 8.84825 8.12121 9.21188 8.12121 9.50279C8.12121 9.93916 7.12727 10.424 5.76969 10.424C4.41212 10.424 3.41818 9.93916 3.41818 9.50279C3.41818 9.21188 3.90303 8.84825 4.8 8.67855C5.2606 9.21188 5.57576 9.59976 5.62424 9.64825ZM13.3818 15.1998C12.1939 15.321 10.5455 15.3695 9.38182 14.9089C8.14545 14.424 6.49697 14.6179 5.21212 14.3998C3.44242 14.1089 3.6606 14.0604 3.44242 12.921C3.2 11.6846 2.64242 10.1816 1.33333 9.91492C1.16363 9.86643 1.06666 9.45431 0.993937 9.23613C0.969694 9.21188 1.04242 9.11491 1.16363 9.04219C1.81818 8.70279 0.751512 6.37552 1.4303 5.91492C1.6 5.7937 2.08485 5.74522 3.39394 6.54522C3.75757 7.15128 4.16969 7.7331 4.55757 8.24219C3.61212 8.46037 3.00606 8.94522 3.00606 9.47855C3.00606 10.2786 4.21818 10.8604 5.81818 10.8604C7.41818 10.8604 8.6303 10.2543 8.6303 9.47855C8.6303 8.92098 8.02424 8.46037 7.07879 8.24219C7.27273 7.99976 7.46666 7.70885 7.6606 7.41795C7.78182 7.34522 7.90303 7.27249 8.02424 7.17552C8.55757 6.81188 9.28485 6.32704 9.62424 6.47249L9.79394 6.54522C10.2788 6.73916 10.6909 6.90885 11.0303 6.25431C11.2727 5.7937 12.1697 5.62401 12.8727 5.72098C15.1273 6.01188 16 7.5634 13.503 10.2786C13.4545 10.327 13.4303 10.3998 13.4545 10.4482C13.4545 10.521 13.4788 10.5695 13.5515 10.6179C13.7939 10.8361 13.8182 11.1755 13.6 11.7331C13.1151 12.9937 13.4303 13.3573 14.2061 13.7937C14.4 13.9149 14.6182 14.0119 14.6909 14.1573C14.9818 14.6907 14.1818 15.127 13.3818 15.1998Z" fill="#857E7B" stroke="#857E7B" stroke-width="0.666667"/>
<path d="M5.79385 5.38164C6.66657 5.38164 7.39385 4.65437 7.39385 3.78164C7.39385 2.88467 6.66657 2.18164 5.79385 2.18164C4.89688 2.18164 4.19385 2.90891 4.19385 3.78164C4.19385 4.65437 4.92112 5.38164 5.79385 5.38164ZM5.79385 2.64225C6.42415 2.64225 6.93324 3.15134 6.93324 3.78164C6.93324 4.41194 6.42415 4.92103 5.79385 4.92103C5.16354 4.92103 4.65445 4.41194 4.65445 3.78164C4.65445 3.15134 5.18779 2.64225 5.79385 2.64225Z" fill="#857E7B" stroke="#857E7B" stroke-width="0.666667"/>
</g>
<defs>
<clipPath id="clip0_40005161_16632">
<rect width="16" height="16" fill="white"/>
</clipPath>
</defs>
</svg>
