<svg width="65" height="64" viewBox="0 0 65 64" fill="none" xmlns="http://www.w3.org/2000/svg">
<path d="M53.8332 34.6666C53.8332 47.9999 44.4999 54.6666 33.4065 58.5332C32.8256 58.7301 32.1946 58.7207 31.6199 58.5066C20.4998 54.6666 11.1665 47.9999 11.1665 34.6666V15.9999C11.1665 15.2927 11.4475 14.6144 11.9476 14.1143C12.4477 13.6142 13.1259 13.3332 13.8332 13.3332C19.1665 13.3332 25.8332 10.1332 30.4732 6.0799C31.0381 5.59723 31.7568 5.33203 32.4999 5.33203C33.2429 5.33203 33.9616 5.59723 34.5265 6.0799C39.1932 10.1599 45.8332 13.3332 51.1665 13.3332C51.8738 13.3332 52.5521 13.6142 53.0522 14.1143C53.5522 14.6144 53.8332 15.2927 53.8332 15.9999V34.6666Z" stroke="#FC8019" stroke-width="5.33333" stroke-linecap="round" stroke-linejoin="round"/>
<path d="M24.5 32.0001L29.8333 37.3334L40.5 26.6667" stroke="#261102" stroke-width="5.33333" stroke-linecap="round" stroke-linejoin="round"/>
</svg>
