<svg width="16" height="16" viewBox="0 0 16 16" fill="none" xmlns="http://www.w3.org/2000/svg">
<path fill-rule="evenodd" clip-rule="evenodd" d="M8.00067 10.209C5.422 10.209 3.22003 10.599 3.22003 12.1603C3.22003 13.7217 5.408 14.125 8.00067 14.125C10.5787 14.125 12.78 13.735 12.78 12.1743C12.78 10.6136 10.5927 10.209 8.00067 10.209Z" stroke="#857E7B" stroke-width="1.2" stroke-linecap="round" stroke-linejoin="round"/>
<path fill-rule="evenodd" clip-rule="evenodd" d="M8.00068 7.98263C8.80951 7.97971 9.58414 7.65598 10.1545 7.0825C10.7249 6.50902 11.0445 5.73265 11.043 4.92381C11.0416 4.11497 10.7192 3.33975 10.1468 2.76833C9.5743 2.19691 8.79853 1.87598 7.98969 1.87598C7.18085 1.87598 6.40504 2.19691 5.83259 2.76833C5.26013 3.33975 4.9378 4.11497 4.93635 4.92381C4.93489 5.73265 5.25442 6.50902 5.82481 7.0825C6.3952 7.65598 7.16987 7.97971 7.9787 7.98263H8.00068Z" stroke="#857E7B" stroke-width="1.2" stroke-linecap="round" stroke-linejoin="round"/>
</svg>
