<svg width="9" height="9" viewBox="0 0 9 9" fill="none" xmlns="http://www.w3.org/2000/svg">
<path d="M8.19336 0.00195312C8.41124 -0.0144749 8.62576 0.0651896 8.78027 0.219727C8.93486 0.37427 9.01445 0.588734 8.99805 0.806641L8.99707 0.811523L8.99609 0.822266L8.99316 0.862305C8.99027 0.896357 8.98623 0.945478 8.98047 1.00781C8.96867 1.13324 8.9501 1.31304 8.9248 1.53125C8.8744 1.96669 8.79504 2.56238 8.67676 3.19824C8.55906 3.8311 8.39948 4.5211 8.1875 5.13965C7.98343 5.73494 7.69895 6.36149 7.28027 6.78027C6.56614 7.4944 5.67261 7.87883 4.75 7.87891C4.06252 7.87891 3.39081 7.66587 2.79785 7.26172L1.28027 8.78027C0.987383 9.07317 0.512617 9.07317 0.219727 8.78027C-0.0730905 8.48737 -0.0731391 8.0126 0.219727 7.71973L1.7373 6.20117C1.33362 5.60849 1.12109 4.93709 1.12109 4.25C1.12115 3.32737 1.50562 2.43384 2.21973 1.71973C2.63853 1.30106 3.26507 1.01653 3.86035 0.8125C4.47889 0.600515 5.16891 0.440976 5.80176 0.323242C6.43759 0.204934 7.03336 0.125606 7.46875 0.0751953C7.68695 0.0499253 7.86669 0.0312513 7.99219 0.0195312C8.05451 0.0137077 8.10369 0.00969861 8.1377 0.00683594L8.17773 0.00390625L8.18848 0.00292969L8.19336 0.00195312Z" fill="#DF8700"/>
</svg>
