<svg width="19" height="22" viewBox="0 0 19 22" fill="none" xmlns="http://www.w3.org/2000/svg">
<path fill-rule="evenodd" clip-rule="evenodd" d="M9.5 16.848C15.139 16.848 17.748 16.124 18 13.221C18 10.321 16.181 10.505 16.181 6.94501C16.181 4.16401 13.545 1 9.5 1C5.455 1 2.819 4.16401 2.819 6.94501C2.819 10.505 1 10.319 1 13.221C1.253 16.135 3.862 16.848 9.5 16.848Z" stroke="#353231" stroke-width="1.5" stroke-linecap="round" stroke-linejoin="round"/>
<path d="M11.8885 19.8574C11.5916 20.2151 11.2196 20.5029 10.7988 20.7005C10.378 20.8981 9.91889 21.0005 9.45404 21.0005C8.9892 21.0005 8.53005 20.8981 8.10928 20.7005C7.68851 20.5029 7.31644 20.2151 7.01953 19.8574" stroke="#353231" stroke-width="1.5" stroke-linecap="round" stroke-linejoin="round"/>
</svg>
