<svg width="26" height="26" viewBox="0 0 26 26" fill="none" xmlns="http://www.w3.org/2000/svg">
<mask id="mask0_40000991_173" style="mask-type:luminance" maskUnits="userSpaceOnUse" x="0" y="0" width="26" height="26">
<path d="M25.5561 0.634766H0.404053V25.7868H25.5561V0.634766Z" fill="white"/>
</mask>
<g mask="url(#mask0_40000991_173)">
<path d="M21.5631 15.3697L20.3788 13.3995C20.1168 12.9698 19.8863 12.1419 19.8863 11.6388V9.67904C19.8863 5.8748 16.7947 2.7832 13.0009 2.7832C9.19664 2.79368 6.10504 5.8748 6.10504 9.67904V11.6283C6.10504 12.1314 5.87448 12.9593 5.62296 13.389L4.43872 15.3592C3.98808 16.1243 3.88328 16.9941 4.16624 17.7487C4.4492 18.5137 5.08848 19.1215 5.92688 19.394C7.05872 19.7713 8.20104 20.0438 9.36432 20.2429C9.4796 20.2639 9.59488 20.2743 9.71016 20.2953C9.85688 20.3163 10.0141 20.3372 10.1713 20.3582C10.4438 20.4001 10.7162 20.4315 10.9992 20.4525C11.6595 20.5154 12.3302 20.5468 13.0009 20.5468C13.6612 20.5468 14.3214 20.5154 14.9712 20.4525C15.2122 20.4315 15.4532 20.4106 15.6838 20.3791C15.8724 20.3582 16.0611 20.3372 16.2497 20.3058C16.365 20.2953 16.4803 20.2743 16.5956 20.2534C17.7693 20.0647 18.9326 19.7713 20.0644 19.394C20.8714 19.1215 21.4897 18.5137 21.7832 17.7382C22.0766 16.9522 21.9928 16.0928 21.5631 15.3697ZM13.766 11.1148C13.766 11.555 13.4096 11.9113 12.9695 11.9113C12.5293 11.9113 12.173 11.555 12.173 11.1148V7.866C12.173 7.42584 12.5293 7.06952 12.9695 7.06952C13.4096 7.06952 13.766 7.42584 13.766 7.866V11.1148Z" fill="#FC8019"/>
<path d="M15.9458 21.6042C15.5057 22.8199 14.3424 23.6897 12.98 23.6897C12.1521 23.6897 11.3346 23.3544 10.7583 22.757C10.4229 22.4426 10.1714 22.0234 10.0247 21.5938C10.1609 21.6147 10.2971 21.6252 10.4439 21.6461C10.6849 21.6776 10.9364 21.709 11.1879 21.73C11.7853 21.7824 12.3931 21.8138 13.0009 21.8138C13.5983 21.8138 14.1957 21.7824 14.7825 21.73C15.0026 21.709 15.2227 21.6985 15.4323 21.6671C15.6 21.6461 15.7677 21.6252 15.9458 21.6042Z" fill="#FC8019"/>
</g>
</svg>
