<svg width="17" height="17" viewBox="0 0 17 17" fill="none" xmlns="http://www.w3.org/2000/svg">
<path d="M8.45801 0.0146484C9.1169 0.0146484 9.65119 0.549155 9.65137 1.20801V7.26465H15.708C16.3669 7.26465 16.9012 7.79915 16.9014 8.45801C16.9014 9.11701 16.367 9.65137 15.708 9.65137H9.65137V15.708C9.65137 16.367 9.11701 16.9014 8.45801 16.9014C7.79915 16.9012 7.26465 16.3669 7.26465 15.708V9.65137H1.20801C0.549155 9.65119 0.0146484 9.1169 0.0146484 8.45801C0.0148239 7.79926 0.549263 7.26482 1.20801 7.26465H7.26465V1.20801C7.26482 0.549263 7.79926 0.0148239 8.45801 0.0146484Z" fill="white" stroke="white" stroke-width="0.0302083"/>
</svg>
