<svg width="28" height="28" viewBox="0 0 28 28" fill="none" xmlns="http://www.w3.org/2000/svg">
<rect width="28" height="28" rx="8" fill="#5EA21F"/>
<path d="M13.1146 14.8852L8.68744 14.8852C8.19843 14.8852 7.802 14.4888 7.802 13.9998C7.802 13.5108 8.19842 13.1144 8.68744 13.1144L13.1146 13.1144L13.1146 8.68719C13.1146 8.19818 13.511 7.80176 14 7.80176C14.4891 7.80176 14.8855 8.19818 14.8855 8.68719L14.8855 13.1144L19.3127 13.1144C19.8017 13.1144 20.1981 13.5108 20.1981 13.9998C20.1981 14.4888 19.8017 14.8852 19.3127 14.8852L14.8855 14.8852V19.3124C14.8855 19.8014 14.4891 20.1978 14 20.1978C13.511 20.1978 13.1146 19.8014 13.1146 19.3124V14.8852Z" fill="white"/>
</svg>
