<svg width="24" height="24" viewBox="0 0 24 24" fill="none" xmlns="http://www.w3.org/2000/svg">
<mask id="path-1-outside-1_40003055_9566" maskUnits="userSpaceOnUse" x="1" y="1" width="22" height="22" fill="black">
<rect fill="white" x="1" y="1" width="22" height="22"/>
<path d="M12 2C17.514 2 22 6.486 22 12C22 17.514 17.514 22 12 22C6.486 22 2 17.514 2 12C2 6.486 6.486 2 12 2ZM12 2.66699C6.8535 2.66699 2.66699 6.8535 2.66699 12C2.66699 17.1465 6.8535 21.333 12 21.333C17.1465 21.333 21.333 17.1465 21.333 12C21.333 6.8535 17.1465 2.66699 12 2.66699ZM12 4.00098C16.4111 4.00098 20 7.58985 20 12.001C20 16.4121 16.4111 20.001 12 20.001C7.58888 20.001 4 16.4121 4 12.001C4 7.58985 7.58888 4.00098 12 4.00098ZM16.5566 10.833C15.5418 11.1715 14.4442 11.1185 13.4668 10.6846C12.534 10.27 11.4657 10.27 10.5342 10.6846L10.4072 10.7402C9.85844 10.9842 9.26445 11.1083 8.66895 11.1084C8.29932 11.1084 7.92869 11.0599 7.56836 10.9639L4.87988 10.2471C4.8103 10.5295 4.75836 10.8191 4.72266 11.1133L5.11426 11.2432C8.69404 12.4362 11.2115 15.5899 11.6055 19.3232C11.7361 19.3302 11.8676 19.334 12 19.334C12.1324 19.334 12.2639 19.3302 12.3945 19.3232C12.7885 15.5899 15.3059 12.4362 18.8857 11.2432L19.2773 11.1133C19.2312 10.7329 19.156 10.3612 19.0537 10.001L16.5566 10.833ZM4.66699 12.001C4.66699 15.6802 7.39082 18.7342 10.9277 19.2549C10.5143 15.8423 8.18972 12.9714 4.90332 11.876L4.67188 11.7988C4.67 11.8662 4.66699 11.9332 4.66699 12.001ZM19.0967 11.876C15.8103 12.9714 13.4857 15.8423 13.0723 19.2549C16.6091 18.7342 19.333 15.6802 19.333 12.001C19.333 11.9332 19.33 11.8662 19.3281 11.7988L19.0967 11.876ZM12 11C13.1029 11 14 11.8971 14 13C14 14.1029 13.1029 15 12 15C10.8971 15 10 14.1029 10 13C10 11.8971 10.8971 11 12 11ZM12 11.667C11.2648 11.667 10.667 12.2647 10.667 13C10.667 13.7353 11.2648 14.333 12 14.333C12.7352 14.333 13.333 13.7353 13.333 13C13.333 12.2647 12.7352 11.667 12 11.667ZM12 4.66797C8.79421 4.66797 6.06384 6.73656 5.06934 9.6084L7.74023 10.3203C8.5348 10.5322 9.38609 10.4648 10.1367 10.1309L10.2637 10.0752C11.3671 9.58444 12.6336 9.58436 13.7373 10.0752C14.5629 10.4422 15.4892 10.4866 16.3457 10.2012L18.8428 9.36914C17.7825 6.62247 15.116 4.66797 12 4.66797Z"/>
</mask>
<path d="M12 2C17.514 2 22 6.486 22 12C22 17.514 17.514 22 12 22C6.486 22 2 17.514 2 12C2 6.486 6.486 2 12 2ZM12 2.66699C6.8535 2.66699 2.66699 6.8535 2.66699 12C2.66699 17.1465 6.8535 21.333 12 21.333C17.1465 21.333 21.333 17.1465 21.333 12C21.333 6.8535 17.1465 2.66699 12 2.66699ZM12 4.00098C16.4111 4.00098 20 7.58985 20 12.001C20 16.4121 16.4111 20.001 12 20.001C7.58888 20.001 4 16.4121 4 12.001C4 7.58985 7.58888 4.00098 12 4.00098ZM16.5566 10.833C15.5418 11.1715 14.4442 11.1185 13.4668 10.6846C12.534 10.27 11.4657 10.27 10.5342 10.6846L10.4072 10.7402C9.85844 10.9842 9.26445 11.1083 8.66895 11.1084C8.29932 11.1084 7.92869 11.0599 7.56836 10.9639L4.87988 10.2471C4.8103 10.5295 4.75836 10.8191 4.72266 11.1133L5.11426 11.2432C8.69404 12.4362 11.2115 15.5899 11.6055 19.3232C11.7361 19.3302 11.8676 19.334 12 19.334C12.1324 19.334 12.2639 19.3302 12.3945 19.3232C12.7885 15.5899 15.3059 12.4362 18.8857 11.2432L19.2773 11.1133C19.2312 10.7329 19.156 10.3612 19.0537 10.001L16.5566 10.833ZM4.66699 12.001C4.66699 15.6802 7.39082 18.7342 10.9277 19.2549C10.5143 15.8423 8.18972 12.9714 4.90332 11.876L4.67188 11.7988C4.67 11.8662 4.66699 11.9332 4.66699 12.001ZM19.0967 11.876C15.8103 12.9714 13.4857 15.8423 13.0723 19.2549C16.6091 18.7342 19.333 15.6802 19.333 12.001C19.333 11.9332 19.33 11.8662 19.3281 11.7988L19.0967 11.876ZM12 11C13.1029 11 14 11.8971 14 13C14 14.1029 13.1029 15 12 15C10.8971 15 10 14.1029 10 13C10 11.8971 10.8971 11 12 11ZM12 11.667C11.2648 11.667 10.667 12.2647 10.667 13C10.667 13.7353 11.2648 14.333 12 14.333C12.7352 14.333 13.333 13.7353 13.333 13C13.333 12.2647 12.7352 11.667 12 11.667ZM12 4.66797C8.79421 4.66797 6.06384 6.73656 5.06934 9.6084L7.74023 10.3203C8.5348 10.5322 9.38609 10.4648 10.1367 10.1309L10.2637 10.0752C11.3671 9.58444 12.6336 9.58436 13.7373 10.0752C14.5629 10.4422 15.4892 10.4866 16.3457 10.2012L18.8428 9.36914C17.7825 6.62247 15.116 4.66797 12 4.66797Z" fill="#FC8019"/>
<path d="M16.5566 10.833L16.4934 10.6433L16.4934 10.6433L16.5566 10.833ZM13.4668 10.6846L13.3856 10.8673L13.3856 10.8674L13.4668 10.6846ZM10.5342 10.6846L10.6145 10.8677L10.6155 10.8673L10.5342 10.6846ZM10.4072 10.7402L10.3269 10.5571L10.326 10.5575L10.4072 10.7402ZM8.66895 11.1084V11.3084H8.66896L8.66895 11.1084ZM7.56836 10.9639L7.51684 11.1571L7.51685 11.1571L7.56836 10.9639ZM4.87988 10.2471L4.93141 10.0538L4.73445 10.0013L4.68569 10.1992L4.87988 10.2471ZM4.72266 11.1133L4.52411 11.0892L4.5044 11.2516L4.65969 11.3031L4.72266 11.1133ZM5.11426 11.2432L5.17749 11.0534L5.17722 11.0533L5.11426 11.2432ZM11.6055 19.3232L11.4066 19.3442L11.4245 19.5139L11.5948 19.523L11.6055 19.3232ZM12.3945 19.3232L12.4052 19.523L12.5755 19.5139L12.5934 19.3442L12.3945 19.3232ZM18.8857 11.2432L18.8228 11.0533L18.8225 11.0534L18.8857 11.2432ZM19.2773 11.1133L19.3403 11.3031L19.4956 11.2516L19.4759 11.0892L19.2773 11.1133ZM19.0537 10.001L19.2461 9.94634L19.1889 9.7451L18.9905 9.81123L19.0537 10.001ZM10.9277 19.2549L10.8986 19.4528L11.1578 19.4909L11.1263 19.2308L10.9277 19.2549ZM4.90332 11.876L4.84007 12.0657H4.84008L4.90332 11.876ZM4.67188 11.7988L4.73512 11.6091L4.47946 11.5239L4.47195 11.7933L4.67188 11.7988ZM19.0967 11.876L19.1599 12.0657L19.0967 11.876ZM13.0723 19.2549L12.8737 19.2308L12.8422 19.4909L13.1014 19.4528L13.0723 19.2549ZM19.333 12.001L19.533 12.001V12.001H19.333ZM19.3281 11.7988L19.5281 11.7934L19.5207 11.5238L19.2649 11.6091L19.3281 11.7988ZM5.06934 9.6084L4.88035 9.54295L4.80995 9.74624L5.01783 9.80165L5.06934 9.6084ZM7.74023 10.3203L7.79177 10.1271L7.79174 10.1271L7.74023 10.3203ZM10.1367 10.1309L10.0564 9.94769L10.0554 9.94813L10.1367 10.1309ZM10.2637 10.0752L10.344 10.2584L10.3449 10.2579L10.2637 10.0752ZM13.7373 10.0752L13.656 10.2579L13.6561 10.258L13.7373 10.0752ZM16.3457 10.2012L16.2825 10.0114L16.2825 10.0114L16.3457 10.2012ZM18.8428 9.36914L18.906 9.55888L19.1048 9.49263L19.0294 9.29712L18.8428 9.36914ZM12 2V2.2C17.4035 2.2 21.8 6.59646 21.8 12H22H22.2C22.2 6.37554 17.6245 1.8 12 1.8V2ZM22 12H21.8C21.8 17.4035 17.4035 21.8 12 21.8V22V22.2C17.6245 22.2 22.2 17.6245 22.2 12H22ZM12 22V21.8C6.59646 21.8 2.2 17.4035 2.2 12H2H1.8C1.8 17.6245 6.37554 22.2 12 22.2V22ZM2 12H2.2C2.2 6.59646 6.59646 2.2 12 2.2V2V1.8C6.37554 1.8 1.8 6.37554 1.8 12H2ZM12 2.66699V2.46699C6.74304 2.46699 2.46699 6.74304 2.46699 12H2.66699H2.86699C2.86699 6.96396 6.96396 2.86699 12 2.86699V2.66699ZM2.66699 12H2.46699C2.46699 17.257 6.74304 21.533 12 21.533V21.333V21.133C6.96396 21.133 2.86699 17.036 2.86699 12H2.66699ZM12 21.333V21.533C17.257 21.533 21.533 17.257 21.533 12H21.333H21.133C21.133 17.036 17.036 21.133 12 21.133V21.333ZM21.333 12H21.533C21.533 6.74304 17.257 2.46699 12 2.46699V2.66699V2.86699C17.036 2.86699 21.133 6.96396 21.133 12H21.333ZM12 4.00098V4.20098C16.3007 4.20098 19.8 7.70031 19.8 12.001H20H20.2C20.2 7.47939 16.5216 3.80098 12 3.80098V4.00098ZM20 12.001H19.8C19.8 16.3016 16.3007 19.801 12 19.801V20.001V20.201C16.5216 20.201 20.2 16.5226 20.2 12.001H20ZM12 20.001V19.801C7.69933 19.801 4.2 16.3016 4.2 12.001H4H3.8C3.8 16.5226 7.47842 20.201 12 20.201V20.001ZM4 12.001H4.2C4.2 7.70031 7.69933 4.20098 12 4.20098V4.00098V3.80098C7.47842 3.80098 3.8 7.47939 3.8 12.001H4ZM16.5566 10.833L16.4934 10.6433C15.5259 10.966 14.4798 10.9155 13.548 10.5018L13.4668 10.6846L13.3856 10.8674C14.4086 11.3215 15.5577 11.3771 16.6199 11.0227L16.5566 10.833ZM13.4668 10.6846L13.548 10.5018C12.5636 10.0643 11.4362 10.0642 10.4529 10.5019L10.5342 10.6846L10.6155 10.8673C11.4952 10.4758 12.5045 10.4757 13.3856 10.8673L13.4668 10.6846ZM10.5342 10.6846L10.4539 10.5014L10.3269 10.5571L10.4072 10.7402L10.4875 10.9234L10.6145 10.8677L10.5342 10.6846ZM10.4072 10.7402L10.326 10.5575C9.80306 10.79 9.23678 10.9084 8.66893 10.9084L8.66895 11.1084L8.66896 11.3084C9.29213 11.3083 9.91382 11.1785 10.4885 10.923L10.4072 10.7402ZM8.66895 11.1084V10.9084C8.31677 10.9084 7.96345 10.8622 7.61987 10.7706L7.56836 10.9639L7.51685 11.1571C7.89393 11.2576 8.28187 11.3084 8.66895 11.3084V11.1084ZM7.56836 10.9639L7.61988 10.7706L4.93141 10.0538L4.87988 10.2471L4.82836 10.4403L7.51684 11.1571L7.56836 10.9639ZM4.87988 10.2471L4.68569 10.1992C4.61405 10.4901 4.56072 10.7876 4.52411 11.0892L4.72266 11.1133L4.9212 11.1374C4.95601 10.8506 5.00655 10.569 5.07408 10.2949L4.87988 10.2471ZM4.72266 11.1133L4.65969 11.3031L5.0513 11.433L5.11426 11.2432L5.17722 11.0533L4.78562 10.9235L4.72266 11.1133ZM5.11426 11.2432L5.05102 11.4329C8.55605 12.6011 11.0208 15.6885 11.4066 19.3442L11.6055 19.3232L11.8044 19.3023C11.4022 15.4913 8.83203 12.2714 5.17749 11.0534L5.11426 11.2432ZM11.6055 19.3232L11.5948 19.523C11.7288 19.5301 11.8638 19.534 12 19.534V19.334V19.134C11.8714 19.134 11.7435 19.1303 11.6161 19.1235L11.6055 19.3232ZM12 19.334V19.534C12.1362 19.534 12.2713 19.5301 12.4052 19.523L12.3945 19.3232L12.3839 19.1235C12.2566 19.1303 12.1286 19.134 12 19.134V19.334ZM12.3945 19.3232L12.5934 19.3442C12.9792 15.6885 15.4439 12.6011 18.949 11.4329L18.8857 11.2432L18.8225 11.0534C15.1679 12.2714 12.5978 15.4913 12.1956 19.3023L12.3945 19.3232ZM18.8857 11.2432L18.9487 11.433L19.3403 11.3031L19.2773 11.1133L19.2144 10.9235L18.8228 11.0533L18.8857 11.2432ZM19.2773 11.1133L19.4759 11.0892C19.4285 10.6985 19.3513 10.3166 19.2461 9.94634L19.0537 10.001L18.8613 10.0556C18.9608 10.4058 19.0339 10.7674 19.0788 11.1374L19.2773 11.1133ZM19.0537 10.001L18.9905 9.81123L16.4934 10.6433L16.5566 10.833L16.6199 11.0228L19.1169 10.1907L19.0537 10.001ZM4.66699 12.001H4.46699C4.46699 15.781 7.26515 18.9179 10.8986 19.4528L10.9277 19.2549L10.9569 19.057C7.51649 18.5506 4.86699 15.5794 4.86699 12.001H4.66699ZM10.9277 19.2549L11.1263 19.2308C10.7036 15.7419 8.32666 12.8063 4.96657 11.6862L4.90332 11.876L4.84008 12.0657C8.05277 13.1366 10.325 15.9427 10.7292 19.2789L10.9277 19.2549ZM4.90332 11.876L4.96657 11.6862L4.73512 11.6091L4.67188 11.7988L4.60863 11.9886L4.84007 12.0657L4.90332 11.876ZM4.67188 11.7988L4.47195 11.7933C4.4702 11.8561 4.46699 11.9295 4.46699 12.001H4.66699H4.86699C4.86699 11.9369 4.8698 11.8762 4.8718 11.8044L4.67188 11.7988ZM19.0967 11.876L19.0334 11.6862C15.6733 12.8063 13.2964 15.7419 12.8737 19.2308L13.0723 19.2549L13.2708 19.2789C13.675 15.9427 15.9472 13.1366 19.1599 12.0657L19.0967 11.876ZM13.0723 19.2549L13.1014 19.4528C16.7348 18.9179 19.533 15.781 19.533 12.001L19.333 12.001L19.133 12.001C19.133 15.5794 16.4835 18.5506 13.0431 19.057L13.0723 19.2549ZM19.333 12.001H19.533C19.533 11.9296 19.5298 11.8559 19.5281 11.7934L19.3281 11.7988L19.1282 11.8043C19.1302 11.8765 19.133 11.9368 19.133 12.001H19.333ZM19.3281 11.7988L19.2649 11.6091L19.0334 11.6862L19.0967 11.876L19.1599 12.0657L19.3914 11.9886L19.3281 11.7988ZM12 11V11.2C12.9924 11.2 13.8 12.0076 13.8 13H14H14.2C14.2 11.7867 13.2133 10.8 12 10.8V11ZM14 13H13.8C13.8 13.9924 12.9924 14.8 12 14.8V15V15.2C13.2133 15.2 14.2 14.2133 14.2 13H14ZM12 15V14.8C11.0076 14.8 10.2 13.9924 10.2 13H10H9.8C9.8 14.2133 10.7867 15.2 12 15.2V15ZM10 13H10.2C10.2 12.0076 11.0076 11.2 12 11.2V11V10.8C10.7867 10.8 9.8 11.7867 9.8 13H10ZM12 11.667V11.467C11.1543 11.467 10.467 12.1542 10.467 13H10.667H10.867C10.867 12.3751 11.3752 11.867 12 11.867V11.667ZM10.667 13H10.467C10.467 13.8458 11.1543 14.533 12 14.533V14.333V14.133C11.3752 14.133 10.867 13.6249 10.867 13H10.667ZM12 14.333V14.533C12.8457 14.533 13.533 13.8458 13.533 13H13.333H13.133C13.133 13.6249 12.6248 14.133 12 14.133V14.333ZM13.333 13H13.533C13.533 12.1542 12.8457 11.467 12 11.467V11.667V11.867C12.6248 11.867 13.133 12.3751 13.133 13H13.333ZM12 4.66797V4.46797C8.70608 4.46797 5.90178 6.59336 4.88035 9.54295L5.06934 9.6084L5.25832 9.67384C6.2259 6.87977 8.88234 4.86797 12 4.86797V4.66797ZM5.06934 9.6084L5.01783 9.80165L7.68872 10.5136L7.74023 10.3203L7.79174 10.1271L5.12085 9.41515L5.06934 9.6084ZM7.74023 10.3203L7.6887 10.5136C8.52743 10.7372 9.4256 10.6661 10.218 10.3136L10.1367 10.1309L10.0554 9.94813C9.34659 10.2635 8.54217 10.3272 7.79177 10.1271L7.74023 10.3203ZM10.1367 10.1309L10.217 10.314L10.344 10.2584L10.2637 10.0752L10.1834 9.89203L10.0564 9.94769L10.1367 10.1309ZM10.2637 10.0752L10.3449 10.2579C11.3966 9.79019 12.604 9.79011 13.656 10.2579L13.7373 10.0752L13.8186 9.89245C12.6631 9.37861 11.3376 9.37868 10.1824 9.89245L10.2637 10.0752ZM13.7373 10.0752L13.6561 10.258C14.5273 10.6452 15.5051 10.6921 16.4089 10.3909L16.3457 10.2012L16.2825 10.0114C15.4733 10.2811 14.5985 10.2392 13.8185 9.89244L13.7373 10.0752ZM16.3457 10.2012L16.4089 10.3909L18.906 9.55888L18.8428 9.36914L18.7796 9.1794L16.2825 10.0114L16.3457 10.2012ZM18.8428 9.36914L19.0294 9.29712C17.9404 6.47621 15.2017 4.46797 12 4.46797V4.66797V4.86797C15.0303 4.86797 17.6246 6.76874 18.6562 9.44117L18.8428 9.36914Z" fill="#FC8019" mask="url(#path-1-outside-1_40003055_9566)"/>
</svg>
