<svg width="26" height="26" viewBox="0 0 26 26" fill="none" xmlns="http://www.w3.org/2000/svg">
<g clip-path="url(#clip0_40000991_2451)">
<mask id="mask0_40000991_2451" style="mask-type:luminance" maskUnits="userSpaceOnUse" x="0" y="0" width="26" height="26">
<path d="M25.7721 0.634766H0.620117V25.7868H25.7721V0.634766Z" fill="white"/>
</mask>
<g mask="url(#mask0_40000991_2451)">
<path d="M13.1961 13.2105C16.09 13.2105 18.4361 10.8644 18.4361 7.97047C18.4361 5.0765 16.09 2.73047 13.1961 2.73047C10.3021 2.73047 7.95605 5.0765 7.95605 7.97047C7.95605 10.8644 10.3021 13.2105 13.1961 13.2105Z" fill="#FC8019"/>
<path d="M13.196 15.8301C7.94552 15.8301 3.66968 19.3514 3.66968 23.6901C3.66968 23.9835 3.90024 24.2141 4.19368 24.2141H22.1983C22.4917 24.2141 22.7223 23.9835 22.7223 23.6901C22.7223 19.3514 18.4465 15.8301 13.196 15.8301Z" fill="#FC8019"/>
</g>
</g>
<defs>
<clipPath id="clip0_40000991_2451">
<rect width="25.152" height="25.152" fill="white" transform="translate(0.620117 0.634766)"/>
</clipPath>
</defs>
</svg>
