<svg width="26" height="26" viewBox="0 0 26 26" fill="none" xmlns="http://www.w3.org/2000/svg">
<path d="M12.4479 22.6444C17.9465 22.6444 22.4039 18.187 22.4039 12.6884C22.4039 7.18987 17.9465 2.73242 12.4479 2.73242C6.94939 2.73242 2.49194 7.18987 2.49194 12.6884C2.49194 18.187 6.94939 22.6444 12.4479 22.6444Z" fill="#FC8019"/>
<path d="M22.7185 23.6928C22.5298 23.6928 22.3412 23.6194 22.205 23.4832L20.2557 21.5339C19.9727 21.251 19.9727 20.7898 20.2557 20.4964C20.5386 20.2134 20.9998 20.2134 21.2932 20.4964L23.2425 22.4457C23.5254 22.7286 23.5254 23.1898 23.2425 23.4832C23.0958 23.6194 22.9071 23.6928 22.7185 23.6928Z" fill="#FC8019"/>
</svg>
