<svg width="24" height="24" viewBox="0 0 24 24" fill="none" xmlns="http://www.w3.org/2000/svg">
<g clip-path="url(#clip0_40000825_21128)">
<path d="M21.6364 20.1456C20.7636 19.6365 20.4727 19.4183 21.0546 17.9274C21.2 17.5638 21.6 16.5092 21.0182 15.7456C24.8727 11.382 23.3455 8.47286 19.4545 7.96377C18.1818 7.78195 16.5091 8.07286 15.9636 9.12741C15.7455 9.52741 15.7091 9.52741 14.9818 9.2365L14.6909 9.09104C14.0364 8.80013 13.2364 9.20013 12.4364 9.67286C13.3091 8.21832 14 6.72741 14 5.6365C14 2.72741 11.6364 0.36377 8.69091 0.36377C5.78182 0.36377 3.38182 2.72741 3.38182 5.67286C3.38182 6.50922 3.78182 7.56377 4.36364 8.65468C3.12728 8.0365 2.29091 7.92741 1.70909 8.32741C0.36364 9.20013 1.49091 12.291 1.30909 13.0183C0.872731 13.2729 0.654549 13.7456 0.76364 14.1456C0.945458 14.6547 1.05455 15.4547 1.78182 15.6365C3.45455 15.9638 4.14546 18.291 4.4 19.6001C4.8 21.5274 4.58182 21.891 7.63637 22.3638C9.56364 22.6547 12.0727 22.4365 13.7455 23.091C15.5636 23.8183 18.1455 23.7456 20.0727 23.5638C22.3273 23.3092 23.1636 21.9638 22.5455 20.982C22.3636 20.582 22 20.3638 21.6364 20.1456ZM8.69091 1.05468C11.2364 1.05468 13.2727 3.12741 13.2727 5.6365C13.2727 7.74559 10 12.0365 8.69091 13.6729C7.34546 12.0365 4.10909 7.78195 4.10909 5.6365C4.10909 3.12741 6.18182 1.05468 8.69091 1.05468ZM8.43637 14.4729C8.50909 14.5456 8.61819 14.582 8.69091 14.582C8.8 14.582 8.90909 14.5456 8.94546 14.4729C9.01819 14.4001 9.49091 13.8183 10.1091 13.0183C11.4545 13.2729 12.1818 13.8183 12.1818 14.2547C12.1818 14.9092 10.6909 15.6365 8.65455 15.6365C6.61819 15.6365 5.12728 14.9092 5.12728 14.2547C5.12728 13.8183 5.85455 13.2729 7.2 13.0183C7.89091 13.8183 8.36364 14.4001 8.43637 14.4729ZM20.0727 22.8001C18.2909 22.982 15.8182 23.0547 14.0727 22.3638C12.2182 21.6365 9.74546 21.9274 7.81819 21.6001C5.16364 21.1638 5.49091 21.091 5.16364 19.382C4.8 17.5274 3.96364 15.2729 2 14.8729C1.74546 14.8001 1.6 14.182 1.49091 13.8547C1.45455 13.8183 1.56364 13.6729 1.74546 13.5638C2.72728 13.0547 1.12728 9.56377 2.14546 8.87286C2.4 8.69104 3.12728 8.61832 5.09091 9.81832C5.63637 10.7274 6.25455 11.6001 6.83637 12.3638C5.41819 12.691 4.50909 13.4183 4.50909 14.2183C4.50909 15.4183 6.32728 16.291 8.72728 16.291C11.1273 16.291 12.9455 15.382 12.9455 14.2183C12.9455 13.382 12.0364 12.691 10.6182 12.3638C10.9091 12.0001 11.2 11.5638 11.4909 11.1274C11.6727 11.0183 11.8545 10.9092 12.0364 10.7638C12.8364 10.2183 13.9273 9.49104 14.4364 9.70922L14.6909 9.81832C15.4182 10.1092 16.0364 10.3638 16.5455 9.38195C16.9091 8.69104 18.2545 8.4365 19.3091 8.58195C22.6909 9.01832 24 11.3456 20.2546 15.4183C20.1818 15.491 20.1455 15.6001 20.1818 15.6729C20.1818 15.782 20.2182 15.8547 20.3273 15.9274C20.6909 16.2547 20.7273 16.7638 20.4 17.6001C19.6727 19.491 20.1455 20.0365 21.3091 20.691C21.6 20.8729 21.9273 21.0183 22.0364 21.2365C22.4727 22.0365 21.2727 22.691 20.0727 22.8001Z" fill="#FC8019" stroke="#FC8019"/>
<path d="M8.69102 8.07295C10.0001 8.07295 11.091 6.98204 11.091 5.67295C11.091 4.32749 10.0001 3.27295 8.69102 3.27295C7.34556 3.27295 6.29102 4.36386 6.29102 5.67295C6.29102 6.98204 7.38192 8.07295 8.69102 8.07295ZM8.69102 3.96386C9.63647 3.96386 10.4001 4.72749 10.4001 5.67295C10.4001 6.6184 9.63647 7.38204 8.69102 7.38204C7.74556 7.38204 6.98193 6.6184 6.98193 5.67295C6.98193 4.72749 7.78192 3.96386 8.69102 3.96386Z" fill="#FC8019" stroke="#FC8019"/>
</g>
<defs>
<clipPath id="clip0_40000825_21128">
<rect width="24" height="24" fill="white"/>
</clipPath>
</defs>
</svg>
