<svg width="20" height="20" viewBox="0 0 20 20" fill="none" xmlns="http://www.w3.org/2000/svg">
<path d="M11.374 13.426C11.5289 13.4971 11.7034 13.5134 11.8688 13.4721C12.0341 13.4308 12.1805 13.3344 12.2838 13.1987L12.55 12.85C12.6897 12.6637 12.8709 12.5125 13.0792 12.4084C13.2875 12.3042 13.5171 12.25 13.75 12.25H16C16.3978 12.25 16.7794 12.408 17.0607 12.6893C17.342 12.9706 17.5 13.3522 17.5 13.75V16C17.5 16.3978 17.342 16.7794 17.0607 17.0607C16.7794 17.342 16.3978 17.5 16 17.5C12.4196 17.5 8.9858 16.0777 6.45406 13.5459C3.92232 11.0142 2.5 7.58042 2.5 4C2.5 3.60218 2.65804 3.22064 2.93934 2.93934C3.22064 2.65804 3.60218 2.5 4 2.5H6.25C6.64782 2.5 7.02936 2.65804 7.31066 2.93934C7.59196 3.22064 7.75 3.60218 7.75 4V6.25C7.75 6.48287 7.69578 6.71254 7.59164 6.92082C7.4875 7.1291 7.33629 7.31028 7.15 7.45L6.799 7.71325C6.66131 7.81838 6.56426 7.96794 6.52434 8.13651C6.48442 8.30509 6.50409 8.48228 6.58 8.638C7.60501 10.7199 9.29082 12.4036 11.374 13.426Z" fill="#353231"/>
</svg>
