<svg width="21" height="21" viewBox="0 0 21 21" fill="none" xmlns="http://www.w3.org/2000/svg">
<path fill-rule="evenodd" clip-rule="evenodd" d="M10.5038 1.31738C15.5771 1.31738 19.6914 5.4317 19.6914 10.505C19.6914 15.5783 15.5771 19.6926 10.5038 19.6926C5.43054 19.6926 1.31622 15.5783 1.31622 10.505C1.31622 5.4317 5.43054 1.31738 10.5038 1.31738ZM8.5959 13.4892L6.34655 11.238C5.96334 10.8545 5.96326 10.2293 6.34655 9.84589C6.72992 9.4626 7.35798 9.465 7.73856 9.84589L9.32434 11.4329L13.2692 7.48803C13.6526 7.10466 14.2779 7.10466 14.6612 7.48803C15.0446 7.87132 15.0441 8.49721 14.6612 8.88004L10.0192 13.5221C9.6364 13.9049 9.0105 13.9054 8.62721 13.5221C8.61644 13.5113 8.60605 13.5003 8.5959 13.4892Z" fill="#FC8019"/>
</svg>
