<svg width="24" height="24" viewBox="0 0 24 24" fill="none" xmlns="http://www.w3.org/2000/svg">
<g clip-path="url(#clip0_40001689_8172)">
<path d="M3 12C3 13.1819 3.23279 14.3522 3.68508 15.4442C4.13738 16.5361 4.80031 17.5282 5.63604 18.364C6.47177 19.1997 7.46392 19.8626 8.55585 20.3149C9.64778 20.7672 10.8181 21 12 21C13.1819 21 14.3522 20.7672 15.4442 20.3149C16.5361 19.8626 17.5282 19.1997 18.364 18.364C19.1997 17.5282 19.8626 16.5361 20.3149 15.4442C20.7672 14.3522 21 13.1819 21 12C21 10.8181 20.7672 9.64778 20.3149 8.55585C19.8626 7.46392 19.1997 6.47177 18.364 5.63604C17.5282 4.80031 16.5361 4.13738 15.4442 3.68508C14.3522 3.23279 13.1819 3 12 3C10.8181 3 9.64778 3.23279 8.55585 3.68508C7.46392 4.13738 6.47177 4.80031 5.63604 5.63604C4.80031 6.47177 4.13738 7.46392 3.68508 8.55585C3.23279 9.64778 3 10.8181 3 12Z" stroke="#DF8700" stroke-width="2" stroke-linecap="round" stroke-linejoin="round"/>
<path d="M8 12C8 12.5253 8.10346 13.0454 8.30448 13.5307C8.5055 14.016 8.80014 14.457 9.17157 14.8284C9.54301 15.1999 9.98396 15.4945 10.4693 15.6955C10.9546 15.8965 11.4747 16 12 16C12.5253 16 13.0454 15.8965 13.5307 15.6955C14.016 15.4945 14.457 15.1999 14.8284 14.8284C15.1999 14.457 15.4945 14.016 15.6955 13.5307C15.8965 13.0454 16 12.5253 16 12C16 11.4747 15.8965 10.9546 15.6955 10.4693C15.4945 9.98396 15.1999 9.54301 14.8284 9.17157C14.457 8.80014 14.016 8.5055 13.5307 8.30448C13.0454 8.10346 12.5253 8 12 8C11.4747 8 10.9546 8.10346 10.4693 8.30448C9.98396 8.5055 9.54301 8.80014 9.17157 9.17157C8.80014 9.54301 8.5055 9.98396 8.30448 10.4693C8.10346 10.9546 8 11.4747 8 12Z" fill="#DF8700" stroke="#DF8700" stroke-width="2" stroke-linecap="round" stroke-linejoin="round"/>
</g>
<defs>
<clipPath id="clip0_40001689_8172">
<rect width="24" height="24" fill="white"/>
</clipPath>
</defs>
</svg>
