<svg width="16" height="16" viewBox="0 0 16 16" fill="none" xmlns="http://www.w3.org/2000/svg">
<path d="M2 15.9998C1.45 15.9998 0.979333 15.8042 0.588 15.4128C0.196666 15.0215 0.000666667 14.5505 0 13.9998V11.9998C0 11.7165 0.0960001 11.4792 0.288 11.2878C0.48 11.0965 0.717333 11.0005 1 10.9998C1.28267 10.9992 1.52033 11.0952 1.713 11.2878C1.90567 11.4805 2.00133 11.7178 2 11.9998V13.9998H14V11.9998C14 11.7165 14.096 11.4792 14.288 11.2878C14.48 11.0965 14.7173 11.0005 15 10.9998C15.2827 10.9992 15.5203 11.0952 15.713 11.2878C15.9057 11.4805 16.0013 11.7178 16 11.9998V13.9998C16 14.5498 15.8043 15.0208 15.413 15.4128C15.0217 15.8048 14.5507 16.0005 14 15.9998H2ZM7 3.84982L5.125 5.72482C4.925 5.92482 4.68767 6.02082 4.413 6.01282C4.13833 6.00482 3.90067 5.90049 3.7 5.69982C3.51667 5.49982 3.42067 5.26649 3.412 4.99982C3.40333 4.73315 3.49933 4.49982 3.7 4.29982L7.3 0.69982C7.4 0.59982 7.50833 0.529153 7.625 0.48782C7.74167 0.446486 7.86667 0.425487 8 0.42482C8.13333 0.424153 8.25833 0.445153 8.375 0.48782C8.49167 0.530486 8.6 0.601153 8.7 0.69982L12.3 4.29982C12.5 4.49982 12.596 4.73315 12.588 4.99982C12.58 5.26649 12.484 5.49982 12.3 5.69982C12.1 5.89982 11.8627 6.00415 11.588 6.01282C11.3133 6.02149 11.0757 5.92549 10.875 5.72482L9 3.84982V10.9998C9 11.2832 8.904 11.5208 8.712 11.7128C8.52 11.9048 8.28267 12.0005 8 11.9998C7.71733 11.9992 7.48 11.9032 7.288 11.7118C7.096 11.5205 7 11.2832 7 10.9998V3.84982Z" fill="black"/>
</svg>
