<svg width="65" height="64" viewBox="0 0 65 64" fill="none" xmlns="http://www.w3.org/2000/svg">
<path d="M5.8335 56.0015C5.83327 51.8957 7.01785 47.8771 9.24508 44.4279C11.4723 40.9787 14.6476 38.2454 18.3898 36.5562C22.132 34.867 26.2821 34.2935 30.3422 34.9046C34.4022 35.5158 38.1997 37.2855 41.2788 40.0015" stroke="#DF8700" stroke-width="5.33333" stroke-linecap="round" stroke-linejoin="round"/>
<path d="M27.1668 34.6667C34.5306 34.6667 40.5002 28.6971 40.5002 21.3333C40.5002 13.9695 34.5306 8 27.1668 8C19.803 8 13.8335 13.9695 13.8335 21.3333C13.8335 28.6971 19.803 34.6667 27.1668 34.6667Z" stroke="#DF8700" stroke-width="5.33333" stroke-linecap="round" stroke-linejoin="round"/>
<path d="M43.1665 50.6663L48.4998 55.9997L59.1665 45.333" stroke="#261102" stroke-width="5.33333" stroke-linecap="round" stroke-linejoin="round"/>
</svg>
