<svg width="15" height="18" viewBox="0 0 15 18" fill="none" xmlns="http://www.w3.org/2000/svg">
<path fill-rule="evenodd" clip-rule="evenodd" d="M7.16302 12.6883C3.30978 12.6883 1.35646 13.3502 1.35646 14.6569C1.35646 15.9637 3.30978 16.6464 7.16302 16.6464C11.0163 16.6464 12.9678 15.9845 12.9678 14.6777C12.9678 13.371 11.0154 12.6883 7.16302 12.6883ZM7.16302 18.0001C5.39149 18.0001 0 18.0002 0 14.6542C0 11.67 4.08838 11.3291 7.16302 11.3291C8.93455 11.3291 14.3242 11.3291 14.3242 14.675C14.3242 17.652 10.2368 17.9965 7.16302 17.9965V18.0001Z" fill="#FC8019"/>
<path fill-rule="evenodd" clip-rule="evenodd" d="M7.16315 1.31937C6.70215 1.31765 6.2453 1.40674 5.81873 1.58157C5.39216 1.7564 5.00418 2.01352 4.67698 2.33828C4.34978 2.66305 4.08977 3.04909 3.91176 3.47435C3.73375 3.89961 3.64121 4.35575 3.63949 4.81676C3.63777 5.27777 3.72689 5.73461 3.90172 6.16119C4.07655 6.58776 4.33367 6.97571 4.65843 7.30291C4.9832 7.63011 5.36924 7.89014 5.7945 8.06815C6.21975 8.24616 6.67593 8.33865 7.13694 8.34037L7.16315 8.98606V8.34037C8.0942 8.34037 8.98712 7.97053 9.64547 7.31218C10.3038 6.65383 10.6736 5.76092 10.6736 4.82987C10.6736 3.89882 10.3038 3.00591 9.64547 2.34756C8.98712 1.68921 8.0942 1.31937 7.16315 1.31937ZM7.16315 9.63082H7.13418C5.85831 9.62698 4.63611 9.11697 3.73597 8.21276C2.83582 7.30855 2.33134 6.08405 2.33326 4.80818C2.33517 3.5323 2.84332 2.30935 3.74618 1.40784C4.64904 0.506341 5.87282 0 7.14869 0C8.42457 0 9.64829 0.506341 10.5512 1.40784C11.454 2.30935 11.9622 3.5323 11.9641 4.80818C11.966 6.08405 11.4615 7.30855 10.5614 8.21276C9.66122 9.11697 8.43903 9.62698 7.16315 9.63082Z" fill="#FC8019"/>
</svg>
