<svg width="24" height="24" viewBox="0 0 24 24" fill="none" xmlns="http://www.w3.org/2000/svg">
<path fill-rule="evenodd" clip-rule="evenodd" d="M12.001 15.313C8.13304 15.313 4.83008 15.898 4.83008 18.24C4.83008 20.582 8.11204 21.187 12.001 21.187C15.868 21.187 19.17 20.602 19.17 18.261C19.17 15.92 15.889 15.313 12.001 15.313Z" stroke="#353231" stroke-width="1.3" stroke-linecap="round" stroke-linejoin="round"/>
<path fill-rule="evenodd" clip-rule="evenodd" d="M12.001 11.973C13.2143 11.9686 14.3762 11.483 15.2318 10.6228C16.0874 9.76255 16.5668 8.598 16.5646 7.38474C16.5624 6.17147 16.0788 5.00865 15.2202 4.15152C14.3615 3.29439 13.1978 2.81299 11.9846 2.81299C10.7713 2.81299 9.60759 3.29439 8.74891 4.15152C7.89023 5.00865 7.40673 6.17147 7.40455 7.38474C7.40236 8.598 7.88167 9.76255 8.73725 10.6228C9.59284 11.483 10.7548 11.9686 11.9681 11.973H12.001Z" stroke="#353231" stroke-width="1.3" stroke-linecap="round" stroke-linejoin="round"/>
</svg>
