<svg width="16" height="16" viewBox="0 0 16 16" fill="none" xmlns="http://www.w3.org/2000/svg">
<g clip-path="url(#clip0_40005160_13405)">
<path d="M10.5287 12.3012H11.4177C11.5039 12.3012 11.5739 12.2313 11.5739 12.145V10.4804C11.5739 10.3942 11.5039 10.3242 11.4177 10.3242H10.5287C10.4425 10.3242 10.3726 10.3942 10.3726 10.4804V12.145C10.3726 12.2313 10.4425 12.3012 10.5287 12.3012Z" fill="#857E7B"/>
<path d="M12.9316 12.3012H13.8205C13.9068 12.3012 13.9767 12.2313 13.9767 12.145V10.4804C13.9767 10.3942 13.9068 10.3242 13.8205 10.3242H12.9316C12.8453 10.3242 12.7754 10.3942 12.7754 10.4804V12.145C12.7754 12.2313 12.8453 12.3012 12.9316 12.3012Z" fill="#857E7B"/>
<path d="M15.8861 13.379C15.8257 13.3293 15.7494 13.3048 15.6724 13.3085V9.06759H15.6875C15.8033 9.06759 15.9096 9.00353 15.9638 8.90116C16.0179 8.79878 16.011 8.67484 15.9458 8.57913L13.1854 4.52806C13.1272 4.44266 13.0305 4.39153 12.9271 4.39153H11.5898V3.11341C11.5898 2.94084 11.4499 2.80091 11.2773 2.80091H9.90472C9.73216 2.80091 9.59222 2.94084 9.59222 3.11341V4.39153H7.38322C7.26681 4.14128 7.09809 3.92072 6.88775 3.74362C7.04431 3.50631 7.13013 3.22628 7.13013 2.93681C7.13013 2.12856 6.47256 1.471 5.66431 1.471C5.66344 1.471 5.66259 1.471 5.66172 1.471C5.53547 0.639312 4.81566 0 3.94931 0C3.06456 0 2.33266 0.666781 2.22969 1.52422C1.60841 1.69678 1.15416 2.27103 1.15416 2.93675C1.15416 2.95428 1.15447 2.97178 1.15513 2.98931C0.463156 3.28244 0 3.9655 0 4.73534C0 5.17875 0.156094 5.60591 0.435438 5.94378C0.182594 6.32763 0.0457188 6.77972 0.0457188 7.24297C0.0457188 8.54572 1.10559 9.60559 2.40831 9.60559C2.76875 9.60559 3.11619 9.526 3.43309 9.37281V11.7127C2.34809 11.5407 1.29653 11.4446 0.316563 11.4318C0.232438 11.4293 0.152469 11.4632 0.0929687 11.5219C0.0334687 11.5806 0 11.6607 0 11.7443V15.6875C0 15.8601 0.139906 16 0.3125 16H15.6875C15.8601 16 16 15.8601 16 15.6875V13.6202C16 13.5268 15.9583 13.4383 15.8861 13.379ZM10.2172 3.42587H10.9648V4.3915H10.2172V3.42587ZM12.7619 5.0165L15.0964 8.44256H9.00928L6.67475 5.0165H12.7619ZM15.0474 9.06756V13.4146C13.1391 13.7103 11.1846 13.6361 9.30216 13.1995V9.06756H15.0474ZM6.33003 9.30672C5.71409 9.30672 5.21481 9.80603 5.21481 10.4219V12.0569C4.82712 11.9688 4.44103 11.8896 4.05813 11.8194V8.23159L6.08366 5.25897L8.58581 8.93103C8.61019 8.96681 8.64159 8.99612 8.67716 9.01866V13.0407C8.43603 12.9738 8.19628 12.9011 7.95825 12.8222C7.78766 12.7656 7.61659 12.7107 7.44525 12.6573V10.422C7.44525 9.806 6.94594 9.30672 6.33003 9.30672ZM3.06503 8.57909C3.00531 8.66675 2.99637 8.77387 3.03134 8.86606C2.83475 8.94162 2.62475 8.98059 2.40831 8.98059C1.45019 8.98059 0.670719 8.20113 0.670719 7.24297C0.670719 6.83244 0.816906 6.43384 1.08238 6.12063C1.19206 5.99119 1.17844 5.79791 1.05175 5.68512C0.780531 5.44378 0.625 5.09759 0.625 4.73534C0.625 4.15597 1.01612 3.64991 1.57613 3.50469C1.74056 3.46206 1.84084 3.29584 1.80187 3.1305C1.78681 3.06653 1.77916 3.00134 1.77916 2.93675C1.77916 2.5 2.11994 2.13194 2.55494 2.09878C2.72119 2.08613 2.84725 1.92394 2.84284 1.75738C2.84288 1.75694 2.84288 1.75603 2.84288 1.75363C2.84288 1.14322 3.33891 0.625 3.94931 0.625C4.55975 0.625 5.05634 1.12162 5.05634 1.73203C5.05634 1.75269 5.05553 1.77528 5.05378 1.80309C5.04744 1.9035 5.08984 2.00081 5.16769 2.06453C5.24556 2.12828 5.34931 2.15059 5.44647 2.12462C5.51753 2.10559 5.59081 2.09594 5.66428 2.09594C6.12791 2.09594 6.50509 2.47312 6.50509 2.93675C6.50509 3.17838 6.40066 3.40872 6.21856 3.56866C6.14197 3.63591 6.10303 3.73628 6.11416 3.83759C6.12528 3.93891 6.18512 4.02841 6.2745 4.07744C6.42131 4.15797 6.54866 4.26487 6.65156 4.3915H6.08362C5.9795 4.3915 5.88338 4.44359 5.82566 4.52844L5.82541 4.52803L4.17706 6.94709V5.14253L4.87853 4.46025C5.00225 4.33991 5.005 4.14206 4.88466 4.01831C4.76431 3.89459 4.56647 3.89184 4.44275 4.01219L4.17703 4.27063V3.64963C4.17703 3.47706 4.03713 3.33713 3.86453 3.33713C3.69194 3.33713 3.55203 3.47706 3.55203 3.64963V6.07356L2.59331 5.29572C2.45928 5.18697 2.26247 5.20747 2.15375 5.3415C2.04503 5.47553 2.0655 5.67234 2.19953 5.78106L3.55203 6.87838V7.86425L3.06503 8.57909ZM15.375 15.375H0.625V12.0638C2.80691 12.1317 5.32656 12.6079 7.76153 13.4154C10.2136 14.2285 12.8377 14.4272 15.375 13.995V15.375Z" fill="#857E7B" stroke="#857E7B" stroke-width="0.333333"/>
</g>
<defs>
<clipPath id="clip0_40005160_13405">
<rect width="16" height="16" fill="white"/>
</clipPath>
</defs>
</svg>
