<svg width="24" height="24" viewBox="0 0 24 24" fill="none" xmlns="http://www.w3.org/2000/svg">
<g clip-path="url(#clip0_40000825_21144)">
<path d="M15.7934 18.4528H17.1268C17.2561 18.4528 17.3611 18.3479 17.3611 18.2185V15.7216C17.3611 15.5922 17.2561 15.4873 17.1268 15.4873H15.7934C15.664 15.4873 15.5591 15.5922 15.5591 15.7216V18.2185C15.5591 18.3479 15.664 18.4528 15.7934 18.4528Z" fill="#FC8019"/>
<path d="M19.3974 18.4528H20.7308C20.8601 18.4528 20.9651 18.3479 20.9651 18.2185V15.7216C20.9651 15.5922 20.8601 15.4873 20.7308 15.4873H19.3974C19.268 15.4873 19.1631 15.5922 19.1631 15.7216V18.2185C19.163 18.3479 19.2679 18.4528 19.3974 18.4528Z" fill="#FC8019"/>
<path d="M23.8292 20.0685C23.7386 19.9939 23.6241 19.9573 23.5086 19.9628V13.6014H23.5312C23.705 13.6014 23.8644 13.5053 23.9457 13.3517C24.0268 13.1982 24.0165 13.0123 23.9186 12.8687L19.7781 6.79209C19.6908 6.66398 19.5457 6.5873 19.3907 6.5873H17.3848V4.67011C17.3848 4.41127 17.1749 4.20136 16.916 4.20136H14.8571C14.5982 4.20136 14.3883 4.41127 14.3883 4.67011V6.5873H11.0748C10.9002 6.21192 10.6471 5.88108 10.3316 5.61544C10.5665 5.25947 10.6952 4.83942 10.6952 4.40522C10.6952 3.19284 9.70884 2.2065 8.49647 2.2065C8.49516 2.2065 8.49389 2.2065 8.49258 2.2065C8.3032 0.958969 7.22348 0 5.92397 0C4.59684 0 3.49898 1.00017 3.34453 2.28633C2.41261 2.54517 1.73123 3.40655 1.73123 4.40512C1.73123 4.43142 1.7317 4.45767 1.73269 4.48397C0.694734 4.92366 0 5.94825 0 7.10302C0 7.76813 0.234141 8.40886 0.653156 8.91567C0.273891 9.49144 0.0685781 10.1696 0.0685781 10.8645C0.0685781 12.8186 1.65839 14.4084 3.61247 14.4084C4.15313 14.4084 4.67428 14.289 5.14964 14.0592V17.5691C3.52214 17.3111 1.9448 17.1668 0.474844 17.1477C0.348656 17.1439 0.228703 17.1947 0.139453 17.2828C0.0502031 17.3709 0 17.4911 0 17.6164V23.5312C0 23.7901 0.209859 24 0.46875 24H23.5312C23.7901 24 24 23.7901 24 23.5312V20.4303C24 20.2902 23.9374 20.1575 23.8292 20.0685ZM15.3258 5.13881H16.4473V6.58725H15.3258V5.13881ZM19.1429 7.52475L22.6446 12.6638H13.5139L10.0121 7.52475H19.1429ZM22.5712 13.6013V20.1219C19.7086 20.5654 16.7769 20.4541 13.9532 19.7992V13.6013H22.5712ZM9.49505 13.9601C8.57114 13.9601 7.82222 14.709 7.82222 15.6329V18.0854C7.24069 17.9532 6.66155 17.8343 6.08719 17.7291V12.3474L9.12548 7.88845L12.8787 13.3965C12.9153 13.4502 12.9624 13.4942 13.0157 13.528V19.561C12.654 19.4608 12.2944 19.3516 11.9374 19.2332C11.6815 19.1483 11.4249 19.066 11.1679 18.986V15.633C11.1679 14.709 10.4189 13.9601 9.49505 13.9601ZM4.59755 12.8686C4.50797 13.0001 4.49456 13.1608 4.54702 13.2991C4.25212 13.4124 3.93713 13.4709 3.61247 13.4709C2.17528 13.4709 1.00608 12.3017 1.00608 10.8645C1.00608 10.2487 1.22536 9.65077 1.62356 9.18094C1.78809 8.98678 1.76766 8.69686 1.57762 8.52769C1.1708 8.16567 0.9375 7.64639 0.9375 7.10302C0.9375 6.23395 1.52419 5.47486 2.36419 5.25703C2.61084 5.19309 2.76127 4.94377 2.70281 4.69575C2.68022 4.5998 2.66873 4.50202 2.66873 4.40512C2.66873 3.75 3.17991 3.19791 3.83241 3.14817C4.08178 3.12919 4.27087 2.88591 4.26427 2.63606C4.26431 2.63541 4.26431 2.63405 4.26431 2.63044C4.26431 1.71483 5.00836 0.9375 5.92397 0.9375C6.83962 0.9375 7.58452 1.68244 7.58452 2.59805C7.58452 2.62903 7.5833 2.66292 7.58067 2.70464C7.57116 2.85525 7.63477 3.00122 7.75153 3.0968C7.86834 3.19242 8.02397 3.22589 8.1697 3.18694C8.2763 3.15839 8.38622 3.14391 8.49642 3.14391C9.19186 3.14391 9.75764 3.70969 9.75764 4.40512C9.75764 4.76756 9.60098 5.11308 9.32784 5.35298C9.21295 5.45386 9.15455 5.60442 9.17123 5.75639C9.18792 5.90836 9.27769 6.04261 9.41175 6.11616C9.63197 6.23695 9.82298 6.39731 9.97734 6.58725H9.12544C8.96925 6.58725 8.82506 6.66539 8.73848 6.79266L8.73811 6.79205L6.26559 10.4206V7.7138L7.3178 6.69037C7.50338 6.50986 7.5075 6.21309 7.32698 6.02747C7.14647 5.84189 6.8497 5.83777 6.66412 6.01828L6.26555 6.40594V5.47444C6.26555 5.21559 6.05569 5.00569 5.7968 5.00569C5.53791 5.00569 5.32805 5.21559 5.32805 5.47444V9.11034L3.88997 7.94358C3.68892 7.78045 3.3937 7.8112 3.23062 8.01225C3.06755 8.2133 3.09825 8.50852 3.2993 8.67159L5.32805 10.3176V11.7964L4.59755 12.8686ZM23.0625 23.0625H0.9375V18.0957C4.21036 18.1975 7.98984 18.9118 11.6423 20.1231C15.3203 21.3428 19.2566 21.6408 23.0625 20.9925V23.0625Z" fill="#FC8019" stroke="#FC8019" stroke-width="0.5"/>
</g>
<defs>
<clipPath id="clip0_40000825_21144">
<rect width="24" height="24" fill="white"/>
</clipPath>
</defs>
</svg>
