<svg width="15" height="18" viewBox="0 0 15 18" fill="none" xmlns="http://www.w3.org/2000/svg">
<path d="M7.28551 13.6614C7.60633 13.6614 7.92714 13.5475 8.18589 13.3196C9.72775 11.9615 12.7092 8.94555 12.7092 5.92959C12.7092 2.93413 10.281 0.505859 7.28551 0.505859C4.29006 0.505859 1.86179 2.93413 1.86179 5.92959C1.86179 8.94555 4.84328 11.9615 6.38514 13.3196C6.64389 13.5475 6.9647 13.6614 7.28551 13.6614Z" stroke="#2E2E2E" stroke-width="1.01243" stroke-miterlimit="10" stroke-linecap="round" stroke-linejoin="round"/>
<path d="M11.7964 12.9531C13.1888 13.3256 14.0655 13.8679 14.0655 14.4716C14.0655 15.5949 11.0302 16.5055 7.28587 16.5055C3.54157 16.5055 0.50621 15.5949 0.50621 14.4716C0.50621 13.8679 1.38296 13.3256 2.77533 12.9531" stroke="#2E2E2E" stroke-width="1.01243" stroke-miterlimit="10" stroke-linecap="round" stroke-linejoin="round"/>
<path d="M7.28425 7.96428C8.40754 7.96428 9.31815 7.05367 9.31815 5.93038C9.31815 4.80709 8.40754 3.89648 7.28425 3.89648C6.16096 3.89648 5.25035 4.80709 5.25035 5.93038C5.25035 7.05367 6.16096 7.96428 7.28425 7.96428Z" stroke="#2E2E2E" stroke-width="1.01243" stroke-miterlimit="10" stroke-linecap="round" stroke-linejoin="round"/>
</svg>
