<svg width="20" height="20" viewBox="0 0 20 20" fill="none" xmlns="http://www.w3.org/2000/svg">
<g clip-path="url(#clip0_40000960_32778)">
<path d="M0.668075 9.91439C0.667581 11.5652 1.09894 13.1772 1.91913 14.5979L0.5896 19.4523L5.5574 18.1497C6.92602 18.8956 8.46708 19.2894 10.0354 19.2898H10.0395C15.2041 19.2898 19.4081 15.0872 19.4103 9.92178C19.4113 7.4187 18.4374 5.06505 16.668 3.29428C14.8989 1.52361 12.5461 0.547963 10.0391 0.546875C4.87402 0.546875 0.670245 4.74918 0.668075 9.91439Z" fill="url(#paint0_linear_40000960_32778)"/>
<path d="M0.333519 9.91153C0.332927 11.6218 0.779788 13.2914 1.62919 14.7629L0.251984 19.7913L5.39795 18.4421C6.81582 19.2152 8.41218 19.6227 10.0366 19.6233H10.0408C15.3906 19.6233 19.7457 15.2696 19.748 9.91932C19.7488 7.3263 18.7399 4.88807 16.9074 3.05382C15.0745 1.21979 12.6375 0.209093 10.0408 0.208008C4.68999 0.208008 0.33569 4.56103 0.333519 9.91153ZM3.39799 14.5096L3.20589 14.2045C2.39814 12.9202 1.97181 11.4361 1.9724 9.91211C1.97418 5.46503 5.59341 1.84699 10.0438 1.84699C12.199 1.84788 14.2245 2.68801 15.7479 4.21238C17.2713 5.73686 18.1096 7.76338 18.109 9.91874C18.107 14.3659 14.4877 17.9844 10.0408 17.9844H10.0376C8.58966 17.9837 7.16959 17.5948 5.93109 16.8601L5.63634 16.6852L2.58264 17.4859L3.39799 14.5096Z" fill="url(#paint1_linear_40000960_32778)"/>
<path d="M7.6146 5.85544C7.43287 5.4515 7.24168 5.44342 7.06883 5.43631C6.92739 5.43029 6.7656 5.43067 6.60402 5.43067C6.44222 5.43067 6.17945 5.49148 5.95727 5.73411C5.73487 5.97684 5.10825 6.56359 5.10825 7.75688C5.10825 8.95029 5.9775 10.1034 6.09862 10.2654C6.21993 10.4271 7.77658 12.9543 10.2419 13.9265C12.2908 14.7344 12.7078 14.5737 13.1525 14.5333C13.5971 14.4929 14.5875 13.9467 14.7896 13.3803C14.9917 12.814 14.9917 12.3286 14.9311 12.2272C14.8705 12.1261 14.7087 12.0654 14.4662 11.9442C14.2236 11.8229 13.0311 11.236 12.8088 11.1551C12.5865 11.0743 12.4248 11.0339 12.263 11.2767C12.1013 11.5192 11.6367 12.0654 11.4952 12.2272C11.3537 12.3893 11.2122 12.4095 10.9697 12.2882C10.727 12.1665 9.94585 11.9106 9.01916 11.0844C8.29808 10.4415 7.81133 9.64758 7.66979 9.40475C7.52833 9.16223 7.65468 9.03084 7.77629 8.90992C7.88527 8.80125 8.01893 8.62673 8.14025 8.48517C8.26127 8.34352 8.30162 8.24244 8.38248 8.08065C8.46341 7.91877 8.42295 7.77713 8.36233 7.65581C8.30162 7.5345 7.83029 6.33506 7.6146 5.85544Z" fill="white"/>
</g>
<defs>
<linearGradient id="paint0_linear_40000960_32778" x1="941.625" y1="1891.09" x2="941.625" y2="0.547776" gradientUnits="userSpaceOnUse">
<stop stop-color="#1FAF38"/>
<stop offset="1" stop-color="#60D669"/>
</linearGradient>
<linearGradient id="paint1_linear_40000960_32778" x1="975.052" y1="1958.54" x2="975.052" y2="0.205557" gradientUnits="userSpaceOnUse">
<stop stop-color="#F9F9F9"/>
<stop offset="1" stop-color="#F2F2F2"/>
</linearGradient>
<clipPath id="clip0_40000960_32778">
<rect width="20" height="20" fill="white"/>
</clipPath>
</defs>
</svg>
