<svg width="15" height="14" viewBox="0 0 15 14" fill="none" xmlns="http://www.w3.org/2000/svg">
<path fill-rule="evenodd" clip-rule="evenodd" d="M9.58971 0.77568C10.3325 1.06984 10.5597 2.09942 10.8634 2.43183C11.1198 2.70082 11.471 2.85914 11.8423 2.87308C12.456 2.87308 13.0445 3.11679 13.4785 3.55065C13.9125 3.98451 14.1564 4.573 14.1566 5.18667V9.44834C14.1564 10.271 13.8297 11.0599 13.2482 11.6418C12.6667 12.2237 11.878 12.551 11.0554 12.5518H3.65497C2.83189 12.5518 2.04256 12.2248 1.46056 11.6428C0.878551 11.0608 0.551575 10.2714 0.551575 9.44834V5.18298C0.551864 4.87906 0.61203 4.57818 0.728604 4.2975C0.845177 4.01683 1.01585 3.76185 1.23096 3.54715C1.44607 3.33245 1.70141 3.16222 1.98231 3.04618C2.2632 2.93014 2.5642 2.87056 2.86813 2.87085C3.23937 2.85669 3.59048 2.6984 3.84695 2.42961C4.15067 2.09867 4.37715 1.06911 5.11991 0.773481C6.59592 0.47785 8.11595 0.47785 9.59196 0.773481L9.58971 0.77568Z" stroke="white" stroke-width="1.10311" stroke-linecap="round" stroke-linejoin="round"/>
<path d="M11.395 4.7832H11.4017" stroke="white" stroke-width="1.47081" stroke-linecap="round" stroke-linejoin="round"/>
<path fill-rule="evenodd" clip-rule="evenodd" d="M9.69197 7.45114C9.69197 6.98876 9.55485 6.53677 9.29796 6.15231C9.04108 5.76785 8.67595 5.46819 8.24876 5.29124C7.82157 5.1143 7.35151 5.068 6.89801 5.1582C6.44451 5.24841 6.02796 5.47107 5.701 5.79803C5.37405 6.12498 5.15136 6.54156 5.06116 6.99506C4.97095 7.44856 5.01725 7.91862 5.1942 8.34581C5.37115 8.77299 5.67078 9.13812 6.05524 9.39501C6.4397 9.6519 6.89171 9.78902 7.3541 9.78902C7.97414 9.78902 8.56876 9.5427 9.00719 9.10426C9.44563 8.66583 9.69197 8.07118 9.69197 7.45114V7.45114Z" stroke="white" stroke-width="1.10311" stroke-linecap="round" stroke-linejoin="round"/>
</svg>
